G04 EAGLE Gerber RS-274X export*
G75*
%MOMM*%
%FSLAX34Y34*%
%LPD*%
%IN*%
%IPPOS*%
%AMOC8*
5,1,8,0,0,1.08239X$1,22.5*%
G01*
%ADD10C,0.254000*%


D10*
X0Y0D02*
X1500000Y0D01*
X1500000Y700000D01*
X0Y700000D01*
X0Y0D01*
X45500Y669446D02*
X45421Y668342D01*
X45263Y667246D01*
X45028Y666164D01*
X44716Y665102D01*
X44329Y664065D01*
X43869Y663058D01*
X43339Y662086D01*
X42740Y661154D01*
X42077Y660268D01*
X41352Y659431D01*
X40569Y658648D01*
X39732Y657923D01*
X38846Y657260D01*
X37914Y656661D01*
X36943Y656131D01*
X35935Y655671D01*
X34898Y655284D01*
X33836Y654972D01*
X32754Y654737D01*
X31658Y654579D01*
X30554Y654500D01*
X29446Y654500D01*
X28342Y654579D01*
X27246Y654737D01*
X26164Y654972D01*
X25102Y655284D01*
X24065Y655671D01*
X23058Y656131D01*
X22086Y656661D01*
X21154Y657260D01*
X20268Y657923D01*
X19431Y658648D01*
X18648Y659431D01*
X17923Y660268D01*
X17260Y661154D01*
X16661Y662086D01*
X16131Y663058D01*
X15671Y664065D01*
X15284Y665102D01*
X14972Y666164D01*
X14737Y667246D01*
X14579Y668342D01*
X14500Y669446D01*
X14500Y670554D01*
X14579Y671658D01*
X14737Y672754D01*
X14972Y673836D01*
X15284Y674898D01*
X15671Y675935D01*
X16131Y676943D01*
X16661Y677914D01*
X17260Y678846D01*
X17923Y679732D01*
X18648Y680569D01*
X19431Y681352D01*
X20268Y682077D01*
X21154Y682740D01*
X22086Y683339D01*
X23058Y683869D01*
X24065Y684329D01*
X25102Y684716D01*
X26164Y685028D01*
X27246Y685263D01*
X28342Y685421D01*
X29446Y685500D01*
X30554Y685500D01*
X31658Y685421D01*
X32754Y685263D01*
X33836Y685028D01*
X34898Y684716D01*
X35935Y684329D01*
X36943Y683869D01*
X37914Y683339D01*
X38846Y682740D01*
X39732Y682077D01*
X40569Y681352D01*
X41352Y680569D01*
X42077Y679732D01*
X42740Y678846D01*
X43339Y677914D01*
X43869Y676943D01*
X44329Y675935D01*
X44716Y674898D01*
X45028Y673836D01*
X45263Y672754D01*
X45421Y671658D01*
X45500Y670554D01*
X45500Y669446D01*
X45500Y29446D02*
X45421Y28342D01*
X45263Y27246D01*
X45028Y26164D01*
X44716Y25102D01*
X44329Y24065D01*
X43869Y23058D01*
X43339Y22086D01*
X42740Y21154D01*
X42077Y20268D01*
X41352Y19431D01*
X40569Y18648D01*
X39732Y17923D01*
X38846Y17260D01*
X37914Y16661D01*
X36943Y16131D01*
X35935Y15671D01*
X34898Y15284D01*
X33836Y14972D01*
X32754Y14737D01*
X31658Y14579D01*
X30554Y14500D01*
X29446Y14500D01*
X28342Y14579D01*
X27246Y14737D01*
X26164Y14972D01*
X25102Y15284D01*
X24065Y15671D01*
X23058Y16131D01*
X22086Y16661D01*
X21154Y17260D01*
X20268Y17923D01*
X19431Y18648D01*
X18648Y19431D01*
X17923Y20268D01*
X17260Y21154D01*
X16661Y22086D01*
X16131Y23058D01*
X15671Y24065D01*
X15284Y25102D01*
X14972Y26164D01*
X14737Y27246D01*
X14579Y28342D01*
X14500Y29446D01*
X14500Y30554D01*
X14579Y31658D01*
X14737Y32754D01*
X14972Y33836D01*
X15284Y34898D01*
X15671Y35935D01*
X16131Y36943D01*
X16661Y37914D01*
X17260Y38846D01*
X17923Y39732D01*
X18648Y40569D01*
X19431Y41352D01*
X20268Y42077D01*
X21154Y42740D01*
X22086Y43339D01*
X23058Y43869D01*
X24065Y44329D01*
X25102Y44716D01*
X26164Y45028D01*
X27246Y45263D01*
X28342Y45421D01*
X29446Y45500D01*
X30554Y45500D01*
X31658Y45421D01*
X32754Y45263D01*
X33836Y45028D01*
X34898Y44716D01*
X35935Y44329D01*
X36943Y43869D01*
X37914Y43339D01*
X38846Y42740D01*
X39732Y42077D01*
X40569Y41352D01*
X41352Y40569D01*
X42077Y39732D01*
X42740Y38846D01*
X43339Y37914D01*
X43869Y36943D01*
X44329Y35935D01*
X44716Y34898D01*
X45028Y33836D01*
X45263Y32754D01*
X45421Y31658D01*
X45500Y30554D01*
X45500Y29446D01*
X1485500Y669446D02*
X1485421Y668342D01*
X1485263Y667246D01*
X1485028Y666164D01*
X1484716Y665102D01*
X1484329Y664065D01*
X1483869Y663058D01*
X1483339Y662086D01*
X1482740Y661154D01*
X1482077Y660268D01*
X1481352Y659431D01*
X1480569Y658648D01*
X1479732Y657923D01*
X1478846Y657260D01*
X1477914Y656661D01*
X1476943Y656131D01*
X1475935Y655671D01*
X1474898Y655284D01*
X1473836Y654972D01*
X1472754Y654737D01*
X1471658Y654579D01*
X1470554Y654500D01*
X1469446Y654500D01*
X1468342Y654579D01*
X1467246Y654737D01*
X1466164Y654972D01*
X1465102Y655284D01*
X1464065Y655671D01*
X1463058Y656131D01*
X1462086Y656661D01*
X1461154Y657260D01*
X1460268Y657923D01*
X1459431Y658648D01*
X1458648Y659431D01*
X1457923Y660268D01*
X1457260Y661154D01*
X1456661Y662086D01*
X1456131Y663058D01*
X1455671Y664065D01*
X1455284Y665102D01*
X1454972Y666164D01*
X1454737Y667246D01*
X1454579Y668342D01*
X1454500Y669446D01*
X1454500Y670554D01*
X1454579Y671658D01*
X1454737Y672754D01*
X1454972Y673836D01*
X1455284Y674898D01*
X1455671Y675935D01*
X1456131Y676943D01*
X1456661Y677914D01*
X1457260Y678846D01*
X1457923Y679732D01*
X1458648Y680569D01*
X1459431Y681352D01*
X1460268Y682077D01*
X1461154Y682740D01*
X1462086Y683339D01*
X1463058Y683869D01*
X1464065Y684329D01*
X1465102Y684716D01*
X1466164Y685028D01*
X1467246Y685263D01*
X1468342Y685421D01*
X1469446Y685500D01*
X1470554Y685500D01*
X1471658Y685421D01*
X1472754Y685263D01*
X1473836Y685028D01*
X1474898Y684716D01*
X1475935Y684329D01*
X1476943Y683869D01*
X1477914Y683339D01*
X1478846Y682740D01*
X1479732Y682077D01*
X1480569Y681352D01*
X1481352Y680569D01*
X1482077Y679732D01*
X1482740Y678846D01*
X1483339Y677914D01*
X1483869Y676943D01*
X1484329Y675935D01*
X1484716Y674898D01*
X1485028Y673836D01*
X1485263Y672754D01*
X1485421Y671658D01*
X1485500Y670554D01*
X1485500Y669446D01*
X1485500Y29446D02*
X1485421Y28342D01*
X1485263Y27246D01*
X1485028Y26164D01*
X1484716Y25102D01*
X1484329Y24065D01*
X1483869Y23058D01*
X1483339Y22086D01*
X1482740Y21154D01*
X1482077Y20268D01*
X1481352Y19431D01*
X1480569Y18648D01*
X1479732Y17923D01*
X1478846Y17260D01*
X1477914Y16661D01*
X1476943Y16131D01*
X1475935Y15671D01*
X1474898Y15284D01*
X1473836Y14972D01*
X1472754Y14737D01*
X1471658Y14579D01*
X1470554Y14500D01*
X1469446Y14500D01*
X1468342Y14579D01*
X1467246Y14737D01*
X1466164Y14972D01*
X1465102Y15284D01*
X1464065Y15671D01*
X1463058Y16131D01*
X1462086Y16661D01*
X1461154Y17260D01*
X1460268Y17923D01*
X1459431Y18648D01*
X1458648Y19431D01*
X1457923Y20268D01*
X1457260Y21154D01*
X1456661Y22086D01*
X1456131Y23058D01*
X1455671Y24065D01*
X1455284Y25102D01*
X1454972Y26164D01*
X1454737Y27246D01*
X1454579Y28342D01*
X1454500Y29446D01*
X1454500Y30554D01*
X1454579Y31658D01*
X1454737Y32754D01*
X1454972Y33836D01*
X1455284Y34898D01*
X1455671Y35935D01*
X1456131Y36943D01*
X1456661Y37914D01*
X1457260Y38846D01*
X1457923Y39732D01*
X1458648Y40569D01*
X1459431Y41352D01*
X1460268Y42077D01*
X1461154Y42740D01*
X1462086Y43339D01*
X1463058Y43869D01*
X1464065Y44329D01*
X1465102Y44716D01*
X1466164Y45028D01*
X1467246Y45263D01*
X1468342Y45421D01*
X1469446Y45500D01*
X1470554Y45500D01*
X1471658Y45421D01*
X1472754Y45263D01*
X1473836Y45028D01*
X1474898Y44716D01*
X1475935Y44329D01*
X1476943Y43869D01*
X1477914Y43339D01*
X1478846Y42740D01*
X1479732Y42077D01*
X1480569Y41352D01*
X1481352Y40569D01*
X1482077Y39732D01*
X1482740Y38846D01*
X1483339Y37914D01*
X1483869Y36943D01*
X1484329Y35935D01*
X1484716Y34898D01*
X1485028Y33836D01*
X1485263Y32754D01*
X1485421Y31658D01*
X1485500Y30554D01*
X1485500Y29446D01*
X140000Y569396D02*
X139927Y568189D01*
X139781Y566989D01*
X139563Y565800D01*
X139274Y564627D01*
X138915Y563473D01*
X138486Y562343D01*
X137990Y561241D01*
X137428Y560170D01*
X136803Y559136D01*
X136116Y558141D01*
X135371Y557190D01*
X134569Y556285D01*
X133715Y555431D01*
X132810Y554629D01*
X131859Y553884D01*
X130864Y553197D01*
X129830Y552572D01*
X128759Y552010D01*
X127657Y551514D01*
X126527Y551085D01*
X125373Y550726D01*
X124200Y550437D01*
X123011Y550219D01*
X121811Y550073D01*
X120604Y550000D01*
X119396Y550000D01*
X118189Y550073D01*
X116989Y550219D01*
X115800Y550437D01*
X114627Y550726D01*
X113473Y551085D01*
X112343Y551514D01*
X111241Y552010D01*
X110170Y552572D01*
X109136Y553197D01*
X108141Y553884D01*
X107190Y554629D01*
X106285Y555431D01*
X105431Y556285D01*
X104629Y557190D01*
X103884Y558141D01*
X103197Y559136D01*
X102572Y560170D01*
X102010Y561241D01*
X101514Y562343D01*
X101085Y563473D01*
X100726Y564627D01*
X100437Y565800D01*
X100219Y566989D01*
X100073Y568189D01*
X100000Y569396D01*
X100000Y570604D01*
X100073Y571811D01*
X100219Y573011D01*
X100437Y574200D01*
X100726Y575373D01*
X101085Y576527D01*
X101514Y577657D01*
X102010Y578759D01*
X102572Y579830D01*
X103197Y580864D01*
X103884Y581859D01*
X104629Y582810D01*
X105431Y583715D01*
X106285Y584569D01*
X107190Y585371D01*
X108141Y586116D01*
X109136Y586803D01*
X110170Y587428D01*
X111241Y587990D01*
X112343Y588486D01*
X113473Y588915D01*
X114627Y589274D01*
X115800Y589563D01*
X116989Y589781D01*
X118189Y589927D01*
X119396Y590000D01*
X120604Y590000D01*
X121811Y589927D01*
X123011Y589781D01*
X124200Y589563D01*
X125373Y589274D01*
X126527Y588915D01*
X127657Y588486D01*
X128759Y587990D01*
X129830Y587428D01*
X130864Y586803D01*
X131859Y586116D01*
X132810Y585371D01*
X133715Y584569D01*
X134569Y583715D01*
X135371Y582810D01*
X136116Y581859D01*
X136803Y580864D01*
X137428Y579830D01*
X137990Y578759D01*
X138486Y577657D01*
X138915Y576527D01*
X139274Y575373D01*
X139563Y574200D01*
X139781Y573011D01*
X139927Y571811D01*
X140000Y570604D01*
X140000Y569396D01*
X360000Y569396D02*
X359927Y568189D01*
X359781Y566989D01*
X359563Y565800D01*
X359274Y564627D01*
X358915Y563473D01*
X358486Y562343D01*
X357990Y561241D01*
X357428Y560170D01*
X356803Y559136D01*
X356116Y558141D01*
X355371Y557190D01*
X354569Y556285D01*
X353715Y555431D01*
X352810Y554629D01*
X351859Y553884D01*
X350864Y553197D01*
X349830Y552572D01*
X348759Y552010D01*
X347657Y551514D01*
X346527Y551085D01*
X345373Y550726D01*
X344200Y550437D01*
X343011Y550219D01*
X341811Y550073D01*
X340604Y550000D01*
X339396Y550000D01*
X338189Y550073D01*
X336989Y550219D01*
X335800Y550437D01*
X334627Y550726D01*
X333473Y551085D01*
X332343Y551514D01*
X331241Y552010D01*
X330170Y552572D01*
X329136Y553197D01*
X328141Y553884D01*
X327190Y554629D01*
X326285Y555431D01*
X325431Y556285D01*
X324629Y557190D01*
X323884Y558141D01*
X323197Y559136D01*
X322572Y560170D01*
X322010Y561241D01*
X321514Y562343D01*
X321085Y563473D01*
X320726Y564627D01*
X320437Y565800D01*
X320219Y566989D01*
X320073Y568189D01*
X320000Y569396D01*
X320000Y570604D01*
X320073Y571811D01*
X320219Y573011D01*
X320437Y574200D01*
X320726Y575373D01*
X321085Y576527D01*
X321514Y577657D01*
X322010Y578759D01*
X322572Y579830D01*
X323197Y580864D01*
X323884Y581859D01*
X324629Y582810D01*
X325431Y583715D01*
X326285Y584569D01*
X327190Y585371D01*
X328141Y586116D01*
X329136Y586803D01*
X330170Y587428D01*
X331241Y587990D01*
X332343Y588486D01*
X333473Y588915D01*
X334627Y589274D01*
X335800Y589563D01*
X336989Y589781D01*
X338189Y589927D01*
X339396Y590000D01*
X340604Y590000D01*
X341811Y589927D01*
X343011Y589781D01*
X344200Y589563D01*
X345373Y589274D01*
X346527Y588915D01*
X347657Y588486D01*
X348759Y587990D01*
X349830Y587428D01*
X350864Y586803D01*
X351859Y586116D01*
X352810Y585371D01*
X353715Y584569D01*
X354569Y583715D01*
X355371Y582810D01*
X356116Y581859D01*
X356803Y580864D01*
X357428Y579830D01*
X357990Y578759D01*
X358486Y577657D01*
X358915Y576527D01*
X359274Y575373D01*
X359563Y574200D01*
X359781Y573011D01*
X359927Y571811D01*
X360000Y570604D01*
X360000Y569396D01*
X660000Y569396D02*
X659927Y568189D01*
X659781Y566989D01*
X659563Y565800D01*
X659274Y564627D01*
X658915Y563473D01*
X658486Y562343D01*
X657990Y561241D01*
X657428Y560170D01*
X656803Y559136D01*
X656116Y558141D01*
X655371Y557190D01*
X654569Y556285D01*
X653715Y555431D01*
X652810Y554629D01*
X651859Y553884D01*
X650864Y553197D01*
X649830Y552572D01*
X648759Y552010D01*
X647657Y551514D01*
X646527Y551085D01*
X645373Y550726D01*
X644200Y550437D01*
X643011Y550219D01*
X641811Y550073D01*
X640604Y550000D01*
X639396Y550000D01*
X638189Y550073D01*
X636989Y550219D01*
X635800Y550437D01*
X634627Y550726D01*
X633473Y551085D01*
X632343Y551514D01*
X631241Y552010D01*
X630170Y552572D01*
X629136Y553197D01*
X628141Y553884D01*
X627190Y554629D01*
X626285Y555431D01*
X625431Y556285D01*
X624629Y557190D01*
X623884Y558141D01*
X623197Y559136D01*
X622572Y560170D01*
X622010Y561241D01*
X621514Y562343D01*
X621085Y563473D01*
X620726Y564627D01*
X620437Y565800D01*
X620219Y566989D01*
X620073Y568189D01*
X620000Y569396D01*
X620000Y570604D01*
X620073Y571811D01*
X620219Y573011D01*
X620437Y574200D01*
X620726Y575373D01*
X621085Y576527D01*
X621514Y577657D01*
X622010Y578759D01*
X622572Y579830D01*
X623197Y580864D01*
X623884Y581859D01*
X624629Y582810D01*
X625431Y583715D01*
X626285Y584569D01*
X627190Y585371D01*
X628141Y586116D01*
X629136Y586803D01*
X630170Y587428D01*
X631241Y587990D01*
X632343Y588486D01*
X633473Y588915D01*
X634627Y589274D01*
X635800Y589563D01*
X636989Y589781D01*
X638189Y589927D01*
X639396Y590000D01*
X640604Y590000D01*
X641811Y589927D01*
X643011Y589781D01*
X644200Y589563D01*
X645373Y589274D01*
X646527Y588915D01*
X647657Y588486D01*
X648759Y587990D01*
X649830Y587428D01*
X650864Y586803D01*
X651859Y586116D01*
X652810Y585371D01*
X653715Y584569D01*
X654569Y583715D01*
X655371Y582810D01*
X656116Y581859D01*
X656803Y580864D01*
X657428Y579830D01*
X657990Y578759D01*
X658486Y577657D01*
X658915Y576527D01*
X659274Y575373D01*
X659563Y574200D01*
X659781Y573011D01*
X659927Y571811D01*
X660000Y570604D01*
X660000Y569396D01*
X880000Y569396D02*
X879927Y568189D01*
X879781Y566989D01*
X879563Y565800D01*
X879274Y564627D01*
X878915Y563473D01*
X878486Y562343D01*
X877990Y561241D01*
X877428Y560170D01*
X876803Y559136D01*
X876116Y558141D01*
X875371Y557190D01*
X874569Y556285D01*
X873715Y555431D01*
X872810Y554629D01*
X871859Y553884D01*
X870864Y553197D01*
X869830Y552572D01*
X868759Y552010D01*
X867657Y551514D01*
X866527Y551085D01*
X865373Y550726D01*
X864200Y550437D01*
X863011Y550219D01*
X861811Y550073D01*
X860604Y550000D01*
X859396Y550000D01*
X858189Y550073D01*
X856989Y550219D01*
X855800Y550437D01*
X854627Y550726D01*
X853473Y551085D01*
X852343Y551514D01*
X851241Y552010D01*
X850170Y552572D01*
X849136Y553197D01*
X848141Y553884D01*
X847190Y554629D01*
X846285Y555431D01*
X845431Y556285D01*
X844629Y557190D01*
X843884Y558141D01*
X843197Y559136D01*
X842572Y560170D01*
X842010Y561241D01*
X841514Y562343D01*
X841085Y563473D01*
X840726Y564627D01*
X840437Y565800D01*
X840219Y566989D01*
X840073Y568189D01*
X840000Y569396D01*
X840000Y570604D01*
X840073Y571811D01*
X840219Y573011D01*
X840437Y574200D01*
X840726Y575373D01*
X841085Y576527D01*
X841514Y577657D01*
X842010Y578759D01*
X842572Y579830D01*
X843197Y580864D01*
X843884Y581859D01*
X844629Y582810D01*
X845431Y583715D01*
X846285Y584569D01*
X847190Y585371D01*
X848141Y586116D01*
X849136Y586803D01*
X850170Y587428D01*
X851241Y587990D01*
X852343Y588486D01*
X853473Y588915D01*
X854627Y589274D01*
X855800Y589563D01*
X856989Y589781D01*
X858189Y589927D01*
X859396Y590000D01*
X860604Y590000D01*
X861811Y589927D01*
X863011Y589781D01*
X864200Y589563D01*
X865373Y589274D01*
X866527Y588915D01*
X867657Y588486D01*
X868759Y587990D01*
X869830Y587428D01*
X870864Y586803D01*
X871859Y586116D01*
X872810Y585371D01*
X873715Y584569D01*
X874569Y583715D01*
X875371Y582810D01*
X876116Y581859D01*
X876803Y580864D01*
X877428Y579830D01*
X877990Y578759D01*
X878486Y577657D01*
X878915Y576527D01*
X879274Y575373D01*
X879563Y574200D01*
X879781Y573011D01*
X879927Y571811D01*
X880000Y570604D01*
X880000Y569396D01*
X1180000Y569396D02*
X1179927Y568189D01*
X1179781Y566989D01*
X1179563Y565800D01*
X1179274Y564627D01*
X1178915Y563473D01*
X1178486Y562343D01*
X1177990Y561241D01*
X1177428Y560170D01*
X1176803Y559136D01*
X1176116Y558141D01*
X1175371Y557190D01*
X1174569Y556285D01*
X1173715Y555431D01*
X1172810Y554629D01*
X1171859Y553884D01*
X1170864Y553197D01*
X1169830Y552572D01*
X1168759Y552010D01*
X1167657Y551514D01*
X1166527Y551085D01*
X1165373Y550726D01*
X1164200Y550437D01*
X1163011Y550219D01*
X1161811Y550073D01*
X1160604Y550000D01*
X1159396Y550000D01*
X1158189Y550073D01*
X1156989Y550219D01*
X1155800Y550437D01*
X1154627Y550726D01*
X1153473Y551085D01*
X1152343Y551514D01*
X1151241Y552010D01*
X1150170Y552572D01*
X1149136Y553197D01*
X1148141Y553884D01*
X1147190Y554629D01*
X1146285Y555431D01*
X1145431Y556285D01*
X1144629Y557190D01*
X1143884Y558141D01*
X1143197Y559136D01*
X1142572Y560170D01*
X1142010Y561241D01*
X1141514Y562343D01*
X1141085Y563473D01*
X1140726Y564627D01*
X1140437Y565800D01*
X1140219Y566989D01*
X1140073Y568189D01*
X1140000Y569396D01*
X1140000Y570604D01*
X1140073Y571811D01*
X1140219Y573011D01*
X1140437Y574200D01*
X1140726Y575373D01*
X1141085Y576527D01*
X1141514Y577657D01*
X1142010Y578759D01*
X1142572Y579830D01*
X1143197Y580864D01*
X1143884Y581859D01*
X1144629Y582810D01*
X1145431Y583715D01*
X1146285Y584569D01*
X1147190Y585371D01*
X1148141Y586116D01*
X1149136Y586803D01*
X1150170Y587428D01*
X1151241Y587990D01*
X1152343Y588486D01*
X1153473Y588915D01*
X1154627Y589274D01*
X1155800Y589563D01*
X1156989Y589781D01*
X1158189Y589927D01*
X1159396Y590000D01*
X1160604Y590000D01*
X1161811Y589927D01*
X1163011Y589781D01*
X1164200Y589563D01*
X1165373Y589274D01*
X1166527Y588915D01*
X1167657Y588486D01*
X1168759Y587990D01*
X1169830Y587428D01*
X1170864Y586803D01*
X1171859Y586116D01*
X1172810Y585371D01*
X1173715Y584569D01*
X1174569Y583715D01*
X1175371Y582810D01*
X1176116Y581859D01*
X1176803Y580864D01*
X1177428Y579830D01*
X1177990Y578759D01*
X1178486Y577657D01*
X1178915Y576527D01*
X1179274Y575373D01*
X1179563Y574200D01*
X1179781Y573011D01*
X1179927Y571811D01*
X1180000Y570604D01*
X1180000Y569396D01*
X1400000Y569396D02*
X1399927Y568189D01*
X1399781Y566989D01*
X1399563Y565800D01*
X1399274Y564627D01*
X1398915Y563473D01*
X1398486Y562343D01*
X1397990Y561241D01*
X1397428Y560170D01*
X1396803Y559136D01*
X1396116Y558141D01*
X1395371Y557190D01*
X1394569Y556285D01*
X1393715Y555431D01*
X1392810Y554629D01*
X1391859Y553884D01*
X1390864Y553197D01*
X1389830Y552572D01*
X1388759Y552010D01*
X1387657Y551514D01*
X1386527Y551085D01*
X1385373Y550726D01*
X1384200Y550437D01*
X1383011Y550219D01*
X1381811Y550073D01*
X1380604Y550000D01*
X1379396Y550000D01*
X1378189Y550073D01*
X1376989Y550219D01*
X1375800Y550437D01*
X1374627Y550726D01*
X1373473Y551085D01*
X1372343Y551514D01*
X1371241Y552010D01*
X1370170Y552572D01*
X1369136Y553197D01*
X1368141Y553884D01*
X1367190Y554629D01*
X1366285Y555431D01*
X1365431Y556285D01*
X1364629Y557190D01*
X1363884Y558141D01*
X1363197Y559136D01*
X1362572Y560170D01*
X1362010Y561241D01*
X1361514Y562343D01*
X1361085Y563473D01*
X1360726Y564627D01*
X1360437Y565800D01*
X1360219Y566989D01*
X1360073Y568189D01*
X1360000Y569396D01*
X1360000Y570604D01*
X1360073Y571811D01*
X1360219Y573011D01*
X1360437Y574200D01*
X1360726Y575373D01*
X1361085Y576527D01*
X1361514Y577657D01*
X1362010Y578759D01*
X1362572Y579830D01*
X1363197Y580864D01*
X1363884Y581859D01*
X1364629Y582810D01*
X1365431Y583715D01*
X1366285Y584569D01*
X1367190Y585371D01*
X1368141Y586116D01*
X1369136Y586803D01*
X1370170Y587428D01*
X1371241Y587990D01*
X1372343Y588486D01*
X1373473Y588915D01*
X1374627Y589274D01*
X1375800Y589563D01*
X1376989Y589781D01*
X1378189Y589927D01*
X1379396Y590000D01*
X1380604Y590000D01*
X1381811Y589927D01*
X1383011Y589781D01*
X1384200Y589563D01*
X1385373Y589274D01*
X1386527Y588915D01*
X1387657Y588486D01*
X1388759Y587990D01*
X1389830Y587428D01*
X1390864Y586803D01*
X1391859Y586116D01*
X1392810Y585371D01*
X1393715Y584569D01*
X1394569Y583715D01*
X1395371Y582810D01*
X1396116Y581859D01*
X1396803Y580864D01*
X1397428Y579830D01*
X1397990Y578759D01*
X1398486Y577657D01*
X1398915Y576527D01*
X1399274Y575373D01*
X1399563Y574200D01*
X1399781Y573011D01*
X1399927Y571811D01*
X1400000Y570604D01*
X1400000Y569396D01*
M02*
