G04 EAGLE Gerber RS-274X export*
G75*
%MOMM*%
%FSLAX34Y34*%
%LPD*%
%INSilkscreen Top*%
%IPPOS*%
%AMOC8*
5,1,8,0,0,1.08239X$1,22.5*%
G01*
%ADD10C,0.101600*%
%ADD11C,0.127000*%

G36*
X1430820Y442369D02*
X1430820Y442369D01*
X1430845Y442367D01*
X1436267Y442755D01*
X1436304Y442765D01*
X1436357Y442768D01*
X1441669Y443924D01*
X1441704Y443938D01*
X1441756Y443949D01*
X1442718Y444308D01*
X1442719Y444308D01*
X1444419Y444942D01*
X1444419Y444943D01*
X1446119Y445577D01*
X1446120Y445577D01*
X1446849Y445849D01*
X1446882Y445868D01*
X1446931Y445886D01*
X1451702Y448492D01*
X1451732Y448515D01*
X1451779Y448541D01*
X1456130Y451798D01*
X1456156Y451826D01*
X1456199Y451857D01*
X1460043Y455701D01*
X1460064Y455733D01*
X1460102Y455770D01*
X1463360Y460122D01*
X1463377Y460156D01*
X1463408Y460198D01*
X1463894Y461087D01*
X1464587Y462355D01*
X1464587Y462356D01*
X1465279Y463624D01*
X1465972Y464892D01*
X1465972Y464893D01*
X1466014Y464969D01*
X1466026Y465005D01*
X1466051Y465051D01*
X1467951Y470144D01*
X1467958Y470182D01*
X1467976Y470231D01*
X1469132Y475543D01*
X1469133Y475581D01*
X1469145Y475633D01*
X1469533Y481055D01*
X1469531Y481075D01*
X1469534Y481100D01*
X1469534Y646200D01*
X1469531Y646217D01*
X1469533Y646238D01*
X1469163Y652362D01*
X1469155Y652394D01*
X1469154Y652438D01*
X1468048Y658472D01*
X1468036Y658503D01*
X1468029Y658546D01*
X1466204Y664403D01*
X1466189Y664432D01*
X1466177Y664474D01*
X1463660Y670068D01*
X1463641Y670095D01*
X1463624Y670136D01*
X1460450Y675386D01*
X1460429Y675411D01*
X1460407Y675449D01*
X1456624Y680278D01*
X1456599Y680300D01*
X1456573Y680335D01*
X1452235Y684673D01*
X1452208Y684692D01*
X1452178Y684724D01*
X1447349Y688507D01*
X1447320Y688522D01*
X1447286Y688550D01*
X1442036Y691724D01*
X1442005Y691736D01*
X1441968Y691760D01*
X1436374Y694277D01*
X1436342Y694285D01*
X1436303Y694304D01*
X1434810Y694770D01*
X1430446Y696129D01*
X1430413Y696133D01*
X1430372Y696148D01*
X1424338Y697254D01*
X1424305Y697254D01*
X1424262Y697263D01*
X1418138Y697633D01*
X1418121Y697631D01*
X1418100Y697634D01*
X1329200Y697634D01*
X1329180Y697631D01*
X1329155Y697633D01*
X1323733Y697245D01*
X1323696Y697235D01*
X1323643Y697232D01*
X1318331Y696076D01*
X1318296Y696062D01*
X1318244Y696051D01*
X1318178Y696026D01*
X1316477Y695392D01*
X1314777Y694758D01*
X1313151Y694151D01*
X1313118Y694132D01*
X1313069Y694114D01*
X1308298Y691508D01*
X1308268Y691485D01*
X1308222Y691460D01*
X1303870Y688202D01*
X1303844Y688174D01*
X1303801Y688143D01*
X1299957Y684299D01*
X1299936Y684267D01*
X1299898Y684230D01*
X1296641Y679879D01*
X1296623Y679844D01*
X1296592Y679802D01*
X1295942Y678613D01*
X1295250Y677345D01*
X1295249Y677345D01*
X1295249Y677344D01*
X1294557Y676076D01*
X1293986Y675031D01*
X1293974Y674995D01*
X1293949Y674949D01*
X1292049Y669856D01*
X1292042Y669818D01*
X1292024Y669769D01*
X1290868Y664457D01*
X1290868Y664448D01*
X1290867Y664447D01*
X1290867Y664441D01*
X1290867Y664419D01*
X1290855Y664367D01*
X1290467Y658945D01*
X1290470Y658925D01*
X1290466Y658900D01*
X1290466Y481100D01*
X1290469Y481080D01*
X1290467Y481055D01*
X1290855Y475633D01*
X1290865Y475596D01*
X1290868Y475543D01*
X1292024Y470231D01*
X1292038Y470196D01*
X1292049Y470144D01*
X1293949Y465051D01*
X1293968Y465018D01*
X1293986Y464969D01*
X1296592Y460198D01*
X1296615Y460168D01*
X1296641Y460122D01*
X1299898Y455770D01*
X1299926Y455744D01*
X1299957Y455701D01*
X1303801Y451857D01*
X1303833Y451836D01*
X1303870Y451798D01*
X1308222Y448541D01*
X1308256Y448523D01*
X1308298Y448492D01*
X1313069Y445886D01*
X1313105Y445874D01*
X1313151Y445849D01*
X1318244Y443949D01*
X1318282Y443942D01*
X1318331Y443924D01*
X1323643Y442768D01*
X1323681Y442767D01*
X1323733Y442755D01*
X1329155Y442367D01*
X1329175Y442370D01*
X1329200Y442366D01*
X1430800Y442366D01*
X1430820Y442369D01*
G37*
G36*
X170820Y442369D02*
X170820Y442369D01*
X170845Y442367D01*
X176267Y442755D01*
X176304Y442765D01*
X176357Y442768D01*
X181669Y443924D01*
X181704Y443938D01*
X181756Y443949D01*
X182718Y444308D01*
X182719Y444308D01*
X184419Y444942D01*
X184419Y444943D01*
X186119Y445577D01*
X186120Y445577D01*
X186849Y445849D01*
X186882Y445868D01*
X186931Y445886D01*
X191702Y448492D01*
X191732Y448515D01*
X191779Y448541D01*
X196130Y451798D01*
X196156Y451826D01*
X196199Y451857D01*
X200043Y455701D01*
X200064Y455733D01*
X200102Y455770D01*
X203360Y460122D01*
X203377Y460156D01*
X203408Y460198D01*
X203894Y461087D01*
X204587Y462355D01*
X204587Y462356D01*
X205279Y463624D01*
X205972Y464892D01*
X205972Y464893D01*
X206014Y464969D01*
X206026Y465005D01*
X206051Y465051D01*
X207951Y470144D01*
X207958Y470182D01*
X207976Y470231D01*
X209132Y475543D01*
X209133Y475581D01*
X209145Y475633D01*
X209533Y481055D01*
X209531Y481075D01*
X209534Y481100D01*
X209534Y646200D01*
X209531Y646217D01*
X209533Y646238D01*
X209163Y652362D01*
X209155Y652394D01*
X209154Y652438D01*
X208048Y658472D01*
X208036Y658503D01*
X208029Y658546D01*
X206204Y664403D01*
X206189Y664432D01*
X206177Y664474D01*
X203660Y670068D01*
X203641Y670095D01*
X203624Y670136D01*
X200450Y675386D01*
X200429Y675411D01*
X200407Y675449D01*
X196624Y680278D01*
X196599Y680300D01*
X196573Y680335D01*
X192235Y684673D01*
X192208Y684692D01*
X192178Y684724D01*
X187349Y688507D01*
X187320Y688522D01*
X187286Y688550D01*
X182036Y691724D01*
X182005Y691736D01*
X181968Y691760D01*
X176374Y694277D01*
X176342Y694285D01*
X176303Y694304D01*
X174810Y694770D01*
X170446Y696129D01*
X170413Y696133D01*
X170372Y696148D01*
X164338Y697254D01*
X164305Y697254D01*
X164262Y697263D01*
X158138Y697633D01*
X158121Y697631D01*
X158100Y697634D01*
X69200Y697634D01*
X69180Y697631D01*
X69155Y697633D01*
X63733Y697245D01*
X63696Y697235D01*
X63643Y697232D01*
X58331Y696076D01*
X58296Y696062D01*
X58244Y696051D01*
X58178Y696026D01*
X56477Y695392D01*
X54777Y694758D01*
X53151Y694151D01*
X53118Y694132D01*
X53069Y694114D01*
X48298Y691508D01*
X48268Y691485D01*
X48222Y691460D01*
X43870Y688202D01*
X43844Y688174D01*
X43801Y688143D01*
X39957Y684299D01*
X39936Y684267D01*
X39898Y684230D01*
X36641Y679879D01*
X36623Y679844D01*
X36592Y679802D01*
X35942Y678613D01*
X35250Y677345D01*
X35249Y677345D01*
X35249Y677344D01*
X34557Y676076D01*
X33986Y675031D01*
X33974Y674995D01*
X33949Y674949D01*
X32049Y669856D01*
X32042Y669818D01*
X32024Y669769D01*
X30868Y664457D01*
X30868Y664448D01*
X30867Y664447D01*
X30867Y664441D01*
X30867Y664419D01*
X30855Y664367D01*
X30467Y658945D01*
X30470Y658925D01*
X30466Y658900D01*
X30466Y481100D01*
X30469Y481080D01*
X30467Y481055D01*
X30855Y475633D01*
X30865Y475596D01*
X30868Y475543D01*
X32024Y470231D01*
X32038Y470196D01*
X32049Y470144D01*
X33949Y465051D01*
X33968Y465018D01*
X33986Y464969D01*
X36592Y460198D01*
X36615Y460168D01*
X36641Y460122D01*
X39898Y455770D01*
X39926Y455744D01*
X39957Y455701D01*
X43801Y451857D01*
X43833Y451836D01*
X43870Y451798D01*
X48222Y448541D01*
X48256Y448523D01*
X48298Y448492D01*
X53069Y445886D01*
X53105Y445874D01*
X53151Y445849D01*
X58244Y443949D01*
X58282Y443942D01*
X58331Y443924D01*
X63643Y442768D01*
X63681Y442767D01*
X63733Y442755D01*
X69155Y442367D01*
X69175Y442370D01*
X69200Y442366D01*
X170800Y442366D01*
X170820Y442369D01*
G37*
G36*
X1210820Y442369D02*
X1210820Y442369D01*
X1210845Y442367D01*
X1216267Y442755D01*
X1216304Y442765D01*
X1216357Y442768D01*
X1221669Y443924D01*
X1221704Y443938D01*
X1221756Y443949D01*
X1222718Y444308D01*
X1222719Y444308D01*
X1224419Y444942D01*
X1224419Y444943D01*
X1226119Y445577D01*
X1226120Y445577D01*
X1226849Y445849D01*
X1226882Y445868D01*
X1226931Y445886D01*
X1231702Y448492D01*
X1231732Y448515D01*
X1231779Y448541D01*
X1236130Y451798D01*
X1236156Y451826D01*
X1236199Y451857D01*
X1240043Y455701D01*
X1240064Y455733D01*
X1240102Y455770D01*
X1243360Y460122D01*
X1243377Y460156D01*
X1243408Y460198D01*
X1243894Y461087D01*
X1244587Y462355D01*
X1244587Y462356D01*
X1245279Y463624D01*
X1245972Y464892D01*
X1245972Y464893D01*
X1246014Y464969D01*
X1246026Y465005D01*
X1246051Y465051D01*
X1247951Y470144D01*
X1247958Y470182D01*
X1247976Y470231D01*
X1249132Y475543D01*
X1249133Y475581D01*
X1249145Y475633D01*
X1249533Y481055D01*
X1249531Y481075D01*
X1249534Y481100D01*
X1249534Y646200D01*
X1249531Y646217D01*
X1249533Y646238D01*
X1249163Y652362D01*
X1249155Y652394D01*
X1249154Y652438D01*
X1248048Y658472D01*
X1248036Y658503D01*
X1248029Y658546D01*
X1246204Y664403D01*
X1246189Y664432D01*
X1246177Y664474D01*
X1243660Y670068D01*
X1243641Y670095D01*
X1243624Y670136D01*
X1240450Y675386D01*
X1240429Y675411D01*
X1240407Y675449D01*
X1236624Y680278D01*
X1236599Y680300D01*
X1236573Y680335D01*
X1232235Y684673D01*
X1232208Y684692D01*
X1232178Y684724D01*
X1227349Y688507D01*
X1227320Y688522D01*
X1227286Y688550D01*
X1222036Y691724D01*
X1222005Y691736D01*
X1221968Y691760D01*
X1216374Y694277D01*
X1216342Y694285D01*
X1216303Y694304D01*
X1214810Y694770D01*
X1210446Y696129D01*
X1210413Y696133D01*
X1210372Y696148D01*
X1204338Y697254D01*
X1204305Y697254D01*
X1204262Y697263D01*
X1198138Y697633D01*
X1198121Y697631D01*
X1198100Y697634D01*
X1109200Y697634D01*
X1109180Y697631D01*
X1109155Y697633D01*
X1103733Y697245D01*
X1103696Y697235D01*
X1103643Y697232D01*
X1098331Y696076D01*
X1098296Y696062D01*
X1098244Y696051D01*
X1098178Y696026D01*
X1096477Y695392D01*
X1094777Y694758D01*
X1093151Y694151D01*
X1093118Y694132D01*
X1093069Y694114D01*
X1088298Y691508D01*
X1088268Y691485D01*
X1088222Y691460D01*
X1083870Y688202D01*
X1083844Y688174D01*
X1083801Y688143D01*
X1079957Y684299D01*
X1079936Y684267D01*
X1079898Y684230D01*
X1076641Y679879D01*
X1076623Y679844D01*
X1076592Y679802D01*
X1075942Y678613D01*
X1075250Y677345D01*
X1075249Y677345D01*
X1075249Y677344D01*
X1074557Y676076D01*
X1073986Y675031D01*
X1073974Y674995D01*
X1073949Y674949D01*
X1072049Y669856D01*
X1072042Y669818D01*
X1072024Y669769D01*
X1070868Y664457D01*
X1070868Y664448D01*
X1070867Y664447D01*
X1070867Y664441D01*
X1070867Y664419D01*
X1070855Y664367D01*
X1070467Y658945D01*
X1070470Y658925D01*
X1070466Y658900D01*
X1070466Y481100D01*
X1070469Y481080D01*
X1070467Y481055D01*
X1070855Y475633D01*
X1070865Y475596D01*
X1070868Y475543D01*
X1072024Y470231D01*
X1072038Y470196D01*
X1072049Y470144D01*
X1073949Y465051D01*
X1073968Y465018D01*
X1073986Y464969D01*
X1076592Y460198D01*
X1076615Y460168D01*
X1076641Y460122D01*
X1079898Y455770D01*
X1079926Y455744D01*
X1079957Y455701D01*
X1083801Y451857D01*
X1083833Y451836D01*
X1083870Y451798D01*
X1088222Y448541D01*
X1088256Y448523D01*
X1088298Y448492D01*
X1093069Y445886D01*
X1093105Y445874D01*
X1093151Y445849D01*
X1098244Y443949D01*
X1098282Y443942D01*
X1098331Y443924D01*
X1103643Y442768D01*
X1103681Y442767D01*
X1103733Y442755D01*
X1109155Y442367D01*
X1109175Y442370D01*
X1109200Y442366D01*
X1210800Y442366D01*
X1210820Y442369D01*
G37*
G36*
X910820Y442369D02*
X910820Y442369D01*
X910845Y442367D01*
X916267Y442755D01*
X916304Y442765D01*
X916357Y442768D01*
X921669Y443924D01*
X921704Y443938D01*
X921756Y443949D01*
X922718Y444308D01*
X922719Y444308D01*
X924419Y444942D01*
X924419Y444943D01*
X926119Y445577D01*
X926120Y445577D01*
X926849Y445849D01*
X926882Y445868D01*
X926931Y445886D01*
X931702Y448492D01*
X931732Y448515D01*
X931779Y448541D01*
X936130Y451798D01*
X936156Y451826D01*
X936199Y451857D01*
X940043Y455701D01*
X940064Y455733D01*
X940102Y455770D01*
X943360Y460122D01*
X943377Y460156D01*
X943408Y460198D01*
X943894Y461087D01*
X944587Y462355D01*
X944587Y462356D01*
X945279Y463624D01*
X945972Y464892D01*
X945972Y464893D01*
X946014Y464969D01*
X946026Y465005D01*
X946051Y465051D01*
X947951Y470144D01*
X947958Y470182D01*
X947976Y470231D01*
X949132Y475543D01*
X949133Y475581D01*
X949145Y475633D01*
X949533Y481055D01*
X949531Y481075D01*
X949534Y481100D01*
X949534Y646200D01*
X949531Y646217D01*
X949533Y646238D01*
X949163Y652362D01*
X949155Y652394D01*
X949154Y652438D01*
X948048Y658472D01*
X948036Y658503D01*
X948029Y658546D01*
X946204Y664403D01*
X946189Y664432D01*
X946177Y664474D01*
X943660Y670068D01*
X943641Y670095D01*
X943624Y670136D01*
X940450Y675386D01*
X940429Y675411D01*
X940407Y675449D01*
X936624Y680278D01*
X936599Y680300D01*
X936573Y680335D01*
X932235Y684673D01*
X932208Y684692D01*
X932178Y684724D01*
X927349Y688507D01*
X927320Y688522D01*
X927286Y688550D01*
X922036Y691724D01*
X922005Y691736D01*
X921968Y691760D01*
X916374Y694277D01*
X916342Y694285D01*
X916303Y694304D01*
X914810Y694770D01*
X910446Y696129D01*
X910413Y696133D01*
X910372Y696148D01*
X904338Y697254D01*
X904305Y697254D01*
X904262Y697263D01*
X898138Y697633D01*
X898121Y697631D01*
X898100Y697634D01*
X809200Y697634D01*
X809180Y697631D01*
X809155Y697633D01*
X803733Y697245D01*
X803696Y697235D01*
X803643Y697232D01*
X798331Y696076D01*
X798296Y696062D01*
X798244Y696051D01*
X798178Y696026D01*
X796477Y695392D01*
X794777Y694758D01*
X793151Y694151D01*
X793118Y694132D01*
X793069Y694114D01*
X788298Y691508D01*
X788268Y691485D01*
X788222Y691460D01*
X783870Y688202D01*
X783844Y688174D01*
X783801Y688143D01*
X779957Y684299D01*
X779936Y684267D01*
X779898Y684230D01*
X776641Y679879D01*
X776623Y679844D01*
X776592Y679802D01*
X775942Y678613D01*
X775250Y677345D01*
X775249Y677345D01*
X775249Y677344D01*
X774557Y676076D01*
X773986Y675031D01*
X773974Y674995D01*
X773949Y674949D01*
X772049Y669856D01*
X772042Y669818D01*
X772024Y669769D01*
X770868Y664457D01*
X770868Y664448D01*
X770867Y664447D01*
X770867Y664441D01*
X770867Y664419D01*
X770855Y664367D01*
X770467Y658945D01*
X770470Y658925D01*
X770466Y658900D01*
X770466Y481100D01*
X770469Y481080D01*
X770467Y481055D01*
X770855Y475633D01*
X770865Y475596D01*
X770868Y475543D01*
X772024Y470231D01*
X772038Y470196D01*
X772049Y470144D01*
X773949Y465051D01*
X773968Y465018D01*
X773986Y464969D01*
X776592Y460198D01*
X776615Y460168D01*
X776641Y460122D01*
X779898Y455770D01*
X779926Y455744D01*
X779957Y455701D01*
X783801Y451857D01*
X783833Y451836D01*
X783870Y451798D01*
X788222Y448541D01*
X788256Y448523D01*
X788298Y448492D01*
X793069Y445886D01*
X793105Y445874D01*
X793151Y445849D01*
X798244Y443949D01*
X798282Y443942D01*
X798331Y443924D01*
X803643Y442768D01*
X803681Y442767D01*
X803733Y442755D01*
X809155Y442367D01*
X809175Y442370D01*
X809200Y442366D01*
X910800Y442366D01*
X910820Y442369D01*
G37*
G36*
X390820Y442369D02*
X390820Y442369D01*
X390845Y442367D01*
X396267Y442755D01*
X396304Y442765D01*
X396357Y442768D01*
X401669Y443924D01*
X401704Y443938D01*
X401756Y443949D01*
X402718Y444308D01*
X402719Y444308D01*
X404419Y444942D01*
X404419Y444943D01*
X406119Y445577D01*
X406120Y445577D01*
X406849Y445849D01*
X406882Y445868D01*
X406931Y445886D01*
X411702Y448492D01*
X411732Y448515D01*
X411779Y448541D01*
X416130Y451798D01*
X416156Y451826D01*
X416199Y451857D01*
X420043Y455701D01*
X420064Y455733D01*
X420102Y455770D01*
X423360Y460122D01*
X423377Y460156D01*
X423408Y460198D01*
X423894Y461087D01*
X424587Y462355D01*
X424587Y462356D01*
X425279Y463624D01*
X425972Y464892D01*
X425972Y464893D01*
X426014Y464969D01*
X426026Y465005D01*
X426051Y465051D01*
X427951Y470144D01*
X427958Y470182D01*
X427976Y470231D01*
X429132Y475543D01*
X429133Y475581D01*
X429145Y475633D01*
X429533Y481055D01*
X429531Y481075D01*
X429534Y481100D01*
X429534Y646200D01*
X429531Y646217D01*
X429533Y646238D01*
X429163Y652362D01*
X429155Y652394D01*
X429154Y652438D01*
X428048Y658472D01*
X428036Y658503D01*
X428029Y658546D01*
X426204Y664403D01*
X426189Y664432D01*
X426177Y664474D01*
X423660Y670068D01*
X423641Y670095D01*
X423624Y670136D01*
X420450Y675386D01*
X420429Y675411D01*
X420407Y675449D01*
X416624Y680278D01*
X416599Y680300D01*
X416573Y680335D01*
X412235Y684673D01*
X412208Y684692D01*
X412178Y684724D01*
X407349Y688507D01*
X407320Y688522D01*
X407286Y688550D01*
X402036Y691724D01*
X402005Y691736D01*
X401968Y691760D01*
X396374Y694277D01*
X396342Y694285D01*
X396303Y694304D01*
X394810Y694770D01*
X390446Y696129D01*
X390413Y696133D01*
X390372Y696148D01*
X384338Y697254D01*
X384305Y697254D01*
X384262Y697263D01*
X378138Y697633D01*
X378121Y697631D01*
X378100Y697634D01*
X289200Y697634D01*
X289180Y697631D01*
X289155Y697633D01*
X283733Y697245D01*
X283696Y697235D01*
X283643Y697232D01*
X278331Y696076D01*
X278296Y696062D01*
X278244Y696051D01*
X278178Y696026D01*
X276477Y695392D01*
X274777Y694758D01*
X273151Y694151D01*
X273118Y694132D01*
X273069Y694114D01*
X268298Y691508D01*
X268268Y691485D01*
X268222Y691460D01*
X263870Y688202D01*
X263844Y688174D01*
X263801Y688143D01*
X259957Y684299D01*
X259936Y684267D01*
X259898Y684230D01*
X256641Y679879D01*
X256623Y679844D01*
X256592Y679802D01*
X255942Y678613D01*
X255250Y677345D01*
X255249Y677345D01*
X255249Y677344D01*
X254557Y676076D01*
X253986Y675031D01*
X253974Y674995D01*
X253949Y674949D01*
X252049Y669856D01*
X252042Y669818D01*
X252024Y669769D01*
X250868Y664457D01*
X250868Y664448D01*
X250867Y664447D01*
X250867Y664441D01*
X250867Y664419D01*
X250855Y664367D01*
X250467Y658945D01*
X250470Y658925D01*
X250466Y658900D01*
X250466Y481100D01*
X250469Y481080D01*
X250467Y481055D01*
X250855Y475633D01*
X250865Y475596D01*
X250868Y475543D01*
X252024Y470231D01*
X252038Y470196D01*
X252049Y470144D01*
X253949Y465051D01*
X253968Y465018D01*
X253986Y464969D01*
X256592Y460198D01*
X256615Y460168D01*
X256641Y460122D01*
X259898Y455770D01*
X259926Y455744D01*
X259957Y455701D01*
X263801Y451857D01*
X263833Y451836D01*
X263870Y451798D01*
X268222Y448541D01*
X268256Y448523D01*
X268298Y448492D01*
X273069Y445886D01*
X273105Y445874D01*
X273151Y445849D01*
X278244Y443949D01*
X278282Y443942D01*
X278331Y443924D01*
X283643Y442768D01*
X283681Y442767D01*
X283733Y442755D01*
X289155Y442367D01*
X289175Y442370D01*
X289200Y442366D01*
X390800Y442366D01*
X390820Y442369D01*
G37*
G36*
X690820Y442369D02*
X690820Y442369D01*
X690845Y442367D01*
X696267Y442755D01*
X696304Y442765D01*
X696357Y442768D01*
X701669Y443924D01*
X701704Y443938D01*
X701756Y443949D01*
X702718Y444308D01*
X702719Y444308D01*
X704419Y444942D01*
X704419Y444943D01*
X706119Y445577D01*
X706120Y445577D01*
X706849Y445849D01*
X706882Y445868D01*
X706931Y445886D01*
X711702Y448492D01*
X711732Y448515D01*
X711779Y448541D01*
X716130Y451798D01*
X716156Y451826D01*
X716199Y451857D01*
X720043Y455701D01*
X720064Y455733D01*
X720102Y455770D01*
X723360Y460122D01*
X723377Y460156D01*
X723408Y460198D01*
X723894Y461087D01*
X724587Y462355D01*
X724587Y462356D01*
X725279Y463624D01*
X725972Y464892D01*
X725972Y464893D01*
X726014Y464969D01*
X726026Y465005D01*
X726051Y465051D01*
X727951Y470144D01*
X727958Y470182D01*
X727976Y470231D01*
X729132Y475543D01*
X729133Y475581D01*
X729145Y475633D01*
X729533Y481055D01*
X729531Y481075D01*
X729534Y481100D01*
X729534Y646200D01*
X729531Y646217D01*
X729533Y646238D01*
X729163Y652362D01*
X729155Y652394D01*
X729154Y652438D01*
X728048Y658472D01*
X728036Y658503D01*
X728029Y658546D01*
X726204Y664403D01*
X726189Y664432D01*
X726177Y664474D01*
X723660Y670068D01*
X723641Y670095D01*
X723624Y670136D01*
X720450Y675386D01*
X720429Y675411D01*
X720407Y675449D01*
X716624Y680278D01*
X716599Y680300D01*
X716573Y680335D01*
X712235Y684673D01*
X712208Y684692D01*
X712178Y684724D01*
X707349Y688507D01*
X707320Y688522D01*
X707286Y688550D01*
X702036Y691724D01*
X702005Y691736D01*
X701968Y691760D01*
X696374Y694277D01*
X696342Y694285D01*
X696303Y694304D01*
X694810Y694770D01*
X690446Y696129D01*
X690413Y696133D01*
X690372Y696148D01*
X684338Y697254D01*
X684305Y697254D01*
X684262Y697263D01*
X678138Y697633D01*
X678121Y697631D01*
X678100Y697634D01*
X589200Y697634D01*
X589180Y697631D01*
X589155Y697633D01*
X583733Y697245D01*
X583696Y697235D01*
X583643Y697232D01*
X578331Y696076D01*
X578296Y696062D01*
X578244Y696051D01*
X578178Y696026D01*
X576477Y695392D01*
X574777Y694758D01*
X573151Y694151D01*
X573118Y694132D01*
X573069Y694114D01*
X568298Y691508D01*
X568268Y691485D01*
X568222Y691460D01*
X563870Y688202D01*
X563844Y688174D01*
X563801Y688143D01*
X559957Y684299D01*
X559936Y684267D01*
X559898Y684230D01*
X556641Y679879D01*
X556623Y679844D01*
X556592Y679802D01*
X555942Y678613D01*
X555250Y677345D01*
X555249Y677345D01*
X555249Y677344D01*
X554557Y676076D01*
X553986Y675031D01*
X553974Y674995D01*
X553949Y674949D01*
X552049Y669856D01*
X552042Y669818D01*
X552024Y669769D01*
X550868Y664457D01*
X550868Y664448D01*
X550867Y664447D01*
X550867Y664441D01*
X550867Y664419D01*
X550855Y664367D01*
X550467Y658945D01*
X550470Y658925D01*
X550466Y658900D01*
X550466Y481100D01*
X550469Y481080D01*
X550467Y481055D01*
X550855Y475633D01*
X550865Y475596D01*
X550868Y475543D01*
X552024Y470231D01*
X552038Y470196D01*
X552049Y470144D01*
X553949Y465051D01*
X553968Y465018D01*
X553986Y464969D01*
X556592Y460198D01*
X556615Y460168D01*
X556641Y460122D01*
X559898Y455770D01*
X559926Y455744D01*
X559957Y455701D01*
X563801Y451857D01*
X563833Y451836D01*
X563870Y451798D01*
X568222Y448541D01*
X568256Y448523D01*
X568298Y448492D01*
X573069Y445886D01*
X573105Y445874D01*
X573151Y445849D01*
X578244Y443949D01*
X578282Y443942D01*
X578331Y443924D01*
X583643Y442768D01*
X583681Y442767D01*
X583733Y442755D01*
X589155Y442367D01*
X589175Y442370D01*
X589200Y442366D01*
X690800Y442366D01*
X690820Y442369D01*
G37*
%LPC*%
G36*
X69223Y443634D02*
X69223Y443634D01*
X63868Y444017D01*
X58645Y445153D01*
X53637Y447021D01*
X48945Y449583D01*
X44666Y452787D01*
X40887Y456566D01*
X37683Y460845D01*
X35121Y465537D01*
X33253Y470545D01*
X32117Y475768D01*
X31734Y481123D01*
X31734Y658877D01*
X32117Y664232D01*
X33253Y669455D01*
X35121Y674463D01*
X36014Y676098D01*
X36707Y677366D01*
X37399Y678635D01*
X37683Y679155D01*
X40887Y683434D01*
X44666Y687213D01*
X48945Y690417D01*
X53637Y692979D01*
X55218Y693568D01*
X56919Y694203D01*
X58619Y694837D01*
X58645Y694847D01*
X63868Y695983D01*
X69223Y696366D01*
X158081Y696366D01*
X164147Y695999D01*
X170105Y694907D01*
X170368Y694825D01*
X175889Y693105D01*
X181413Y690619D01*
X186597Y687485D01*
X191365Y683749D01*
X195649Y679465D01*
X199385Y674697D01*
X202519Y669513D01*
X205005Y663989D01*
X206807Y658205D01*
X207899Y652247D01*
X208266Y646181D01*
X208266Y481123D01*
X207883Y475768D01*
X206747Y470545D01*
X204879Y465537D01*
X203822Y463602D01*
X203130Y462334D01*
X202437Y461065D01*
X202317Y460845D01*
X199113Y456566D01*
X195334Y452787D01*
X191055Y449583D01*
X186363Y447021D01*
X185678Y446766D01*
X183977Y446132D01*
X182277Y445497D01*
X181355Y445153D01*
X176132Y444017D01*
X170777Y443634D01*
X69223Y443634D01*
G37*
%LPD*%
%LPC*%
G36*
X1329223Y443634D02*
X1329223Y443634D01*
X1323868Y444017D01*
X1318645Y445153D01*
X1313637Y447021D01*
X1308945Y449583D01*
X1304666Y452787D01*
X1300887Y456566D01*
X1297683Y460845D01*
X1295121Y465537D01*
X1293253Y470545D01*
X1292117Y475768D01*
X1291734Y481123D01*
X1291734Y658877D01*
X1292117Y664232D01*
X1293253Y669455D01*
X1295121Y674463D01*
X1296014Y676098D01*
X1296707Y677366D01*
X1297399Y678635D01*
X1297683Y679155D01*
X1300887Y683434D01*
X1304666Y687213D01*
X1308945Y690417D01*
X1313637Y692979D01*
X1315218Y693568D01*
X1316919Y694203D01*
X1318619Y694837D01*
X1318645Y694847D01*
X1323868Y695983D01*
X1329223Y696366D01*
X1418081Y696366D01*
X1424147Y695999D01*
X1430105Y694907D01*
X1430368Y694825D01*
X1435889Y693105D01*
X1441413Y690619D01*
X1446597Y687485D01*
X1451365Y683749D01*
X1455649Y679465D01*
X1459385Y674697D01*
X1462519Y669513D01*
X1465005Y663989D01*
X1466807Y658205D01*
X1467899Y652247D01*
X1468266Y646181D01*
X1468266Y481123D01*
X1467883Y475768D01*
X1466747Y470545D01*
X1464879Y465537D01*
X1463822Y463602D01*
X1463130Y462334D01*
X1462437Y461065D01*
X1462317Y460845D01*
X1459113Y456566D01*
X1455334Y452787D01*
X1451055Y449583D01*
X1446363Y447021D01*
X1445678Y446766D01*
X1443977Y446132D01*
X1442277Y445497D01*
X1441355Y445153D01*
X1436132Y444017D01*
X1430777Y443634D01*
X1329223Y443634D01*
G37*
%LPD*%
%LPC*%
G36*
X1109223Y443634D02*
X1109223Y443634D01*
X1103868Y444017D01*
X1098645Y445153D01*
X1093637Y447021D01*
X1088945Y449583D01*
X1084666Y452787D01*
X1080887Y456566D01*
X1077683Y460845D01*
X1075121Y465537D01*
X1073253Y470545D01*
X1072117Y475768D01*
X1071734Y481123D01*
X1071734Y658877D01*
X1072117Y664232D01*
X1073253Y669455D01*
X1075121Y674463D01*
X1076014Y676098D01*
X1076707Y677366D01*
X1077399Y678635D01*
X1077683Y679155D01*
X1080887Y683434D01*
X1084666Y687213D01*
X1088945Y690417D01*
X1093637Y692979D01*
X1095218Y693568D01*
X1096919Y694203D01*
X1098619Y694837D01*
X1098645Y694847D01*
X1103868Y695983D01*
X1109223Y696366D01*
X1198081Y696366D01*
X1204147Y695999D01*
X1210105Y694907D01*
X1210368Y694825D01*
X1215889Y693105D01*
X1221413Y690619D01*
X1226597Y687485D01*
X1231365Y683749D01*
X1235649Y679465D01*
X1239385Y674697D01*
X1242519Y669513D01*
X1245005Y663989D01*
X1246807Y658205D01*
X1247899Y652247D01*
X1248266Y646181D01*
X1248266Y481123D01*
X1247883Y475768D01*
X1246747Y470545D01*
X1244879Y465537D01*
X1243822Y463602D01*
X1243130Y462334D01*
X1242437Y461065D01*
X1242317Y460845D01*
X1239113Y456566D01*
X1235334Y452787D01*
X1231055Y449583D01*
X1226363Y447021D01*
X1225678Y446766D01*
X1223977Y446132D01*
X1222277Y445497D01*
X1221355Y445153D01*
X1216132Y444017D01*
X1210777Y443634D01*
X1109223Y443634D01*
G37*
%LPD*%
%LPC*%
G36*
X809223Y443634D02*
X809223Y443634D01*
X803868Y444017D01*
X798645Y445153D01*
X793637Y447021D01*
X788945Y449583D01*
X784666Y452787D01*
X780887Y456566D01*
X777683Y460845D01*
X775121Y465537D01*
X773253Y470545D01*
X772117Y475768D01*
X771734Y481123D01*
X771734Y658877D01*
X772117Y664232D01*
X773253Y669455D01*
X775121Y674463D01*
X776014Y676098D01*
X776707Y677366D01*
X777399Y678635D01*
X777683Y679155D01*
X780887Y683434D01*
X784666Y687213D01*
X788945Y690417D01*
X793637Y692979D01*
X795218Y693568D01*
X796919Y694203D01*
X798619Y694837D01*
X798645Y694847D01*
X803868Y695983D01*
X809223Y696366D01*
X898081Y696366D01*
X904147Y695999D01*
X910105Y694907D01*
X910368Y694825D01*
X915889Y693105D01*
X921413Y690619D01*
X926597Y687485D01*
X931365Y683749D01*
X935649Y679465D01*
X939385Y674697D01*
X942519Y669513D01*
X945005Y663989D01*
X946807Y658205D01*
X947899Y652247D01*
X948266Y646181D01*
X948266Y481123D01*
X947883Y475768D01*
X946747Y470545D01*
X944879Y465537D01*
X943822Y463602D01*
X943130Y462334D01*
X942437Y461065D01*
X942317Y460845D01*
X939113Y456566D01*
X935334Y452787D01*
X931055Y449583D01*
X926363Y447021D01*
X925678Y446766D01*
X923977Y446132D01*
X922277Y445497D01*
X921355Y445153D01*
X916132Y444017D01*
X910777Y443634D01*
X809223Y443634D01*
G37*
%LPD*%
%LPC*%
G36*
X589223Y443634D02*
X589223Y443634D01*
X583868Y444017D01*
X578645Y445153D01*
X573637Y447021D01*
X568945Y449583D01*
X564666Y452787D01*
X560887Y456566D01*
X557683Y460845D01*
X555121Y465537D01*
X553253Y470545D01*
X552117Y475768D01*
X551734Y481123D01*
X551734Y658877D01*
X552117Y664232D01*
X553253Y669455D01*
X555121Y674463D01*
X556014Y676098D01*
X556707Y677366D01*
X557399Y678635D01*
X557683Y679155D01*
X560887Y683434D01*
X564666Y687213D01*
X568945Y690417D01*
X573637Y692979D01*
X575218Y693568D01*
X576919Y694203D01*
X578619Y694837D01*
X578645Y694847D01*
X583868Y695983D01*
X589223Y696366D01*
X678081Y696366D01*
X684147Y695999D01*
X690105Y694907D01*
X690368Y694825D01*
X695889Y693105D01*
X701413Y690619D01*
X706597Y687485D01*
X711365Y683749D01*
X715649Y679465D01*
X719385Y674697D01*
X722519Y669513D01*
X725005Y663989D01*
X726807Y658205D01*
X727899Y652247D01*
X728266Y646181D01*
X728266Y481123D01*
X727883Y475768D01*
X726747Y470545D01*
X724879Y465537D01*
X723822Y463602D01*
X723130Y462334D01*
X722437Y461065D01*
X722317Y460845D01*
X719113Y456566D01*
X715334Y452787D01*
X711055Y449583D01*
X706363Y447021D01*
X705678Y446766D01*
X703977Y446132D01*
X702277Y445497D01*
X701355Y445153D01*
X696132Y444017D01*
X690777Y443634D01*
X589223Y443634D01*
G37*
%LPD*%
%LPC*%
G36*
X289223Y443634D02*
X289223Y443634D01*
X283868Y444017D01*
X278645Y445153D01*
X273637Y447021D01*
X268945Y449583D01*
X264666Y452787D01*
X260887Y456566D01*
X257683Y460845D01*
X255121Y465537D01*
X253253Y470545D01*
X252117Y475768D01*
X251734Y481123D01*
X251734Y658877D01*
X252117Y664232D01*
X253253Y669455D01*
X255121Y674463D01*
X256014Y676098D01*
X256707Y677366D01*
X257399Y678635D01*
X257683Y679155D01*
X260887Y683434D01*
X264666Y687213D01*
X268945Y690417D01*
X273637Y692979D01*
X275218Y693568D01*
X276919Y694203D01*
X278619Y694837D01*
X278645Y694847D01*
X283868Y695983D01*
X289223Y696366D01*
X378081Y696366D01*
X384147Y695999D01*
X390105Y694907D01*
X390368Y694825D01*
X395889Y693105D01*
X401413Y690619D01*
X406597Y687485D01*
X411365Y683749D01*
X415649Y679465D01*
X419385Y674697D01*
X422519Y669513D01*
X425005Y663989D01*
X426807Y658205D01*
X427899Y652247D01*
X428266Y646181D01*
X428266Y481123D01*
X427883Y475768D01*
X426747Y470545D01*
X424879Y465537D01*
X423822Y463602D01*
X423130Y462334D01*
X422437Y461065D01*
X422317Y460845D01*
X419113Y456566D01*
X415334Y452787D01*
X411055Y449583D01*
X406363Y447021D01*
X405678Y446766D01*
X403977Y446132D01*
X402277Y445497D01*
X401355Y445153D01*
X396132Y444017D01*
X390777Y443634D01*
X289223Y443634D01*
G37*
%LPD*%
D10*
X222680Y541933D02*
X210996Y541933D01*
X222680Y548424D01*
X210996Y548424D01*
X213592Y553744D02*
X210996Y556990D01*
X222680Y556990D01*
X222680Y560235D02*
X222680Y553744D01*
X430996Y541933D02*
X442680Y541933D01*
X442680Y548424D02*
X430996Y541933D01*
X430996Y548424D02*
X442680Y548424D01*
X430996Y557314D02*
X430998Y557421D01*
X431004Y557527D01*
X431014Y557633D01*
X431027Y557739D01*
X431045Y557845D01*
X431066Y557949D01*
X431091Y558053D01*
X431120Y558156D01*
X431152Y558257D01*
X431189Y558357D01*
X431229Y558456D01*
X431272Y558554D01*
X431319Y558650D01*
X431370Y558744D01*
X431424Y558836D01*
X431481Y558926D01*
X431541Y559014D01*
X431605Y559099D01*
X431672Y559182D01*
X431742Y559263D01*
X431814Y559341D01*
X431890Y559417D01*
X431968Y559489D01*
X432049Y559559D01*
X432132Y559626D01*
X432217Y559690D01*
X432305Y559750D01*
X432395Y559807D01*
X432487Y559861D01*
X432581Y559912D01*
X432677Y559959D01*
X432775Y560002D01*
X432874Y560042D01*
X432974Y560079D01*
X433075Y560111D01*
X433178Y560140D01*
X433282Y560165D01*
X433386Y560186D01*
X433492Y560204D01*
X433598Y560217D01*
X433704Y560227D01*
X433810Y560233D01*
X433917Y560235D01*
X430996Y557314D02*
X430998Y557193D01*
X431004Y557072D01*
X431014Y556952D01*
X431027Y556831D01*
X431045Y556712D01*
X431066Y556592D01*
X431091Y556474D01*
X431120Y556357D01*
X431153Y556240D01*
X431189Y556125D01*
X431230Y556011D01*
X431273Y555898D01*
X431321Y555786D01*
X431372Y555677D01*
X431427Y555569D01*
X431485Y555462D01*
X431546Y555358D01*
X431611Y555256D01*
X431679Y555156D01*
X431750Y555058D01*
X431824Y554962D01*
X431901Y554869D01*
X431982Y554779D01*
X432065Y554691D01*
X432151Y554606D01*
X432240Y554523D01*
X432331Y554444D01*
X432425Y554367D01*
X432521Y554294D01*
X432619Y554224D01*
X432720Y554157D01*
X432823Y554093D01*
X432928Y554033D01*
X433035Y553975D01*
X433143Y553922D01*
X433253Y553872D01*
X433365Y553826D01*
X433478Y553783D01*
X433593Y553744D01*
X436189Y559261D02*
X436111Y559340D01*
X436031Y559416D01*
X435948Y559489D01*
X435862Y559559D01*
X435775Y559626D01*
X435684Y559690D01*
X435592Y559750D01*
X435498Y559808D01*
X435401Y559862D01*
X435303Y559912D01*
X435203Y559959D01*
X435102Y560003D01*
X434999Y560043D01*
X434894Y560079D01*
X434789Y560111D01*
X434682Y560140D01*
X434575Y560165D01*
X434466Y560187D01*
X434357Y560204D01*
X434248Y560218D01*
X434138Y560227D01*
X434027Y560233D01*
X433917Y560235D01*
X436189Y559261D02*
X442680Y553744D01*
X442680Y560235D01*
X730996Y541933D02*
X742680Y541933D01*
X742680Y548424D02*
X730996Y541933D01*
X730996Y548424D02*
X742680Y548424D01*
X742680Y553744D02*
X742680Y556990D01*
X742678Y557103D01*
X742672Y557216D01*
X742662Y557329D01*
X742648Y557442D01*
X742631Y557554D01*
X742609Y557665D01*
X742584Y557775D01*
X742554Y557885D01*
X742521Y557993D01*
X742484Y558100D01*
X742444Y558206D01*
X742399Y558310D01*
X742351Y558413D01*
X742300Y558514D01*
X742245Y558613D01*
X742187Y558710D01*
X742125Y558805D01*
X742060Y558898D01*
X741992Y558988D01*
X741921Y559076D01*
X741846Y559162D01*
X741769Y559245D01*
X741689Y559325D01*
X741606Y559402D01*
X741520Y559477D01*
X741432Y559548D01*
X741342Y559616D01*
X741249Y559681D01*
X741154Y559743D01*
X741057Y559801D01*
X740958Y559856D01*
X740857Y559907D01*
X740754Y559955D01*
X740650Y560000D01*
X740544Y560040D01*
X740437Y560077D01*
X740329Y560110D01*
X740219Y560140D01*
X740109Y560165D01*
X739998Y560187D01*
X739886Y560204D01*
X739773Y560218D01*
X739660Y560228D01*
X739547Y560234D01*
X739434Y560236D01*
X739321Y560234D01*
X739208Y560228D01*
X739095Y560218D01*
X738982Y560204D01*
X738870Y560187D01*
X738759Y560165D01*
X738649Y560140D01*
X738539Y560110D01*
X738431Y560077D01*
X738324Y560040D01*
X738218Y560000D01*
X738114Y559955D01*
X738011Y559907D01*
X737910Y559856D01*
X737811Y559801D01*
X737714Y559743D01*
X737619Y559681D01*
X737526Y559616D01*
X737436Y559548D01*
X737348Y559477D01*
X737262Y559402D01*
X737179Y559325D01*
X737099Y559245D01*
X737022Y559162D01*
X736947Y559076D01*
X736876Y558988D01*
X736808Y558898D01*
X736743Y558805D01*
X736681Y558710D01*
X736623Y558613D01*
X736568Y558514D01*
X736517Y558413D01*
X736469Y558310D01*
X736424Y558206D01*
X736384Y558100D01*
X736347Y557993D01*
X736314Y557885D01*
X736284Y557775D01*
X736259Y557665D01*
X736237Y557554D01*
X736220Y557442D01*
X736206Y557329D01*
X736196Y557216D01*
X736190Y557103D01*
X736188Y556990D01*
X730996Y557639D02*
X730996Y553744D01*
X730996Y557639D02*
X730998Y557740D01*
X731004Y557840D01*
X731014Y557940D01*
X731027Y558040D01*
X731045Y558139D01*
X731066Y558238D01*
X731091Y558335D01*
X731120Y558432D01*
X731153Y558527D01*
X731189Y558621D01*
X731229Y558713D01*
X731272Y558804D01*
X731319Y558893D01*
X731369Y558980D01*
X731423Y559066D01*
X731480Y559149D01*
X731540Y559229D01*
X731603Y559308D01*
X731670Y559384D01*
X731739Y559457D01*
X731811Y559527D01*
X731885Y559595D01*
X731962Y559660D01*
X732042Y559721D01*
X732124Y559780D01*
X732208Y559835D01*
X732294Y559887D01*
X732382Y559936D01*
X732472Y559981D01*
X732564Y560023D01*
X732657Y560061D01*
X732752Y560095D01*
X732847Y560126D01*
X732944Y560153D01*
X733042Y560176D01*
X733141Y560196D01*
X733241Y560211D01*
X733341Y560223D01*
X733441Y560231D01*
X733542Y560235D01*
X733642Y560235D01*
X733743Y560231D01*
X733843Y560223D01*
X733943Y560211D01*
X734043Y560196D01*
X734142Y560176D01*
X734240Y560153D01*
X734337Y560126D01*
X734432Y560095D01*
X734527Y560061D01*
X734620Y560023D01*
X734712Y559981D01*
X734802Y559936D01*
X734890Y559887D01*
X734976Y559835D01*
X735060Y559780D01*
X735142Y559721D01*
X735222Y559660D01*
X735299Y559595D01*
X735373Y559527D01*
X735445Y559457D01*
X735514Y559384D01*
X735581Y559308D01*
X735644Y559229D01*
X735704Y559149D01*
X735761Y559066D01*
X735815Y558980D01*
X735865Y558893D01*
X735912Y558804D01*
X735955Y558713D01*
X735995Y558621D01*
X736031Y558527D01*
X736064Y558432D01*
X736093Y558335D01*
X736118Y558238D01*
X736139Y558139D01*
X736157Y558040D01*
X736170Y557940D01*
X736180Y557840D01*
X736186Y557740D01*
X736188Y557639D01*
X736189Y557639D02*
X736189Y555042D01*
X950996Y541933D02*
X962680Y541933D01*
X962680Y548424D02*
X950996Y541933D01*
X950996Y548424D02*
X962680Y548424D01*
X960084Y553744D02*
X950996Y556340D01*
X960084Y553744D02*
X960084Y560235D01*
X957487Y558288D02*
X962680Y558288D01*
X1250996Y541933D02*
X1262680Y541933D01*
X1262680Y548424D02*
X1250996Y541933D01*
X1250996Y548424D02*
X1262680Y548424D01*
X1262680Y553744D02*
X1262680Y557639D01*
X1262678Y557738D01*
X1262672Y557838D01*
X1262663Y557937D01*
X1262650Y558035D01*
X1262633Y558133D01*
X1262612Y558231D01*
X1262587Y558327D01*
X1262559Y558422D01*
X1262527Y558516D01*
X1262492Y558609D01*
X1262453Y558701D01*
X1262410Y558791D01*
X1262365Y558879D01*
X1262315Y558966D01*
X1262263Y559050D01*
X1262207Y559133D01*
X1262149Y559213D01*
X1262087Y559291D01*
X1262022Y559366D01*
X1261954Y559439D01*
X1261884Y559509D01*
X1261811Y559577D01*
X1261736Y559642D01*
X1261658Y559704D01*
X1261578Y559762D01*
X1261495Y559818D01*
X1261411Y559870D01*
X1261324Y559920D01*
X1261236Y559965D01*
X1261146Y560008D01*
X1261054Y560047D01*
X1260961Y560082D01*
X1260867Y560114D01*
X1260772Y560142D01*
X1260676Y560167D01*
X1260578Y560188D01*
X1260480Y560205D01*
X1260382Y560218D01*
X1260283Y560227D01*
X1260183Y560233D01*
X1260084Y560235D01*
X1258785Y560235D01*
X1258686Y560233D01*
X1258586Y560227D01*
X1258487Y560218D01*
X1258389Y560205D01*
X1258291Y560188D01*
X1258193Y560167D01*
X1258097Y560142D01*
X1258002Y560114D01*
X1257908Y560082D01*
X1257815Y560047D01*
X1257723Y560008D01*
X1257633Y559965D01*
X1257545Y559920D01*
X1257458Y559870D01*
X1257374Y559818D01*
X1257291Y559762D01*
X1257211Y559704D01*
X1257133Y559642D01*
X1257058Y559577D01*
X1256985Y559509D01*
X1256915Y559439D01*
X1256847Y559366D01*
X1256782Y559291D01*
X1256720Y559213D01*
X1256662Y559133D01*
X1256606Y559050D01*
X1256554Y558966D01*
X1256504Y558879D01*
X1256459Y558791D01*
X1256416Y558701D01*
X1256377Y558609D01*
X1256342Y558516D01*
X1256310Y558422D01*
X1256282Y558327D01*
X1256257Y558231D01*
X1256236Y558133D01*
X1256219Y558035D01*
X1256206Y557937D01*
X1256197Y557838D01*
X1256191Y557738D01*
X1256189Y557639D01*
X1256189Y553744D01*
X1250996Y553744D01*
X1250996Y560235D01*
X1470996Y541933D02*
X1482680Y541933D01*
X1482680Y548424D02*
X1470996Y541933D01*
X1470996Y548424D02*
X1482680Y548424D01*
X1476189Y553744D02*
X1476189Y557639D01*
X1476191Y557738D01*
X1476197Y557838D01*
X1476206Y557937D01*
X1476219Y558035D01*
X1476236Y558133D01*
X1476257Y558231D01*
X1476282Y558327D01*
X1476310Y558422D01*
X1476342Y558516D01*
X1476377Y558609D01*
X1476416Y558701D01*
X1476459Y558791D01*
X1476504Y558879D01*
X1476554Y558966D01*
X1476606Y559050D01*
X1476662Y559133D01*
X1476720Y559213D01*
X1476782Y559291D01*
X1476847Y559366D01*
X1476915Y559439D01*
X1476985Y559509D01*
X1477058Y559577D01*
X1477133Y559642D01*
X1477211Y559704D01*
X1477291Y559762D01*
X1477374Y559818D01*
X1477458Y559870D01*
X1477545Y559920D01*
X1477633Y559965D01*
X1477723Y560008D01*
X1477815Y560047D01*
X1477908Y560082D01*
X1478002Y560114D01*
X1478097Y560142D01*
X1478193Y560167D01*
X1478291Y560188D01*
X1478389Y560205D01*
X1478487Y560218D01*
X1478586Y560227D01*
X1478686Y560233D01*
X1478785Y560235D01*
X1479434Y560235D01*
X1479434Y560236D02*
X1479547Y560234D01*
X1479660Y560228D01*
X1479773Y560218D01*
X1479886Y560204D01*
X1479998Y560187D01*
X1480109Y560165D01*
X1480219Y560140D01*
X1480329Y560110D01*
X1480437Y560077D01*
X1480544Y560040D01*
X1480650Y560000D01*
X1480754Y559955D01*
X1480857Y559907D01*
X1480958Y559856D01*
X1481057Y559801D01*
X1481154Y559743D01*
X1481249Y559681D01*
X1481342Y559616D01*
X1481432Y559548D01*
X1481520Y559477D01*
X1481606Y559402D01*
X1481689Y559325D01*
X1481769Y559245D01*
X1481846Y559162D01*
X1481921Y559076D01*
X1481992Y558988D01*
X1482060Y558898D01*
X1482125Y558805D01*
X1482187Y558710D01*
X1482245Y558613D01*
X1482300Y558514D01*
X1482351Y558413D01*
X1482399Y558310D01*
X1482444Y558206D01*
X1482484Y558100D01*
X1482521Y557993D01*
X1482554Y557885D01*
X1482584Y557775D01*
X1482609Y557665D01*
X1482631Y557554D01*
X1482648Y557442D01*
X1482662Y557329D01*
X1482672Y557216D01*
X1482678Y557103D01*
X1482680Y556990D01*
X1482678Y556877D01*
X1482672Y556764D01*
X1482662Y556651D01*
X1482648Y556538D01*
X1482631Y556426D01*
X1482609Y556315D01*
X1482584Y556205D01*
X1482554Y556095D01*
X1482521Y555987D01*
X1482484Y555880D01*
X1482444Y555774D01*
X1482399Y555670D01*
X1482351Y555567D01*
X1482300Y555466D01*
X1482245Y555367D01*
X1482187Y555270D01*
X1482125Y555175D01*
X1482060Y555082D01*
X1481992Y554992D01*
X1481921Y554904D01*
X1481846Y554818D01*
X1481769Y554735D01*
X1481689Y554655D01*
X1481606Y554578D01*
X1481520Y554503D01*
X1481432Y554432D01*
X1481342Y554364D01*
X1481249Y554299D01*
X1481154Y554237D01*
X1481057Y554179D01*
X1480958Y554124D01*
X1480857Y554073D01*
X1480754Y554025D01*
X1480650Y553980D01*
X1480544Y553940D01*
X1480437Y553903D01*
X1480329Y553870D01*
X1480219Y553840D01*
X1480109Y553815D01*
X1479998Y553793D01*
X1479886Y553776D01*
X1479773Y553762D01*
X1479660Y553752D01*
X1479547Y553746D01*
X1479434Y553744D01*
X1476189Y553744D01*
X1476046Y553746D01*
X1475903Y553752D01*
X1475760Y553762D01*
X1475618Y553776D01*
X1475476Y553793D01*
X1475334Y553815D01*
X1475193Y553840D01*
X1475053Y553870D01*
X1474914Y553903D01*
X1474776Y553940D01*
X1474639Y553981D01*
X1474503Y554025D01*
X1474368Y554074D01*
X1474235Y554126D01*
X1474103Y554181D01*
X1473973Y554241D01*
X1473844Y554304D01*
X1473717Y554370D01*
X1473593Y554440D01*
X1473470Y554513D01*
X1473349Y554590D01*
X1473230Y554669D01*
X1473114Y554753D01*
X1472999Y554839D01*
X1472888Y554928D01*
X1472779Y555021D01*
X1472672Y555116D01*
X1472568Y555215D01*
X1472467Y555316D01*
X1472368Y555420D01*
X1472273Y555526D01*
X1472180Y555636D01*
X1472091Y555747D01*
X1472005Y555861D01*
X1471922Y555978D01*
X1471842Y556097D01*
X1471765Y556218D01*
X1471692Y556340D01*
X1471622Y556465D01*
X1471556Y556592D01*
X1471493Y556721D01*
X1471433Y556851D01*
X1471378Y556983D01*
X1471326Y557116D01*
X1471277Y557251D01*
X1471233Y557387D01*
X1471192Y557524D01*
X1471155Y557662D01*
X1471122Y557801D01*
X1471092Y557941D01*
X1471067Y558082D01*
X1471045Y558224D01*
X1471028Y558366D01*
X1471014Y558508D01*
X1471004Y558651D01*
X1470998Y558794D01*
X1470996Y558937D01*
X500282Y361868D02*
X488598Y361868D01*
X488598Y365114D01*
X488600Y365227D01*
X488606Y365340D01*
X488616Y365453D01*
X488630Y365566D01*
X488647Y365678D01*
X488669Y365789D01*
X488694Y365899D01*
X488724Y366009D01*
X488757Y366117D01*
X488794Y366224D01*
X488834Y366330D01*
X488879Y366434D01*
X488927Y366537D01*
X488978Y366638D01*
X489033Y366737D01*
X489091Y366834D01*
X489153Y366929D01*
X489218Y367022D01*
X489286Y367112D01*
X489357Y367200D01*
X489432Y367286D01*
X489509Y367369D01*
X489589Y367449D01*
X489672Y367526D01*
X489758Y367601D01*
X489846Y367672D01*
X489936Y367740D01*
X490029Y367805D01*
X490124Y367867D01*
X490221Y367925D01*
X490320Y367980D01*
X490421Y368031D01*
X490524Y368079D01*
X490628Y368124D01*
X490734Y368164D01*
X490841Y368201D01*
X490949Y368234D01*
X491059Y368264D01*
X491169Y368289D01*
X491280Y368311D01*
X491392Y368328D01*
X491505Y368342D01*
X491618Y368352D01*
X491731Y368358D01*
X491844Y368360D01*
X491957Y368358D01*
X492070Y368352D01*
X492183Y368342D01*
X492296Y368328D01*
X492408Y368311D01*
X492519Y368289D01*
X492629Y368264D01*
X492739Y368234D01*
X492847Y368201D01*
X492954Y368164D01*
X493060Y368124D01*
X493164Y368079D01*
X493267Y368031D01*
X493368Y367980D01*
X493467Y367925D01*
X493564Y367867D01*
X493659Y367805D01*
X493752Y367740D01*
X493842Y367672D01*
X493930Y367601D01*
X494016Y367526D01*
X494099Y367449D01*
X494179Y367369D01*
X494256Y367286D01*
X494331Y367200D01*
X494402Y367112D01*
X494470Y367022D01*
X494535Y366929D01*
X494597Y366834D01*
X494655Y366737D01*
X494710Y366638D01*
X494761Y366537D01*
X494809Y366434D01*
X494854Y366330D01*
X494894Y366224D01*
X494931Y366117D01*
X494964Y366009D01*
X494994Y365899D01*
X495019Y365789D01*
X495041Y365678D01*
X495058Y365566D01*
X495072Y365453D01*
X495082Y365340D01*
X495088Y365227D01*
X495090Y365114D01*
X495089Y365114D02*
X495089Y361868D01*
X495089Y365763D02*
X500282Y368359D01*
X491194Y373224D02*
X488598Y376470D01*
X500282Y376470D01*
X500282Y379715D02*
X500282Y373224D01*
X491194Y384654D02*
X488598Y387900D01*
X500282Y387900D01*
X500282Y391145D02*
X500282Y384654D01*
X445162Y361778D02*
X433478Y361778D01*
X433478Y365024D01*
X433480Y365137D01*
X433486Y365250D01*
X433496Y365363D01*
X433510Y365476D01*
X433527Y365588D01*
X433549Y365699D01*
X433574Y365809D01*
X433604Y365919D01*
X433637Y366027D01*
X433674Y366134D01*
X433714Y366240D01*
X433759Y366344D01*
X433807Y366447D01*
X433858Y366548D01*
X433913Y366647D01*
X433971Y366744D01*
X434033Y366839D01*
X434098Y366932D01*
X434166Y367022D01*
X434237Y367110D01*
X434312Y367196D01*
X434389Y367279D01*
X434469Y367359D01*
X434552Y367436D01*
X434638Y367511D01*
X434726Y367582D01*
X434816Y367650D01*
X434909Y367715D01*
X435004Y367777D01*
X435101Y367835D01*
X435200Y367890D01*
X435301Y367941D01*
X435404Y367989D01*
X435508Y368034D01*
X435614Y368074D01*
X435721Y368111D01*
X435829Y368144D01*
X435939Y368174D01*
X436049Y368199D01*
X436160Y368221D01*
X436272Y368238D01*
X436385Y368252D01*
X436498Y368262D01*
X436611Y368268D01*
X436724Y368270D01*
X436837Y368268D01*
X436950Y368262D01*
X437063Y368252D01*
X437176Y368238D01*
X437288Y368221D01*
X437399Y368199D01*
X437509Y368174D01*
X437619Y368144D01*
X437727Y368111D01*
X437834Y368074D01*
X437940Y368034D01*
X438044Y367989D01*
X438147Y367941D01*
X438248Y367890D01*
X438347Y367835D01*
X438444Y367777D01*
X438539Y367715D01*
X438632Y367650D01*
X438722Y367582D01*
X438810Y367511D01*
X438896Y367436D01*
X438979Y367359D01*
X439059Y367279D01*
X439136Y367196D01*
X439211Y367110D01*
X439282Y367022D01*
X439350Y366932D01*
X439415Y366839D01*
X439477Y366744D01*
X439535Y366647D01*
X439590Y366548D01*
X439641Y366447D01*
X439689Y366344D01*
X439734Y366240D01*
X439774Y366134D01*
X439811Y366027D01*
X439844Y365919D01*
X439874Y365809D01*
X439899Y365699D01*
X439921Y365588D01*
X439938Y365476D01*
X439952Y365363D01*
X439962Y365250D01*
X439968Y365137D01*
X439970Y365024D01*
X439969Y365024D02*
X439969Y361778D01*
X439969Y365673D02*
X445162Y368269D01*
X436074Y373134D02*
X433478Y376380D01*
X445162Y376380D01*
X445162Y379625D02*
X445162Y373134D01*
X433478Y388134D02*
X433480Y388241D01*
X433486Y388347D01*
X433496Y388453D01*
X433509Y388559D01*
X433527Y388665D01*
X433548Y388769D01*
X433573Y388873D01*
X433602Y388976D01*
X433634Y389077D01*
X433671Y389177D01*
X433711Y389276D01*
X433754Y389374D01*
X433801Y389470D01*
X433852Y389564D01*
X433906Y389656D01*
X433963Y389746D01*
X434023Y389834D01*
X434087Y389919D01*
X434154Y390002D01*
X434224Y390083D01*
X434296Y390161D01*
X434372Y390237D01*
X434450Y390309D01*
X434531Y390379D01*
X434614Y390446D01*
X434699Y390510D01*
X434787Y390570D01*
X434877Y390627D01*
X434969Y390681D01*
X435063Y390732D01*
X435159Y390779D01*
X435257Y390822D01*
X435356Y390862D01*
X435456Y390899D01*
X435557Y390931D01*
X435660Y390960D01*
X435764Y390985D01*
X435868Y391006D01*
X435974Y391024D01*
X436080Y391037D01*
X436186Y391047D01*
X436292Y391053D01*
X436399Y391055D01*
X433478Y388134D02*
X433480Y388013D01*
X433486Y387892D01*
X433496Y387772D01*
X433509Y387651D01*
X433527Y387532D01*
X433548Y387412D01*
X433573Y387294D01*
X433602Y387177D01*
X433635Y387060D01*
X433671Y386945D01*
X433712Y386831D01*
X433755Y386718D01*
X433803Y386606D01*
X433854Y386497D01*
X433909Y386389D01*
X433967Y386282D01*
X434028Y386178D01*
X434093Y386076D01*
X434161Y385976D01*
X434232Y385878D01*
X434306Y385782D01*
X434383Y385689D01*
X434464Y385599D01*
X434547Y385511D01*
X434633Y385426D01*
X434722Y385343D01*
X434813Y385264D01*
X434907Y385187D01*
X435003Y385114D01*
X435101Y385044D01*
X435202Y384977D01*
X435305Y384913D01*
X435410Y384853D01*
X435517Y384795D01*
X435625Y384742D01*
X435735Y384692D01*
X435847Y384646D01*
X435960Y384603D01*
X436075Y384564D01*
X438671Y390081D02*
X438593Y390160D01*
X438513Y390236D01*
X438430Y390309D01*
X438344Y390379D01*
X438257Y390446D01*
X438166Y390510D01*
X438074Y390570D01*
X437980Y390628D01*
X437883Y390682D01*
X437785Y390732D01*
X437685Y390779D01*
X437584Y390823D01*
X437481Y390863D01*
X437376Y390899D01*
X437271Y390931D01*
X437164Y390960D01*
X437057Y390985D01*
X436948Y391007D01*
X436839Y391024D01*
X436730Y391038D01*
X436620Y391047D01*
X436509Y391053D01*
X436399Y391055D01*
X438671Y390082D02*
X445162Y384564D01*
X445162Y391055D01*
X944558Y369398D02*
X956242Y369398D01*
X944558Y369398D02*
X944558Y372644D01*
X944560Y372757D01*
X944566Y372870D01*
X944576Y372983D01*
X944590Y373096D01*
X944607Y373208D01*
X944629Y373319D01*
X944654Y373429D01*
X944684Y373539D01*
X944717Y373647D01*
X944754Y373754D01*
X944794Y373860D01*
X944839Y373964D01*
X944887Y374067D01*
X944938Y374168D01*
X944993Y374267D01*
X945051Y374364D01*
X945113Y374459D01*
X945178Y374552D01*
X945246Y374642D01*
X945317Y374730D01*
X945392Y374816D01*
X945469Y374899D01*
X945549Y374979D01*
X945632Y375056D01*
X945718Y375131D01*
X945806Y375202D01*
X945896Y375270D01*
X945989Y375335D01*
X946084Y375397D01*
X946181Y375455D01*
X946280Y375510D01*
X946381Y375561D01*
X946484Y375609D01*
X946588Y375654D01*
X946694Y375694D01*
X946801Y375731D01*
X946909Y375764D01*
X947019Y375794D01*
X947129Y375819D01*
X947240Y375841D01*
X947352Y375858D01*
X947465Y375872D01*
X947578Y375882D01*
X947691Y375888D01*
X947804Y375890D01*
X947917Y375888D01*
X948030Y375882D01*
X948143Y375872D01*
X948256Y375858D01*
X948368Y375841D01*
X948479Y375819D01*
X948589Y375794D01*
X948699Y375764D01*
X948807Y375731D01*
X948914Y375694D01*
X949020Y375654D01*
X949124Y375609D01*
X949227Y375561D01*
X949328Y375510D01*
X949427Y375455D01*
X949524Y375397D01*
X949619Y375335D01*
X949712Y375270D01*
X949802Y375202D01*
X949890Y375131D01*
X949976Y375056D01*
X950059Y374979D01*
X950139Y374899D01*
X950216Y374816D01*
X950291Y374730D01*
X950362Y374642D01*
X950430Y374552D01*
X950495Y374459D01*
X950557Y374364D01*
X950615Y374267D01*
X950670Y374168D01*
X950721Y374067D01*
X950769Y373964D01*
X950814Y373860D01*
X950854Y373754D01*
X950891Y373647D01*
X950924Y373539D01*
X950954Y373429D01*
X950979Y373319D01*
X951001Y373208D01*
X951018Y373096D01*
X951032Y372983D01*
X951042Y372870D01*
X951048Y372757D01*
X951050Y372644D01*
X951049Y372644D02*
X951049Y369398D01*
X951049Y373293D02*
X956242Y375889D01*
X947154Y380754D02*
X944558Y384000D01*
X956242Y384000D01*
X956242Y387245D02*
X956242Y380754D01*
X956242Y392184D02*
X956242Y395430D01*
X956240Y395543D01*
X956234Y395656D01*
X956224Y395769D01*
X956210Y395882D01*
X956193Y395994D01*
X956171Y396105D01*
X956146Y396215D01*
X956116Y396325D01*
X956083Y396433D01*
X956046Y396540D01*
X956006Y396646D01*
X955961Y396750D01*
X955913Y396853D01*
X955862Y396954D01*
X955807Y397053D01*
X955749Y397150D01*
X955687Y397245D01*
X955622Y397338D01*
X955554Y397428D01*
X955483Y397516D01*
X955408Y397602D01*
X955331Y397685D01*
X955251Y397765D01*
X955168Y397842D01*
X955082Y397917D01*
X954994Y397988D01*
X954904Y398056D01*
X954811Y398121D01*
X954716Y398183D01*
X954619Y398241D01*
X954520Y398296D01*
X954419Y398347D01*
X954316Y398395D01*
X954212Y398440D01*
X954106Y398480D01*
X953999Y398517D01*
X953891Y398550D01*
X953781Y398580D01*
X953671Y398605D01*
X953560Y398627D01*
X953448Y398644D01*
X953335Y398658D01*
X953222Y398668D01*
X953109Y398674D01*
X952996Y398676D01*
X952883Y398674D01*
X952770Y398668D01*
X952657Y398658D01*
X952544Y398644D01*
X952432Y398627D01*
X952321Y398605D01*
X952211Y398580D01*
X952101Y398550D01*
X951993Y398517D01*
X951886Y398480D01*
X951780Y398440D01*
X951676Y398395D01*
X951573Y398347D01*
X951472Y398296D01*
X951373Y398241D01*
X951276Y398183D01*
X951181Y398121D01*
X951088Y398056D01*
X950998Y397988D01*
X950910Y397917D01*
X950824Y397842D01*
X950741Y397765D01*
X950661Y397685D01*
X950584Y397602D01*
X950509Y397516D01*
X950438Y397428D01*
X950370Y397338D01*
X950305Y397245D01*
X950243Y397150D01*
X950185Y397053D01*
X950130Y396954D01*
X950079Y396853D01*
X950031Y396750D01*
X949986Y396646D01*
X949946Y396540D01*
X949909Y396433D01*
X949876Y396325D01*
X949846Y396215D01*
X949821Y396105D01*
X949799Y395994D01*
X949782Y395882D01*
X949768Y395769D01*
X949758Y395656D01*
X949752Y395543D01*
X949750Y395430D01*
X944558Y396079D02*
X944558Y392184D01*
X944558Y396079D02*
X944560Y396180D01*
X944566Y396280D01*
X944576Y396380D01*
X944589Y396480D01*
X944607Y396579D01*
X944628Y396678D01*
X944653Y396775D01*
X944682Y396872D01*
X944715Y396967D01*
X944751Y397061D01*
X944791Y397153D01*
X944834Y397244D01*
X944881Y397333D01*
X944931Y397420D01*
X944985Y397506D01*
X945042Y397589D01*
X945102Y397669D01*
X945165Y397748D01*
X945232Y397824D01*
X945301Y397897D01*
X945373Y397967D01*
X945447Y398035D01*
X945524Y398100D01*
X945604Y398161D01*
X945686Y398220D01*
X945770Y398275D01*
X945856Y398327D01*
X945944Y398376D01*
X946034Y398421D01*
X946126Y398463D01*
X946219Y398501D01*
X946314Y398535D01*
X946409Y398566D01*
X946506Y398593D01*
X946604Y398616D01*
X946703Y398636D01*
X946803Y398651D01*
X946903Y398663D01*
X947003Y398671D01*
X947104Y398675D01*
X947204Y398675D01*
X947305Y398671D01*
X947405Y398663D01*
X947505Y398651D01*
X947605Y398636D01*
X947704Y398616D01*
X947802Y398593D01*
X947899Y398566D01*
X947994Y398535D01*
X948089Y398501D01*
X948182Y398463D01*
X948274Y398421D01*
X948364Y398376D01*
X948452Y398327D01*
X948538Y398275D01*
X948622Y398220D01*
X948704Y398161D01*
X948784Y398100D01*
X948861Y398035D01*
X948935Y397967D01*
X949007Y397897D01*
X949076Y397824D01*
X949143Y397748D01*
X949206Y397669D01*
X949266Y397589D01*
X949323Y397506D01*
X949377Y397420D01*
X949427Y397333D01*
X949474Y397244D01*
X949517Y397153D01*
X949557Y397061D01*
X949593Y396967D01*
X949626Y396872D01*
X949655Y396775D01*
X949680Y396678D01*
X949701Y396579D01*
X949719Y396480D01*
X949732Y396380D01*
X949742Y396280D01*
X949748Y396180D01*
X949750Y396079D01*
X949751Y396079D02*
X949751Y393483D01*
X1002668Y369398D02*
X1014352Y369398D01*
X1002668Y369398D02*
X1002668Y372644D01*
X1002670Y372757D01*
X1002676Y372870D01*
X1002686Y372983D01*
X1002700Y373096D01*
X1002717Y373208D01*
X1002739Y373319D01*
X1002764Y373429D01*
X1002794Y373539D01*
X1002827Y373647D01*
X1002864Y373754D01*
X1002904Y373860D01*
X1002949Y373964D01*
X1002997Y374067D01*
X1003048Y374168D01*
X1003103Y374267D01*
X1003161Y374364D01*
X1003223Y374459D01*
X1003288Y374552D01*
X1003356Y374642D01*
X1003427Y374730D01*
X1003502Y374816D01*
X1003579Y374899D01*
X1003659Y374979D01*
X1003742Y375056D01*
X1003828Y375131D01*
X1003916Y375202D01*
X1004006Y375270D01*
X1004099Y375335D01*
X1004194Y375397D01*
X1004291Y375455D01*
X1004390Y375510D01*
X1004491Y375561D01*
X1004594Y375609D01*
X1004698Y375654D01*
X1004804Y375694D01*
X1004911Y375731D01*
X1005019Y375764D01*
X1005129Y375794D01*
X1005239Y375819D01*
X1005350Y375841D01*
X1005462Y375858D01*
X1005575Y375872D01*
X1005688Y375882D01*
X1005801Y375888D01*
X1005914Y375890D01*
X1006027Y375888D01*
X1006140Y375882D01*
X1006253Y375872D01*
X1006366Y375858D01*
X1006478Y375841D01*
X1006589Y375819D01*
X1006699Y375794D01*
X1006809Y375764D01*
X1006917Y375731D01*
X1007024Y375694D01*
X1007130Y375654D01*
X1007234Y375609D01*
X1007337Y375561D01*
X1007438Y375510D01*
X1007537Y375455D01*
X1007634Y375397D01*
X1007729Y375335D01*
X1007822Y375270D01*
X1007912Y375202D01*
X1008000Y375131D01*
X1008086Y375056D01*
X1008169Y374979D01*
X1008249Y374899D01*
X1008326Y374816D01*
X1008401Y374730D01*
X1008472Y374642D01*
X1008540Y374552D01*
X1008605Y374459D01*
X1008667Y374364D01*
X1008725Y374267D01*
X1008780Y374168D01*
X1008831Y374067D01*
X1008879Y373964D01*
X1008924Y373860D01*
X1008964Y373754D01*
X1009001Y373647D01*
X1009034Y373539D01*
X1009064Y373429D01*
X1009089Y373319D01*
X1009111Y373208D01*
X1009128Y373096D01*
X1009142Y372983D01*
X1009152Y372870D01*
X1009158Y372757D01*
X1009160Y372644D01*
X1009159Y372644D02*
X1009159Y369398D01*
X1009159Y373293D02*
X1014352Y375889D01*
X1005264Y380754D02*
X1002668Y384000D01*
X1014352Y384000D01*
X1014352Y387245D02*
X1014352Y380754D01*
X1011756Y392184D02*
X1002668Y394781D01*
X1011756Y392184D02*
X1011756Y398675D01*
X1009159Y396728D02*
X1014352Y396728D01*
D11*
X975075Y510000D02*
X975086Y510857D01*
X975117Y511714D01*
X975170Y512569D01*
X975243Y513423D01*
X975338Y514275D01*
X975453Y515125D01*
X975589Y515971D01*
X975746Y516814D01*
X975924Y517652D01*
X976122Y518486D01*
X976340Y519315D01*
X976579Y520138D01*
X976838Y520955D01*
X977117Y521766D01*
X977415Y522569D01*
X977734Y523365D01*
X978071Y524153D01*
X978428Y524932D01*
X978804Y525703D01*
X979199Y526464D01*
X979612Y527214D01*
X980044Y527955D01*
X980493Y528685D01*
X980961Y529403D01*
X981446Y530110D01*
X981948Y530805D01*
X982467Y531487D01*
X983003Y532156D01*
X983554Y532812D01*
X984122Y533454D01*
X984706Y534082D01*
X985304Y534696D01*
X985918Y535294D01*
X986546Y535878D01*
X987188Y536446D01*
X987844Y536997D01*
X988513Y537533D01*
X989195Y538052D01*
X989890Y538554D01*
X990597Y539039D01*
X991315Y539507D01*
X992045Y539956D01*
X992786Y540388D01*
X993536Y540801D01*
X994297Y541196D01*
X995068Y541572D01*
X995847Y541929D01*
X996635Y542266D01*
X997431Y542585D01*
X998234Y542883D01*
X999045Y543162D01*
X999862Y543421D01*
X1000685Y543660D01*
X1001514Y543878D01*
X1002348Y544076D01*
X1003186Y544254D01*
X1004029Y544411D01*
X1004875Y544547D01*
X1005725Y544662D01*
X1006577Y544757D01*
X1007431Y544830D01*
X1008286Y544883D01*
X1009143Y544914D01*
X1010000Y544925D01*
X1010857Y544914D01*
X1011714Y544883D01*
X1012569Y544830D01*
X1013423Y544757D01*
X1014275Y544662D01*
X1015125Y544547D01*
X1015971Y544411D01*
X1016814Y544254D01*
X1017652Y544076D01*
X1018486Y543878D01*
X1019315Y543660D01*
X1020138Y543421D01*
X1020955Y543162D01*
X1021766Y542883D01*
X1022569Y542585D01*
X1023365Y542266D01*
X1024153Y541929D01*
X1024932Y541572D01*
X1025703Y541196D01*
X1026464Y540801D01*
X1027214Y540388D01*
X1027955Y539956D01*
X1028685Y539507D01*
X1029403Y539039D01*
X1030110Y538554D01*
X1030805Y538052D01*
X1031487Y537533D01*
X1032156Y536997D01*
X1032812Y536446D01*
X1033454Y535878D01*
X1034082Y535294D01*
X1034696Y534696D01*
X1035294Y534082D01*
X1035878Y533454D01*
X1036446Y532812D01*
X1036997Y532156D01*
X1037533Y531487D01*
X1038052Y530805D01*
X1038554Y530110D01*
X1039039Y529403D01*
X1039507Y528685D01*
X1039956Y527955D01*
X1040388Y527214D01*
X1040801Y526464D01*
X1041196Y525703D01*
X1041572Y524932D01*
X1041929Y524153D01*
X1042266Y523365D01*
X1042585Y522569D01*
X1042883Y521766D01*
X1043162Y520955D01*
X1043421Y520138D01*
X1043660Y519315D01*
X1043878Y518486D01*
X1044076Y517652D01*
X1044254Y516814D01*
X1044411Y515971D01*
X1044547Y515125D01*
X1044662Y514275D01*
X1044757Y513423D01*
X1044830Y512569D01*
X1044883Y511714D01*
X1044914Y510857D01*
X1044925Y510000D01*
X1044914Y509143D01*
X1044883Y508286D01*
X1044830Y507431D01*
X1044757Y506577D01*
X1044662Y505725D01*
X1044547Y504875D01*
X1044411Y504029D01*
X1044254Y503186D01*
X1044076Y502348D01*
X1043878Y501514D01*
X1043660Y500685D01*
X1043421Y499862D01*
X1043162Y499045D01*
X1042883Y498234D01*
X1042585Y497431D01*
X1042266Y496635D01*
X1041929Y495847D01*
X1041572Y495068D01*
X1041196Y494297D01*
X1040801Y493536D01*
X1040388Y492786D01*
X1039956Y492045D01*
X1039507Y491315D01*
X1039039Y490597D01*
X1038554Y489890D01*
X1038052Y489195D01*
X1037533Y488513D01*
X1036997Y487844D01*
X1036446Y487188D01*
X1035878Y486546D01*
X1035294Y485918D01*
X1034696Y485304D01*
X1034082Y484706D01*
X1033454Y484122D01*
X1032812Y483554D01*
X1032156Y483003D01*
X1031487Y482467D01*
X1030805Y481948D01*
X1030110Y481446D01*
X1029403Y480961D01*
X1028685Y480493D01*
X1027955Y480044D01*
X1027214Y479612D01*
X1026464Y479199D01*
X1025703Y478804D01*
X1024932Y478428D01*
X1024153Y478071D01*
X1023365Y477734D01*
X1022569Y477415D01*
X1021766Y477117D01*
X1020955Y476838D01*
X1020138Y476579D01*
X1019315Y476340D01*
X1018486Y476122D01*
X1017652Y475924D01*
X1016814Y475746D01*
X1015971Y475589D01*
X1015125Y475453D01*
X1014275Y475338D01*
X1013423Y475243D01*
X1012569Y475170D01*
X1011714Y475117D01*
X1010857Y475086D01*
X1010000Y475075D01*
X1009143Y475086D01*
X1008286Y475117D01*
X1007431Y475170D01*
X1006577Y475243D01*
X1005725Y475338D01*
X1004875Y475453D01*
X1004029Y475589D01*
X1003186Y475746D01*
X1002348Y475924D01*
X1001514Y476122D01*
X1000685Y476340D01*
X999862Y476579D01*
X999045Y476838D01*
X998234Y477117D01*
X997431Y477415D01*
X996635Y477734D01*
X995847Y478071D01*
X995068Y478428D01*
X994297Y478804D01*
X993536Y479199D01*
X992786Y479612D01*
X992045Y480044D01*
X991315Y480493D01*
X990597Y480961D01*
X989890Y481446D01*
X989195Y481948D01*
X988513Y482467D01*
X987844Y483003D01*
X987188Y483554D01*
X986546Y484122D01*
X985918Y484706D01*
X985304Y485304D01*
X984706Y485918D01*
X984122Y486546D01*
X983554Y487188D01*
X983003Y487844D01*
X982467Y488513D01*
X981948Y489195D01*
X981446Y489890D01*
X980961Y490597D01*
X980493Y491315D01*
X980044Y492045D01*
X979612Y492786D01*
X979199Y493536D01*
X978804Y494297D01*
X978428Y495068D01*
X978071Y495847D01*
X977734Y496635D01*
X977415Y497431D01*
X977117Y498234D01*
X976838Y499045D01*
X976579Y499862D01*
X976340Y500685D01*
X976122Y501514D01*
X975924Y502348D01*
X975746Y503186D01*
X975589Y504029D01*
X975453Y504875D01*
X975338Y505725D01*
X975243Y506577D01*
X975170Y507431D01*
X975117Y508286D01*
X975086Y509143D01*
X975075Y510000D01*
X997300Y516350D02*
X1010000Y516350D01*
X1022700Y516350D01*
X1010000Y516350D02*
X1010000Y526510D01*
X975075Y620000D02*
X975086Y620857D01*
X975117Y621714D01*
X975170Y622569D01*
X975243Y623423D01*
X975338Y624275D01*
X975453Y625125D01*
X975589Y625971D01*
X975746Y626814D01*
X975924Y627652D01*
X976122Y628486D01*
X976340Y629315D01*
X976579Y630138D01*
X976838Y630955D01*
X977117Y631766D01*
X977415Y632569D01*
X977734Y633365D01*
X978071Y634153D01*
X978428Y634932D01*
X978804Y635703D01*
X979199Y636464D01*
X979612Y637214D01*
X980044Y637955D01*
X980493Y638685D01*
X980961Y639403D01*
X981446Y640110D01*
X981948Y640805D01*
X982467Y641487D01*
X983003Y642156D01*
X983554Y642812D01*
X984122Y643454D01*
X984706Y644082D01*
X985304Y644696D01*
X985918Y645294D01*
X986546Y645878D01*
X987188Y646446D01*
X987844Y646997D01*
X988513Y647533D01*
X989195Y648052D01*
X989890Y648554D01*
X990597Y649039D01*
X991315Y649507D01*
X992045Y649956D01*
X992786Y650388D01*
X993536Y650801D01*
X994297Y651196D01*
X995068Y651572D01*
X995847Y651929D01*
X996635Y652266D01*
X997431Y652585D01*
X998234Y652883D01*
X999045Y653162D01*
X999862Y653421D01*
X1000685Y653660D01*
X1001514Y653878D01*
X1002348Y654076D01*
X1003186Y654254D01*
X1004029Y654411D01*
X1004875Y654547D01*
X1005725Y654662D01*
X1006577Y654757D01*
X1007431Y654830D01*
X1008286Y654883D01*
X1009143Y654914D01*
X1010000Y654925D01*
X1010857Y654914D01*
X1011714Y654883D01*
X1012569Y654830D01*
X1013423Y654757D01*
X1014275Y654662D01*
X1015125Y654547D01*
X1015971Y654411D01*
X1016814Y654254D01*
X1017652Y654076D01*
X1018486Y653878D01*
X1019315Y653660D01*
X1020138Y653421D01*
X1020955Y653162D01*
X1021766Y652883D01*
X1022569Y652585D01*
X1023365Y652266D01*
X1024153Y651929D01*
X1024932Y651572D01*
X1025703Y651196D01*
X1026464Y650801D01*
X1027214Y650388D01*
X1027955Y649956D01*
X1028685Y649507D01*
X1029403Y649039D01*
X1030110Y648554D01*
X1030805Y648052D01*
X1031487Y647533D01*
X1032156Y646997D01*
X1032812Y646446D01*
X1033454Y645878D01*
X1034082Y645294D01*
X1034696Y644696D01*
X1035294Y644082D01*
X1035878Y643454D01*
X1036446Y642812D01*
X1036997Y642156D01*
X1037533Y641487D01*
X1038052Y640805D01*
X1038554Y640110D01*
X1039039Y639403D01*
X1039507Y638685D01*
X1039956Y637955D01*
X1040388Y637214D01*
X1040801Y636464D01*
X1041196Y635703D01*
X1041572Y634932D01*
X1041929Y634153D01*
X1042266Y633365D01*
X1042585Y632569D01*
X1042883Y631766D01*
X1043162Y630955D01*
X1043421Y630138D01*
X1043660Y629315D01*
X1043878Y628486D01*
X1044076Y627652D01*
X1044254Y626814D01*
X1044411Y625971D01*
X1044547Y625125D01*
X1044662Y624275D01*
X1044757Y623423D01*
X1044830Y622569D01*
X1044883Y621714D01*
X1044914Y620857D01*
X1044925Y620000D01*
X1044914Y619143D01*
X1044883Y618286D01*
X1044830Y617431D01*
X1044757Y616577D01*
X1044662Y615725D01*
X1044547Y614875D01*
X1044411Y614029D01*
X1044254Y613186D01*
X1044076Y612348D01*
X1043878Y611514D01*
X1043660Y610685D01*
X1043421Y609862D01*
X1043162Y609045D01*
X1042883Y608234D01*
X1042585Y607431D01*
X1042266Y606635D01*
X1041929Y605847D01*
X1041572Y605068D01*
X1041196Y604297D01*
X1040801Y603536D01*
X1040388Y602786D01*
X1039956Y602045D01*
X1039507Y601315D01*
X1039039Y600597D01*
X1038554Y599890D01*
X1038052Y599195D01*
X1037533Y598513D01*
X1036997Y597844D01*
X1036446Y597188D01*
X1035878Y596546D01*
X1035294Y595918D01*
X1034696Y595304D01*
X1034082Y594706D01*
X1033454Y594122D01*
X1032812Y593554D01*
X1032156Y593003D01*
X1031487Y592467D01*
X1030805Y591948D01*
X1030110Y591446D01*
X1029403Y590961D01*
X1028685Y590493D01*
X1027955Y590044D01*
X1027214Y589612D01*
X1026464Y589199D01*
X1025703Y588804D01*
X1024932Y588428D01*
X1024153Y588071D01*
X1023365Y587734D01*
X1022569Y587415D01*
X1021766Y587117D01*
X1020955Y586838D01*
X1020138Y586579D01*
X1019315Y586340D01*
X1018486Y586122D01*
X1017652Y585924D01*
X1016814Y585746D01*
X1015971Y585589D01*
X1015125Y585453D01*
X1014275Y585338D01*
X1013423Y585243D01*
X1012569Y585170D01*
X1011714Y585117D01*
X1010857Y585086D01*
X1010000Y585075D01*
X1009143Y585086D01*
X1008286Y585117D01*
X1007431Y585170D01*
X1006577Y585243D01*
X1005725Y585338D01*
X1004875Y585453D01*
X1004029Y585589D01*
X1003186Y585746D01*
X1002348Y585924D01*
X1001514Y586122D01*
X1000685Y586340D01*
X999862Y586579D01*
X999045Y586838D01*
X998234Y587117D01*
X997431Y587415D01*
X996635Y587734D01*
X995847Y588071D01*
X995068Y588428D01*
X994297Y588804D01*
X993536Y589199D01*
X992786Y589612D01*
X992045Y590044D01*
X991315Y590493D01*
X990597Y590961D01*
X989890Y591446D01*
X989195Y591948D01*
X988513Y592467D01*
X987844Y593003D01*
X987188Y593554D01*
X986546Y594122D01*
X985918Y594706D01*
X985304Y595304D01*
X984706Y595918D01*
X984122Y596546D01*
X983554Y597188D01*
X983003Y597844D01*
X982467Y598513D01*
X981948Y599195D01*
X981446Y599890D01*
X980961Y600597D01*
X980493Y601315D01*
X980044Y602045D01*
X979612Y602786D01*
X979199Y603536D01*
X978804Y604297D01*
X978428Y605068D01*
X978071Y605847D01*
X977734Y606635D01*
X977415Y607431D01*
X977117Y608234D01*
X976838Y609045D01*
X976579Y609862D01*
X976340Y610685D01*
X976122Y611514D01*
X975924Y612348D01*
X975746Y613186D01*
X975589Y614029D01*
X975453Y614875D01*
X975338Y615725D01*
X975243Y616577D01*
X975170Y617431D01*
X975117Y618286D01*
X975086Y619143D01*
X975075Y620000D01*
X997300Y626350D02*
X1010000Y626350D01*
X1022700Y626350D01*
X1010000Y626350D02*
X1010000Y636510D01*
X455075Y620000D02*
X455086Y620857D01*
X455117Y621714D01*
X455170Y622569D01*
X455243Y623423D01*
X455338Y624275D01*
X455453Y625125D01*
X455589Y625971D01*
X455746Y626814D01*
X455924Y627652D01*
X456122Y628486D01*
X456340Y629315D01*
X456579Y630138D01*
X456838Y630955D01*
X457117Y631766D01*
X457415Y632569D01*
X457734Y633365D01*
X458071Y634153D01*
X458428Y634932D01*
X458804Y635703D01*
X459199Y636464D01*
X459612Y637214D01*
X460044Y637955D01*
X460493Y638685D01*
X460961Y639403D01*
X461446Y640110D01*
X461948Y640805D01*
X462467Y641487D01*
X463003Y642156D01*
X463554Y642812D01*
X464122Y643454D01*
X464706Y644082D01*
X465304Y644696D01*
X465918Y645294D01*
X466546Y645878D01*
X467188Y646446D01*
X467844Y646997D01*
X468513Y647533D01*
X469195Y648052D01*
X469890Y648554D01*
X470597Y649039D01*
X471315Y649507D01*
X472045Y649956D01*
X472786Y650388D01*
X473536Y650801D01*
X474297Y651196D01*
X475068Y651572D01*
X475847Y651929D01*
X476635Y652266D01*
X477431Y652585D01*
X478234Y652883D01*
X479045Y653162D01*
X479862Y653421D01*
X480685Y653660D01*
X481514Y653878D01*
X482348Y654076D01*
X483186Y654254D01*
X484029Y654411D01*
X484875Y654547D01*
X485725Y654662D01*
X486577Y654757D01*
X487431Y654830D01*
X488286Y654883D01*
X489143Y654914D01*
X490000Y654925D01*
X490857Y654914D01*
X491714Y654883D01*
X492569Y654830D01*
X493423Y654757D01*
X494275Y654662D01*
X495125Y654547D01*
X495971Y654411D01*
X496814Y654254D01*
X497652Y654076D01*
X498486Y653878D01*
X499315Y653660D01*
X500138Y653421D01*
X500955Y653162D01*
X501766Y652883D01*
X502569Y652585D01*
X503365Y652266D01*
X504153Y651929D01*
X504932Y651572D01*
X505703Y651196D01*
X506464Y650801D01*
X507214Y650388D01*
X507955Y649956D01*
X508685Y649507D01*
X509403Y649039D01*
X510110Y648554D01*
X510805Y648052D01*
X511487Y647533D01*
X512156Y646997D01*
X512812Y646446D01*
X513454Y645878D01*
X514082Y645294D01*
X514696Y644696D01*
X515294Y644082D01*
X515878Y643454D01*
X516446Y642812D01*
X516997Y642156D01*
X517533Y641487D01*
X518052Y640805D01*
X518554Y640110D01*
X519039Y639403D01*
X519507Y638685D01*
X519956Y637955D01*
X520388Y637214D01*
X520801Y636464D01*
X521196Y635703D01*
X521572Y634932D01*
X521929Y634153D01*
X522266Y633365D01*
X522585Y632569D01*
X522883Y631766D01*
X523162Y630955D01*
X523421Y630138D01*
X523660Y629315D01*
X523878Y628486D01*
X524076Y627652D01*
X524254Y626814D01*
X524411Y625971D01*
X524547Y625125D01*
X524662Y624275D01*
X524757Y623423D01*
X524830Y622569D01*
X524883Y621714D01*
X524914Y620857D01*
X524925Y620000D01*
X524914Y619143D01*
X524883Y618286D01*
X524830Y617431D01*
X524757Y616577D01*
X524662Y615725D01*
X524547Y614875D01*
X524411Y614029D01*
X524254Y613186D01*
X524076Y612348D01*
X523878Y611514D01*
X523660Y610685D01*
X523421Y609862D01*
X523162Y609045D01*
X522883Y608234D01*
X522585Y607431D01*
X522266Y606635D01*
X521929Y605847D01*
X521572Y605068D01*
X521196Y604297D01*
X520801Y603536D01*
X520388Y602786D01*
X519956Y602045D01*
X519507Y601315D01*
X519039Y600597D01*
X518554Y599890D01*
X518052Y599195D01*
X517533Y598513D01*
X516997Y597844D01*
X516446Y597188D01*
X515878Y596546D01*
X515294Y595918D01*
X514696Y595304D01*
X514082Y594706D01*
X513454Y594122D01*
X512812Y593554D01*
X512156Y593003D01*
X511487Y592467D01*
X510805Y591948D01*
X510110Y591446D01*
X509403Y590961D01*
X508685Y590493D01*
X507955Y590044D01*
X507214Y589612D01*
X506464Y589199D01*
X505703Y588804D01*
X504932Y588428D01*
X504153Y588071D01*
X503365Y587734D01*
X502569Y587415D01*
X501766Y587117D01*
X500955Y586838D01*
X500138Y586579D01*
X499315Y586340D01*
X498486Y586122D01*
X497652Y585924D01*
X496814Y585746D01*
X495971Y585589D01*
X495125Y585453D01*
X494275Y585338D01*
X493423Y585243D01*
X492569Y585170D01*
X491714Y585117D01*
X490857Y585086D01*
X490000Y585075D01*
X489143Y585086D01*
X488286Y585117D01*
X487431Y585170D01*
X486577Y585243D01*
X485725Y585338D01*
X484875Y585453D01*
X484029Y585589D01*
X483186Y585746D01*
X482348Y585924D01*
X481514Y586122D01*
X480685Y586340D01*
X479862Y586579D01*
X479045Y586838D01*
X478234Y587117D01*
X477431Y587415D01*
X476635Y587734D01*
X475847Y588071D01*
X475068Y588428D01*
X474297Y588804D01*
X473536Y589199D01*
X472786Y589612D01*
X472045Y590044D01*
X471315Y590493D01*
X470597Y590961D01*
X469890Y591446D01*
X469195Y591948D01*
X468513Y592467D01*
X467844Y593003D01*
X467188Y593554D01*
X466546Y594122D01*
X465918Y594706D01*
X465304Y595304D01*
X464706Y595918D01*
X464122Y596546D01*
X463554Y597188D01*
X463003Y597844D01*
X462467Y598513D01*
X461948Y599195D01*
X461446Y599890D01*
X460961Y600597D01*
X460493Y601315D01*
X460044Y602045D01*
X459612Y602786D01*
X459199Y603536D01*
X458804Y604297D01*
X458428Y605068D01*
X458071Y605847D01*
X457734Y606635D01*
X457415Y607431D01*
X457117Y608234D01*
X456838Y609045D01*
X456579Y609862D01*
X456340Y610685D01*
X456122Y611514D01*
X455924Y612348D01*
X455746Y613186D01*
X455589Y614029D01*
X455453Y614875D01*
X455338Y615725D01*
X455243Y616577D01*
X455170Y617431D01*
X455117Y618286D01*
X455086Y619143D01*
X455075Y620000D01*
X477300Y626350D02*
X490000Y626350D01*
X502700Y626350D01*
X490000Y626350D02*
X490000Y636510D01*
X455075Y520000D02*
X455086Y520857D01*
X455117Y521714D01*
X455170Y522569D01*
X455243Y523423D01*
X455338Y524275D01*
X455453Y525125D01*
X455589Y525971D01*
X455746Y526814D01*
X455924Y527652D01*
X456122Y528486D01*
X456340Y529315D01*
X456579Y530138D01*
X456838Y530955D01*
X457117Y531766D01*
X457415Y532569D01*
X457734Y533365D01*
X458071Y534153D01*
X458428Y534932D01*
X458804Y535703D01*
X459199Y536464D01*
X459612Y537214D01*
X460044Y537955D01*
X460493Y538685D01*
X460961Y539403D01*
X461446Y540110D01*
X461948Y540805D01*
X462467Y541487D01*
X463003Y542156D01*
X463554Y542812D01*
X464122Y543454D01*
X464706Y544082D01*
X465304Y544696D01*
X465918Y545294D01*
X466546Y545878D01*
X467188Y546446D01*
X467844Y546997D01*
X468513Y547533D01*
X469195Y548052D01*
X469890Y548554D01*
X470597Y549039D01*
X471315Y549507D01*
X472045Y549956D01*
X472786Y550388D01*
X473536Y550801D01*
X474297Y551196D01*
X475068Y551572D01*
X475847Y551929D01*
X476635Y552266D01*
X477431Y552585D01*
X478234Y552883D01*
X479045Y553162D01*
X479862Y553421D01*
X480685Y553660D01*
X481514Y553878D01*
X482348Y554076D01*
X483186Y554254D01*
X484029Y554411D01*
X484875Y554547D01*
X485725Y554662D01*
X486577Y554757D01*
X487431Y554830D01*
X488286Y554883D01*
X489143Y554914D01*
X490000Y554925D01*
X490857Y554914D01*
X491714Y554883D01*
X492569Y554830D01*
X493423Y554757D01*
X494275Y554662D01*
X495125Y554547D01*
X495971Y554411D01*
X496814Y554254D01*
X497652Y554076D01*
X498486Y553878D01*
X499315Y553660D01*
X500138Y553421D01*
X500955Y553162D01*
X501766Y552883D01*
X502569Y552585D01*
X503365Y552266D01*
X504153Y551929D01*
X504932Y551572D01*
X505703Y551196D01*
X506464Y550801D01*
X507214Y550388D01*
X507955Y549956D01*
X508685Y549507D01*
X509403Y549039D01*
X510110Y548554D01*
X510805Y548052D01*
X511487Y547533D01*
X512156Y546997D01*
X512812Y546446D01*
X513454Y545878D01*
X514082Y545294D01*
X514696Y544696D01*
X515294Y544082D01*
X515878Y543454D01*
X516446Y542812D01*
X516997Y542156D01*
X517533Y541487D01*
X518052Y540805D01*
X518554Y540110D01*
X519039Y539403D01*
X519507Y538685D01*
X519956Y537955D01*
X520388Y537214D01*
X520801Y536464D01*
X521196Y535703D01*
X521572Y534932D01*
X521929Y534153D01*
X522266Y533365D01*
X522585Y532569D01*
X522883Y531766D01*
X523162Y530955D01*
X523421Y530138D01*
X523660Y529315D01*
X523878Y528486D01*
X524076Y527652D01*
X524254Y526814D01*
X524411Y525971D01*
X524547Y525125D01*
X524662Y524275D01*
X524757Y523423D01*
X524830Y522569D01*
X524883Y521714D01*
X524914Y520857D01*
X524925Y520000D01*
X524914Y519143D01*
X524883Y518286D01*
X524830Y517431D01*
X524757Y516577D01*
X524662Y515725D01*
X524547Y514875D01*
X524411Y514029D01*
X524254Y513186D01*
X524076Y512348D01*
X523878Y511514D01*
X523660Y510685D01*
X523421Y509862D01*
X523162Y509045D01*
X522883Y508234D01*
X522585Y507431D01*
X522266Y506635D01*
X521929Y505847D01*
X521572Y505068D01*
X521196Y504297D01*
X520801Y503536D01*
X520388Y502786D01*
X519956Y502045D01*
X519507Y501315D01*
X519039Y500597D01*
X518554Y499890D01*
X518052Y499195D01*
X517533Y498513D01*
X516997Y497844D01*
X516446Y497188D01*
X515878Y496546D01*
X515294Y495918D01*
X514696Y495304D01*
X514082Y494706D01*
X513454Y494122D01*
X512812Y493554D01*
X512156Y493003D01*
X511487Y492467D01*
X510805Y491948D01*
X510110Y491446D01*
X509403Y490961D01*
X508685Y490493D01*
X507955Y490044D01*
X507214Y489612D01*
X506464Y489199D01*
X505703Y488804D01*
X504932Y488428D01*
X504153Y488071D01*
X503365Y487734D01*
X502569Y487415D01*
X501766Y487117D01*
X500955Y486838D01*
X500138Y486579D01*
X499315Y486340D01*
X498486Y486122D01*
X497652Y485924D01*
X496814Y485746D01*
X495971Y485589D01*
X495125Y485453D01*
X494275Y485338D01*
X493423Y485243D01*
X492569Y485170D01*
X491714Y485117D01*
X490857Y485086D01*
X490000Y485075D01*
X489143Y485086D01*
X488286Y485117D01*
X487431Y485170D01*
X486577Y485243D01*
X485725Y485338D01*
X484875Y485453D01*
X484029Y485589D01*
X483186Y485746D01*
X482348Y485924D01*
X481514Y486122D01*
X480685Y486340D01*
X479862Y486579D01*
X479045Y486838D01*
X478234Y487117D01*
X477431Y487415D01*
X476635Y487734D01*
X475847Y488071D01*
X475068Y488428D01*
X474297Y488804D01*
X473536Y489199D01*
X472786Y489612D01*
X472045Y490044D01*
X471315Y490493D01*
X470597Y490961D01*
X469890Y491446D01*
X469195Y491948D01*
X468513Y492467D01*
X467844Y493003D01*
X467188Y493554D01*
X466546Y494122D01*
X465918Y494706D01*
X465304Y495304D01*
X464706Y495918D01*
X464122Y496546D01*
X463554Y497188D01*
X463003Y497844D01*
X462467Y498513D01*
X461948Y499195D01*
X461446Y499890D01*
X460961Y500597D01*
X460493Y501315D01*
X460044Y502045D01*
X459612Y502786D01*
X459199Y503536D01*
X458804Y504297D01*
X458428Y505068D01*
X458071Y505847D01*
X457734Y506635D01*
X457415Y507431D01*
X457117Y508234D01*
X456838Y509045D01*
X456579Y509862D01*
X456340Y510685D01*
X456122Y511514D01*
X455924Y512348D01*
X455746Y513186D01*
X455589Y514029D01*
X455453Y514875D01*
X455338Y515725D01*
X455243Y516577D01*
X455170Y517431D01*
X455117Y518286D01*
X455086Y519143D01*
X455075Y520000D01*
X477300Y526350D02*
X490000Y526350D01*
X502700Y526350D01*
X490000Y526350D02*
X490000Y536510D01*
D10*
X501024Y447432D02*
X501024Y435748D01*
X497778Y447432D02*
X504269Y447432D01*
X508446Y444836D02*
X511692Y447432D01*
X511692Y435748D01*
X514937Y435748D02*
X508446Y435748D01*
X446724Y435748D02*
X446724Y447432D01*
X449969Y447432D02*
X443478Y447432D01*
X457716Y447432D02*
X457823Y447430D01*
X457929Y447424D01*
X458035Y447414D01*
X458141Y447401D01*
X458247Y447383D01*
X458351Y447362D01*
X458455Y447337D01*
X458558Y447308D01*
X458659Y447276D01*
X458759Y447239D01*
X458858Y447199D01*
X458956Y447156D01*
X459052Y447109D01*
X459146Y447058D01*
X459238Y447004D01*
X459328Y446947D01*
X459416Y446887D01*
X459501Y446823D01*
X459584Y446756D01*
X459665Y446686D01*
X459743Y446614D01*
X459819Y446538D01*
X459891Y446460D01*
X459961Y446379D01*
X460028Y446296D01*
X460092Y446211D01*
X460152Y446123D01*
X460209Y446033D01*
X460263Y445941D01*
X460314Y445847D01*
X460361Y445751D01*
X460404Y445653D01*
X460444Y445554D01*
X460481Y445454D01*
X460513Y445353D01*
X460542Y445250D01*
X460567Y445146D01*
X460588Y445042D01*
X460606Y444936D01*
X460619Y444830D01*
X460629Y444724D01*
X460635Y444618D01*
X460637Y444511D01*
X457716Y447432D02*
X457595Y447430D01*
X457474Y447424D01*
X457354Y447414D01*
X457233Y447401D01*
X457114Y447383D01*
X456994Y447362D01*
X456876Y447337D01*
X456759Y447308D01*
X456642Y447275D01*
X456527Y447239D01*
X456413Y447198D01*
X456300Y447155D01*
X456188Y447107D01*
X456079Y447056D01*
X455971Y447001D01*
X455864Y446943D01*
X455760Y446882D01*
X455658Y446817D01*
X455558Y446749D01*
X455460Y446678D01*
X455364Y446604D01*
X455271Y446527D01*
X455181Y446446D01*
X455093Y446363D01*
X455008Y446277D01*
X454925Y446188D01*
X454846Y446097D01*
X454769Y446003D01*
X454696Y445907D01*
X454626Y445809D01*
X454559Y445708D01*
X454495Y445605D01*
X454435Y445500D01*
X454378Y445393D01*
X454324Y445285D01*
X454274Y445175D01*
X454228Y445063D01*
X454185Y444950D01*
X454146Y444835D01*
X459664Y442239D02*
X459743Y442316D01*
X459819Y442397D01*
X459892Y442480D01*
X459962Y442565D01*
X460029Y442653D01*
X460093Y442743D01*
X460153Y442835D01*
X460210Y442930D01*
X460264Y443026D01*
X460315Y443124D01*
X460362Y443224D01*
X460406Y443326D01*
X460446Y443429D01*
X460482Y443533D01*
X460514Y443639D01*
X460543Y443745D01*
X460568Y443853D01*
X460590Y443961D01*
X460607Y444071D01*
X460621Y444180D01*
X460630Y444290D01*
X460636Y444401D01*
X460638Y444511D01*
X459663Y442239D02*
X454146Y435748D01*
X460637Y435748D01*
X957804Y439558D02*
X957804Y451242D01*
X961049Y451242D02*
X954558Y451242D01*
X965226Y439558D02*
X968472Y439558D01*
X968585Y439560D01*
X968698Y439566D01*
X968811Y439576D01*
X968924Y439590D01*
X969036Y439607D01*
X969147Y439629D01*
X969257Y439654D01*
X969367Y439684D01*
X969475Y439717D01*
X969582Y439754D01*
X969688Y439794D01*
X969792Y439839D01*
X969895Y439887D01*
X969996Y439938D01*
X970095Y439993D01*
X970192Y440051D01*
X970287Y440113D01*
X970380Y440178D01*
X970470Y440246D01*
X970558Y440317D01*
X970644Y440392D01*
X970727Y440469D01*
X970807Y440549D01*
X970884Y440632D01*
X970959Y440718D01*
X971030Y440806D01*
X971098Y440896D01*
X971163Y440989D01*
X971225Y441084D01*
X971283Y441181D01*
X971338Y441280D01*
X971389Y441381D01*
X971437Y441484D01*
X971482Y441588D01*
X971522Y441694D01*
X971559Y441801D01*
X971592Y441909D01*
X971622Y442019D01*
X971647Y442129D01*
X971669Y442240D01*
X971686Y442352D01*
X971700Y442465D01*
X971710Y442578D01*
X971716Y442691D01*
X971718Y442804D01*
X971716Y442917D01*
X971710Y443030D01*
X971700Y443143D01*
X971686Y443256D01*
X971669Y443368D01*
X971647Y443479D01*
X971622Y443589D01*
X971592Y443699D01*
X971559Y443807D01*
X971522Y443914D01*
X971482Y444020D01*
X971437Y444124D01*
X971389Y444227D01*
X971338Y444328D01*
X971283Y444427D01*
X971225Y444524D01*
X971163Y444619D01*
X971098Y444712D01*
X971030Y444802D01*
X970959Y444890D01*
X970884Y444976D01*
X970807Y445059D01*
X970727Y445139D01*
X970644Y445216D01*
X970558Y445291D01*
X970470Y445362D01*
X970380Y445430D01*
X970287Y445495D01*
X970192Y445557D01*
X970095Y445615D01*
X969996Y445670D01*
X969895Y445721D01*
X969792Y445769D01*
X969688Y445814D01*
X969582Y445854D01*
X969475Y445891D01*
X969367Y445924D01*
X969257Y445954D01*
X969147Y445979D01*
X969036Y446001D01*
X968924Y446018D01*
X968811Y446032D01*
X968698Y446042D01*
X968585Y446048D01*
X968472Y446050D01*
X969121Y451242D02*
X965226Y451242D01*
X969121Y451242D02*
X969222Y451240D01*
X969322Y451234D01*
X969422Y451224D01*
X969522Y451211D01*
X969621Y451193D01*
X969720Y451172D01*
X969817Y451147D01*
X969914Y451118D01*
X970009Y451085D01*
X970103Y451049D01*
X970195Y451009D01*
X970286Y450966D01*
X970375Y450919D01*
X970462Y450869D01*
X970548Y450815D01*
X970631Y450758D01*
X970711Y450698D01*
X970790Y450635D01*
X970866Y450568D01*
X970939Y450499D01*
X971009Y450427D01*
X971077Y450353D01*
X971142Y450276D01*
X971203Y450196D01*
X971262Y450114D01*
X971317Y450030D01*
X971369Y449944D01*
X971418Y449856D01*
X971463Y449766D01*
X971505Y449674D01*
X971543Y449581D01*
X971577Y449486D01*
X971608Y449391D01*
X971635Y449294D01*
X971658Y449196D01*
X971678Y449097D01*
X971693Y448997D01*
X971705Y448897D01*
X971713Y448797D01*
X971717Y448696D01*
X971717Y448596D01*
X971713Y448495D01*
X971705Y448395D01*
X971693Y448295D01*
X971678Y448195D01*
X971658Y448096D01*
X971635Y447998D01*
X971608Y447901D01*
X971577Y447806D01*
X971543Y447711D01*
X971505Y447618D01*
X971463Y447526D01*
X971418Y447436D01*
X971369Y447348D01*
X971317Y447262D01*
X971262Y447178D01*
X971203Y447096D01*
X971142Y447016D01*
X971077Y446939D01*
X971009Y446865D01*
X970939Y446793D01*
X970866Y446724D01*
X970790Y446657D01*
X970711Y446594D01*
X970631Y446534D01*
X970548Y446477D01*
X970462Y446423D01*
X970375Y446373D01*
X970286Y446326D01*
X970195Y446283D01*
X970103Y446243D01*
X970009Y446207D01*
X969914Y446174D01*
X969817Y446145D01*
X969720Y446120D01*
X969621Y446099D01*
X969522Y446081D01*
X969422Y446068D01*
X969322Y446058D01*
X969222Y446052D01*
X969121Y446050D01*
X969121Y446049D02*
X966524Y446049D01*
X1015914Y451242D02*
X1015914Y439558D01*
X1012668Y451242D02*
X1019159Y451242D01*
X1025932Y451242D02*
X1023336Y442154D01*
X1029827Y442154D01*
X1027880Y444751D02*
X1027880Y439558D01*
X206372Y268781D02*
X206372Y266184D01*
X206370Y266085D01*
X206364Y265985D01*
X206355Y265886D01*
X206342Y265788D01*
X206325Y265690D01*
X206304Y265592D01*
X206279Y265496D01*
X206251Y265401D01*
X206219Y265307D01*
X206184Y265214D01*
X206145Y265122D01*
X206102Y265032D01*
X206057Y264944D01*
X206007Y264857D01*
X205955Y264773D01*
X205899Y264690D01*
X205841Y264610D01*
X205779Y264532D01*
X205714Y264457D01*
X205646Y264384D01*
X205576Y264314D01*
X205503Y264246D01*
X205428Y264181D01*
X205350Y264119D01*
X205270Y264061D01*
X205187Y264005D01*
X205103Y263953D01*
X205016Y263903D01*
X204928Y263858D01*
X204838Y263815D01*
X204746Y263776D01*
X204653Y263741D01*
X204559Y263709D01*
X204464Y263681D01*
X204368Y263656D01*
X204270Y263635D01*
X204172Y263618D01*
X204074Y263605D01*
X203975Y263596D01*
X203875Y263590D01*
X203776Y263588D01*
X197284Y263588D01*
X197185Y263590D01*
X197085Y263596D01*
X196986Y263605D01*
X196888Y263618D01*
X196790Y263636D01*
X196692Y263656D01*
X196596Y263681D01*
X196500Y263709D01*
X196406Y263741D01*
X196313Y263776D01*
X196222Y263815D01*
X196132Y263858D01*
X196043Y263903D01*
X195957Y263953D01*
X195872Y264005D01*
X195790Y264061D01*
X195710Y264120D01*
X195632Y264181D01*
X195556Y264246D01*
X195483Y264314D01*
X195413Y264384D01*
X195345Y264457D01*
X195280Y264533D01*
X195219Y264611D01*
X195160Y264691D01*
X195104Y264773D01*
X195052Y264858D01*
X195003Y264944D01*
X194957Y265033D01*
X194914Y265123D01*
X194875Y265214D01*
X194840Y265307D01*
X194808Y265401D01*
X194780Y265497D01*
X194755Y265593D01*
X194735Y265691D01*
X194717Y265789D01*
X194704Y265887D01*
X194695Y265986D01*
X194689Y266085D01*
X194687Y266185D01*
X194688Y266184D02*
X194688Y268781D01*
X197284Y273146D02*
X194688Y276392D01*
X206372Y276392D01*
X206372Y279637D02*
X206372Y273146D01*
X124892Y298739D02*
X124892Y301336D01*
X124892Y298739D02*
X124890Y298640D01*
X124884Y298540D01*
X124875Y298441D01*
X124862Y298343D01*
X124845Y298245D01*
X124824Y298147D01*
X124799Y298051D01*
X124771Y297956D01*
X124739Y297862D01*
X124704Y297769D01*
X124665Y297677D01*
X124622Y297587D01*
X124577Y297499D01*
X124527Y297412D01*
X124475Y297328D01*
X124419Y297245D01*
X124361Y297165D01*
X124299Y297087D01*
X124234Y297012D01*
X124166Y296939D01*
X124096Y296869D01*
X124023Y296801D01*
X123948Y296736D01*
X123870Y296674D01*
X123790Y296616D01*
X123707Y296560D01*
X123623Y296508D01*
X123536Y296458D01*
X123448Y296413D01*
X123358Y296370D01*
X123266Y296331D01*
X123173Y296296D01*
X123079Y296264D01*
X122984Y296236D01*
X122888Y296211D01*
X122790Y296190D01*
X122692Y296173D01*
X122594Y296160D01*
X122495Y296151D01*
X122395Y296145D01*
X122296Y296143D01*
X115804Y296143D01*
X115804Y296142D02*
X115705Y296144D01*
X115605Y296150D01*
X115506Y296159D01*
X115408Y296172D01*
X115310Y296190D01*
X115212Y296210D01*
X115116Y296235D01*
X115020Y296263D01*
X114926Y296295D01*
X114833Y296330D01*
X114742Y296369D01*
X114652Y296412D01*
X114563Y296457D01*
X114477Y296507D01*
X114392Y296559D01*
X114310Y296615D01*
X114230Y296674D01*
X114152Y296735D01*
X114076Y296800D01*
X114003Y296868D01*
X113933Y296938D01*
X113865Y297011D01*
X113800Y297087D01*
X113739Y297165D01*
X113680Y297245D01*
X113624Y297327D01*
X113572Y297412D01*
X113523Y297498D01*
X113477Y297587D01*
X113434Y297677D01*
X113395Y297768D01*
X113360Y297861D01*
X113328Y297955D01*
X113300Y298051D01*
X113275Y298147D01*
X113255Y298245D01*
X113237Y298343D01*
X113224Y298441D01*
X113215Y298540D01*
X113209Y298639D01*
X113207Y298739D01*
X113208Y298739D02*
X113208Y301336D01*
X113208Y309271D02*
X113210Y309378D01*
X113216Y309484D01*
X113226Y309590D01*
X113239Y309696D01*
X113257Y309802D01*
X113278Y309906D01*
X113303Y310010D01*
X113332Y310113D01*
X113364Y310214D01*
X113401Y310314D01*
X113441Y310413D01*
X113484Y310511D01*
X113531Y310607D01*
X113582Y310701D01*
X113636Y310793D01*
X113693Y310883D01*
X113753Y310971D01*
X113817Y311056D01*
X113884Y311139D01*
X113954Y311220D01*
X114026Y311298D01*
X114102Y311374D01*
X114180Y311446D01*
X114261Y311516D01*
X114344Y311583D01*
X114429Y311647D01*
X114517Y311707D01*
X114607Y311764D01*
X114699Y311818D01*
X114793Y311869D01*
X114889Y311916D01*
X114987Y311959D01*
X115086Y311999D01*
X115186Y312036D01*
X115287Y312068D01*
X115390Y312097D01*
X115494Y312122D01*
X115598Y312143D01*
X115704Y312161D01*
X115810Y312174D01*
X115916Y312184D01*
X116022Y312190D01*
X116129Y312192D01*
X113208Y309271D02*
X113210Y309150D01*
X113216Y309029D01*
X113226Y308909D01*
X113239Y308788D01*
X113257Y308669D01*
X113278Y308549D01*
X113303Y308431D01*
X113332Y308314D01*
X113365Y308197D01*
X113401Y308082D01*
X113442Y307968D01*
X113485Y307855D01*
X113533Y307743D01*
X113584Y307634D01*
X113639Y307526D01*
X113697Y307419D01*
X113758Y307315D01*
X113823Y307213D01*
X113891Y307113D01*
X113962Y307015D01*
X114036Y306919D01*
X114113Y306826D01*
X114194Y306736D01*
X114277Y306648D01*
X114363Y306563D01*
X114452Y306480D01*
X114543Y306401D01*
X114637Y306324D01*
X114733Y306251D01*
X114831Y306181D01*
X114932Y306114D01*
X115035Y306050D01*
X115140Y305990D01*
X115247Y305932D01*
X115355Y305879D01*
X115465Y305829D01*
X115577Y305783D01*
X115690Y305740D01*
X115805Y305701D01*
X118401Y311218D02*
X118323Y311297D01*
X118243Y311373D01*
X118160Y311446D01*
X118074Y311516D01*
X117987Y311583D01*
X117896Y311647D01*
X117804Y311707D01*
X117710Y311765D01*
X117613Y311819D01*
X117515Y311869D01*
X117415Y311916D01*
X117314Y311960D01*
X117211Y312000D01*
X117106Y312036D01*
X117001Y312068D01*
X116894Y312097D01*
X116787Y312122D01*
X116678Y312144D01*
X116569Y312161D01*
X116460Y312175D01*
X116350Y312184D01*
X116239Y312190D01*
X116129Y312192D01*
X118401Y311218D02*
X124892Y305701D01*
X124892Y312192D01*
X425734Y335108D02*
X428331Y335108D01*
X425734Y335108D02*
X425635Y335110D01*
X425535Y335116D01*
X425436Y335125D01*
X425338Y335138D01*
X425240Y335155D01*
X425142Y335176D01*
X425046Y335201D01*
X424951Y335229D01*
X424857Y335261D01*
X424764Y335296D01*
X424672Y335335D01*
X424582Y335378D01*
X424494Y335423D01*
X424407Y335473D01*
X424323Y335525D01*
X424240Y335581D01*
X424160Y335639D01*
X424082Y335701D01*
X424007Y335766D01*
X423934Y335834D01*
X423864Y335904D01*
X423796Y335977D01*
X423731Y336052D01*
X423669Y336130D01*
X423611Y336210D01*
X423555Y336293D01*
X423503Y336377D01*
X423453Y336464D01*
X423408Y336552D01*
X423365Y336642D01*
X423326Y336734D01*
X423291Y336827D01*
X423259Y336921D01*
X423231Y337016D01*
X423206Y337112D01*
X423185Y337210D01*
X423168Y337308D01*
X423155Y337406D01*
X423146Y337505D01*
X423140Y337605D01*
X423138Y337704D01*
X423138Y344196D01*
X423140Y344295D01*
X423146Y344395D01*
X423155Y344494D01*
X423168Y344592D01*
X423185Y344690D01*
X423206Y344788D01*
X423231Y344884D01*
X423259Y344979D01*
X423291Y345073D01*
X423326Y345166D01*
X423365Y345258D01*
X423408Y345348D01*
X423453Y345436D01*
X423503Y345523D01*
X423555Y345607D01*
X423611Y345690D01*
X423669Y345770D01*
X423731Y345848D01*
X423796Y345923D01*
X423864Y345996D01*
X423934Y346066D01*
X424007Y346134D01*
X424082Y346199D01*
X424160Y346261D01*
X424240Y346319D01*
X424323Y346375D01*
X424407Y346427D01*
X424494Y346477D01*
X424582Y346522D01*
X424672Y346565D01*
X424764Y346604D01*
X424856Y346639D01*
X424951Y346671D01*
X425046Y346699D01*
X425142Y346724D01*
X425240Y346745D01*
X425338Y346762D01*
X425436Y346775D01*
X425535Y346784D01*
X425635Y346790D01*
X425734Y346792D01*
X428331Y346792D01*
X432696Y335108D02*
X435942Y335108D01*
X436055Y335110D01*
X436168Y335116D01*
X436281Y335126D01*
X436394Y335140D01*
X436506Y335157D01*
X436617Y335179D01*
X436727Y335204D01*
X436837Y335234D01*
X436945Y335267D01*
X437052Y335304D01*
X437158Y335344D01*
X437262Y335389D01*
X437365Y335437D01*
X437466Y335488D01*
X437565Y335543D01*
X437662Y335601D01*
X437757Y335663D01*
X437850Y335728D01*
X437940Y335796D01*
X438028Y335867D01*
X438114Y335942D01*
X438197Y336019D01*
X438277Y336099D01*
X438354Y336182D01*
X438429Y336268D01*
X438500Y336356D01*
X438568Y336446D01*
X438633Y336539D01*
X438695Y336634D01*
X438753Y336731D01*
X438808Y336830D01*
X438859Y336931D01*
X438907Y337034D01*
X438952Y337138D01*
X438992Y337244D01*
X439029Y337351D01*
X439062Y337459D01*
X439092Y337569D01*
X439117Y337679D01*
X439139Y337790D01*
X439156Y337902D01*
X439170Y338015D01*
X439180Y338128D01*
X439186Y338241D01*
X439188Y338354D01*
X439186Y338467D01*
X439180Y338580D01*
X439170Y338693D01*
X439156Y338806D01*
X439139Y338918D01*
X439117Y339029D01*
X439092Y339139D01*
X439062Y339249D01*
X439029Y339357D01*
X438992Y339464D01*
X438952Y339570D01*
X438907Y339674D01*
X438859Y339777D01*
X438808Y339878D01*
X438753Y339977D01*
X438695Y340074D01*
X438633Y340169D01*
X438568Y340262D01*
X438500Y340352D01*
X438429Y340440D01*
X438354Y340526D01*
X438277Y340609D01*
X438197Y340689D01*
X438114Y340766D01*
X438028Y340841D01*
X437940Y340912D01*
X437850Y340980D01*
X437757Y341045D01*
X437662Y341107D01*
X437565Y341165D01*
X437466Y341220D01*
X437365Y341271D01*
X437262Y341319D01*
X437158Y341364D01*
X437052Y341404D01*
X436945Y341441D01*
X436837Y341474D01*
X436727Y341504D01*
X436617Y341529D01*
X436506Y341551D01*
X436394Y341568D01*
X436281Y341582D01*
X436168Y341592D01*
X436055Y341598D01*
X435942Y341600D01*
X436591Y346792D02*
X432696Y346792D01*
X436591Y346792D02*
X436692Y346790D01*
X436792Y346784D01*
X436892Y346774D01*
X436992Y346761D01*
X437091Y346743D01*
X437190Y346722D01*
X437287Y346697D01*
X437384Y346668D01*
X437479Y346635D01*
X437573Y346599D01*
X437665Y346559D01*
X437756Y346516D01*
X437845Y346469D01*
X437932Y346419D01*
X438018Y346365D01*
X438101Y346308D01*
X438181Y346248D01*
X438260Y346185D01*
X438336Y346118D01*
X438409Y346049D01*
X438479Y345977D01*
X438547Y345903D01*
X438612Y345826D01*
X438673Y345746D01*
X438732Y345664D01*
X438787Y345580D01*
X438839Y345494D01*
X438888Y345406D01*
X438933Y345316D01*
X438975Y345224D01*
X439013Y345131D01*
X439047Y345036D01*
X439078Y344941D01*
X439105Y344844D01*
X439128Y344746D01*
X439148Y344647D01*
X439163Y344547D01*
X439175Y344447D01*
X439183Y344347D01*
X439187Y344246D01*
X439187Y344146D01*
X439183Y344045D01*
X439175Y343945D01*
X439163Y343845D01*
X439148Y343745D01*
X439128Y343646D01*
X439105Y343548D01*
X439078Y343451D01*
X439047Y343356D01*
X439013Y343261D01*
X438975Y343168D01*
X438933Y343076D01*
X438888Y342986D01*
X438839Y342898D01*
X438787Y342812D01*
X438732Y342728D01*
X438673Y342646D01*
X438612Y342566D01*
X438547Y342489D01*
X438479Y342415D01*
X438409Y342343D01*
X438336Y342274D01*
X438260Y342207D01*
X438181Y342144D01*
X438101Y342084D01*
X438018Y342027D01*
X437932Y341973D01*
X437845Y341923D01*
X437756Y341876D01*
X437665Y341833D01*
X437573Y341793D01*
X437479Y341757D01*
X437384Y341724D01*
X437287Y341695D01*
X437190Y341670D01*
X437091Y341649D01*
X436992Y341631D01*
X436892Y341618D01*
X436792Y341608D01*
X436692Y341602D01*
X436591Y341600D01*
X436591Y341599D02*
X433994Y341599D01*
X608852Y291171D02*
X608852Y288574D01*
X608850Y288475D01*
X608844Y288375D01*
X608835Y288276D01*
X608822Y288178D01*
X608805Y288080D01*
X608784Y287982D01*
X608759Y287886D01*
X608731Y287791D01*
X608699Y287697D01*
X608664Y287604D01*
X608625Y287512D01*
X608582Y287422D01*
X608537Y287334D01*
X608487Y287247D01*
X608435Y287163D01*
X608379Y287080D01*
X608321Y287000D01*
X608259Y286922D01*
X608194Y286847D01*
X608126Y286774D01*
X608056Y286704D01*
X607983Y286636D01*
X607908Y286571D01*
X607830Y286509D01*
X607750Y286451D01*
X607667Y286395D01*
X607583Y286343D01*
X607496Y286293D01*
X607408Y286248D01*
X607318Y286205D01*
X607226Y286166D01*
X607133Y286131D01*
X607039Y286099D01*
X606944Y286071D01*
X606848Y286046D01*
X606750Y286025D01*
X606652Y286008D01*
X606554Y285995D01*
X606455Y285986D01*
X606355Y285980D01*
X606256Y285978D01*
X599764Y285978D01*
X599665Y285980D01*
X599565Y285986D01*
X599466Y285995D01*
X599368Y286008D01*
X599270Y286026D01*
X599172Y286046D01*
X599076Y286071D01*
X598980Y286099D01*
X598886Y286131D01*
X598793Y286166D01*
X598702Y286205D01*
X598612Y286248D01*
X598523Y286293D01*
X598437Y286343D01*
X598352Y286395D01*
X598270Y286451D01*
X598190Y286510D01*
X598112Y286571D01*
X598036Y286636D01*
X597963Y286704D01*
X597893Y286774D01*
X597825Y286847D01*
X597760Y286923D01*
X597699Y287001D01*
X597640Y287081D01*
X597584Y287163D01*
X597532Y287248D01*
X597483Y287334D01*
X597437Y287423D01*
X597394Y287513D01*
X597355Y287604D01*
X597320Y287697D01*
X597288Y287791D01*
X597260Y287887D01*
X597235Y287983D01*
X597215Y288081D01*
X597197Y288179D01*
X597184Y288277D01*
X597175Y288376D01*
X597169Y288475D01*
X597167Y288575D01*
X597168Y288574D02*
X597168Y291171D01*
X597168Y298133D02*
X606256Y295536D01*
X606256Y302027D01*
X603659Y300080D02*
X608852Y300080D01*
X737932Y268781D02*
X737932Y266184D01*
X737930Y266085D01*
X737924Y265985D01*
X737915Y265886D01*
X737902Y265788D01*
X737885Y265690D01*
X737864Y265592D01*
X737839Y265496D01*
X737811Y265401D01*
X737779Y265307D01*
X737744Y265214D01*
X737705Y265122D01*
X737662Y265032D01*
X737617Y264944D01*
X737567Y264857D01*
X737515Y264773D01*
X737459Y264690D01*
X737401Y264610D01*
X737339Y264532D01*
X737274Y264457D01*
X737206Y264384D01*
X737136Y264314D01*
X737063Y264246D01*
X736988Y264181D01*
X736910Y264119D01*
X736830Y264061D01*
X736747Y264005D01*
X736663Y263953D01*
X736576Y263903D01*
X736488Y263858D01*
X736398Y263815D01*
X736306Y263776D01*
X736213Y263741D01*
X736119Y263709D01*
X736024Y263681D01*
X735928Y263656D01*
X735830Y263635D01*
X735732Y263618D01*
X735634Y263605D01*
X735535Y263596D01*
X735435Y263590D01*
X735336Y263588D01*
X728844Y263588D01*
X728745Y263590D01*
X728645Y263596D01*
X728546Y263605D01*
X728448Y263618D01*
X728350Y263636D01*
X728252Y263656D01*
X728156Y263681D01*
X728060Y263709D01*
X727966Y263741D01*
X727873Y263776D01*
X727782Y263815D01*
X727692Y263858D01*
X727603Y263903D01*
X727517Y263953D01*
X727432Y264005D01*
X727350Y264061D01*
X727270Y264120D01*
X727192Y264181D01*
X727116Y264246D01*
X727043Y264314D01*
X726973Y264384D01*
X726905Y264457D01*
X726840Y264533D01*
X726779Y264611D01*
X726720Y264691D01*
X726664Y264773D01*
X726612Y264858D01*
X726563Y264944D01*
X726517Y265033D01*
X726474Y265123D01*
X726435Y265214D01*
X726400Y265307D01*
X726368Y265401D01*
X726340Y265497D01*
X726315Y265593D01*
X726295Y265691D01*
X726277Y265789D01*
X726264Y265887D01*
X726255Y265986D01*
X726249Y266085D01*
X726247Y266185D01*
X726248Y266184D02*
X726248Y268781D01*
X737932Y273146D02*
X737932Y277041D01*
X737930Y277140D01*
X737924Y277240D01*
X737915Y277339D01*
X737902Y277437D01*
X737885Y277535D01*
X737864Y277633D01*
X737839Y277729D01*
X737811Y277824D01*
X737779Y277918D01*
X737744Y278011D01*
X737705Y278103D01*
X737662Y278193D01*
X737617Y278281D01*
X737567Y278368D01*
X737515Y278452D01*
X737459Y278535D01*
X737401Y278615D01*
X737339Y278693D01*
X737274Y278768D01*
X737206Y278841D01*
X737136Y278911D01*
X737063Y278979D01*
X736988Y279044D01*
X736910Y279106D01*
X736830Y279164D01*
X736747Y279220D01*
X736663Y279272D01*
X736576Y279322D01*
X736488Y279367D01*
X736398Y279410D01*
X736306Y279449D01*
X736213Y279484D01*
X736119Y279516D01*
X736024Y279544D01*
X735928Y279569D01*
X735830Y279590D01*
X735732Y279607D01*
X735634Y279620D01*
X735535Y279629D01*
X735435Y279635D01*
X735336Y279637D01*
X734037Y279637D01*
X733938Y279635D01*
X733838Y279629D01*
X733739Y279620D01*
X733641Y279607D01*
X733543Y279590D01*
X733445Y279569D01*
X733349Y279544D01*
X733254Y279516D01*
X733160Y279484D01*
X733067Y279449D01*
X732975Y279410D01*
X732885Y279367D01*
X732797Y279322D01*
X732710Y279272D01*
X732626Y279220D01*
X732543Y279164D01*
X732463Y279106D01*
X732385Y279044D01*
X732310Y278979D01*
X732237Y278911D01*
X732167Y278841D01*
X732099Y278768D01*
X732034Y278693D01*
X731972Y278615D01*
X731914Y278535D01*
X731858Y278452D01*
X731806Y278368D01*
X731756Y278281D01*
X731711Y278193D01*
X731668Y278103D01*
X731629Y278011D01*
X731594Y277918D01*
X731562Y277824D01*
X731534Y277729D01*
X731509Y277633D01*
X731488Y277535D01*
X731471Y277437D01*
X731458Y277339D01*
X731449Y277240D01*
X731443Y277140D01*
X731441Y277041D01*
X731441Y273146D01*
X726248Y273146D01*
X726248Y279637D01*
X1119932Y311434D02*
X1119932Y314031D01*
X1119932Y311434D02*
X1119930Y311335D01*
X1119924Y311235D01*
X1119915Y311136D01*
X1119902Y311038D01*
X1119885Y310940D01*
X1119864Y310842D01*
X1119839Y310746D01*
X1119811Y310651D01*
X1119779Y310557D01*
X1119744Y310464D01*
X1119705Y310372D01*
X1119662Y310282D01*
X1119617Y310194D01*
X1119567Y310107D01*
X1119515Y310023D01*
X1119459Y309940D01*
X1119401Y309860D01*
X1119339Y309782D01*
X1119274Y309707D01*
X1119206Y309634D01*
X1119136Y309564D01*
X1119063Y309496D01*
X1118988Y309431D01*
X1118910Y309369D01*
X1118830Y309311D01*
X1118747Y309255D01*
X1118663Y309203D01*
X1118576Y309153D01*
X1118488Y309108D01*
X1118398Y309065D01*
X1118306Y309026D01*
X1118213Y308991D01*
X1118119Y308959D01*
X1118024Y308931D01*
X1117928Y308906D01*
X1117830Y308885D01*
X1117732Y308868D01*
X1117634Y308855D01*
X1117535Y308846D01*
X1117435Y308840D01*
X1117336Y308838D01*
X1110844Y308838D01*
X1110745Y308840D01*
X1110645Y308846D01*
X1110546Y308855D01*
X1110448Y308868D01*
X1110350Y308886D01*
X1110252Y308906D01*
X1110156Y308931D01*
X1110060Y308959D01*
X1109966Y308991D01*
X1109873Y309026D01*
X1109782Y309065D01*
X1109692Y309108D01*
X1109603Y309153D01*
X1109517Y309203D01*
X1109432Y309255D01*
X1109350Y309311D01*
X1109270Y309370D01*
X1109192Y309431D01*
X1109116Y309496D01*
X1109043Y309564D01*
X1108973Y309634D01*
X1108905Y309707D01*
X1108840Y309783D01*
X1108779Y309861D01*
X1108720Y309941D01*
X1108664Y310023D01*
X1108612Y310108D01*
X1108563Y310194D01*
X1108517Y310283D01*
X1108474Y310373D01*
X1108435Y310464D01*
X1108400Y310557D01*
X1108368Y310651D01*
X1108340Y310747D01*
X1108315Y310843D01*
X1108295Y310941D01*
X1108277Y311039D01*
X1108264Y311137D01*
X1108255Y311236D01*
X1108249Y311335D01*
X1108247Y311435D01*
X1108248Y311434D02*
X1108248Y314031D01*
X1108248Y318396D02*
X1109546Y318396D01*
X1108248Y318396D02*
X1108248Y324887D01*
X1119932Y321642D01*
X1284892Y251336D02*
X1284892Y248739D01*
X1284890Y248640D01*
X1284884Y248540D01*
X1284875Y248441D01*
X1284862Y248343D01*
X1284845Y248245D01*
X1284824Y248147D01*
X1284799Y248051D01*
X1284771Y247956D01*
X1284739Y247862D01*
X1284704Y247769D01*
X1284665Y247677D01*
X1284622Y247587D01*
X1284577Y247499D01*
X1284527Y247412D01*
X1284475Y247328D01*
X1284419Y247245D01*
X1284361Y247165D01*
X1284299Y247087D01*
X1284234Y247012D01*
X1284166Y246939D01*
X1284096Y246869D01*
X1284023Y246801D01*
X1283948Y246736D01*
X1283870Y246674D01*
X1283790Y246616D01*
X1283707Y246560D01*
X1283623Y246508D01*
X1283536Y246458D01*
X1283448Y246413D01*
X1283358Y246370D01*
X1283266Y246331D01*
X1283173Y246296D01*
X1283079Y246264D01*
X1282984Y246236D01*
X1282888Y246211D01*
X1282790Y246190D01*
X1282692Y246173D01*
X1282594Y246160D01*
X1282495Y246151D01*
X1282395Y246145D01*
X1282296Y246143D01*
X1275804Y246143D01*
X1275804Y246142D02*
X1275705Y246144D01*
X1275605Y246150D01*
X1275506Y246159D01*
X1275408Y246172D01*
X1275310Y246190D01*
X1275212Y246210D01*
X1275116Y246235D01*
X1275020Y246263D01*
X1274926Y246295D01*
X1274833Y246330D01*
X1274742Y246369D01*
X1274652Y246412D01*
X1274563Y246457D01*
X1274477Y246507D01*
X1274392Y246559D01*
X1274310Y246615D01*
X1274230Y246674D01*
X1274152Y246735D01*
X1274076Y246800D01*
X1274003Y246868D01*
X1273933Y246938D01*
X1273865Y247011D01*
X1273800Y247087D01*
X1273739Y247165D01*
X1273680Y247245D01*
X1273624Y247327D01*
X1273572Y247412D01*
X1273523Y247498D01*
X1273477Y247587D01*
X1273434Y247677D01*
X1273395Y247768D01*
X1273360Y247861D01*
X1273328Y247955D01*
X1273300Y248051D01*
X1273275Y248147D01*
X1273255Y248245D01*
X1273237Y248343D01*
X1273224Y248441D01*
X1273215Y248540D01*
X1273209Y248639D01*
X1273207Y248739D01*
X1273208Y248739D02*
X1273208Y251336D01*
X1281646Y255700D02*
X1281533Y255702D01*
X1281420Y255708D01*
X1281307Y255718D01*
X1281194Y255732D01*
X1281082Y255749D01*
X1280971Y255771D01*
X1280861Y255796D01*
X1280751Y255826D01*
X1280643Y255859D01*
X1280536Y255896D01*
X1280430Y255936D01*
X1280326Y255981D01*
X1280223Y256029D01*
X1280122Y256080D01*
X1280023Y256135D01*
X1279926Y256193D01*
X1279831Y256255D01*
X1279738Y256320D01*
X1279648Y256388D01*
X1279560Y256459D01*
X1279474Y256534D01*
X1279391Y256611D01*
X1279311Y256691D01*
X1279234Y256774D01*
X1279159Y256860D01*
X1279088Y256948D01*
X1279020Y257038D01*
X1278955Y257131D01*
X1278893Y257226D01*
X1278835Y257323D01*
X1278780Y257422D01*
X1278729Y257523D01*
X1278681Y257626D01*
X1278636Y257730D01*
X1278596Y257836D01*
X1278559Y257943D01*
X1278526Y258051D01*
X1278496Y258161D01*
X1278471Y258271D01*
X1278449Y258382D01*
X1278432Y258494D01*
X1278418Y258607D01*
X1278408Y258720D01*
X1278402Y258833D01*
X1278400Y258946D01*
X1278402Y259059D01*
X1278408Y259172D01*
X1278418Y259285D01*
X1278432Y259398D01*
X1278449Y259510D01*
X1278471Y259621D01*
X1278496Y259731D01*
X1278526Y259841D01*
X1278559Y259949D01*
X1278596Y260056D01*
X1278636Y260162D01*
X1278681Y260266D01*
X1278729Y260369D01*
X1278780Y260470D01*
X1278835Y260569D01*
X1278893Y260666D01*
X1278955Y260761D01*
X1279020Y260854D01*
X1279088Y260944D01*
X1279159Y261032D01*
X1279234Y261118D01*
X1279311Y261201D01*
X1279391Y261281D01*
X1279474Y261358D01*
X1279560Y261433D01*
X1279648Y261504D01*
X1279738Y261572D01*
X1279831Y261637D01*
X1279926Y261699D01*
X1280023Y261757D01*
X1280122Y261812D01*
X1280223Y261863D01*
X1280326Y261911D01*
X1280430Y261956D01*
X1280536Y261996D01*
X1280643Y262033D01*
X1280751Y262066D01*
X1280861Y262096D01*
X1280971Y262121D01*
X1281082Y262143D01*
X1281194Y262160D01*
X1281307Y262174D01*
X1281420Y262184D01*
X1281533Y262190D01*
X1281646Y262192D01*
X1281759Y262190D01*
X1281872Y262184D01*
X1281985Y262174D01*
X1282098Y262160D01*
X1282210Y262143D01*
X1282321Y262121D01*
X1282431Y262096D01*
X1282541Y262066D01*
X1282649Y262033D01*
X1282756Y261996D01*
X1282862Y261956D01*
X1282966Y261911D01*
X1283069Y261863D01*
X1283170Y261812D01*
X1283269Y261757D01*
X1283366Y261699D01*
X1283461Y261637D01*
X1283554Y261572D01*
X1283644Y261504D01*
X1283732Y261433D01*
X1283818Y261358D01*
X1283901Y261281D01*
X1283981Y261201D01*
X1284058Y261118D01*
X1284133Y261032D01*
X1284204Y260944D01*
X1284272Y260854D01*
X1284337Y260761D01*
X1284399Y260666D01*
X1284457Y260569D01*
X1284512Y260470D01*
X1284563Y260369D01*
X1284611Y260266D01*
X1284656Y260162D01*
X1284696Y260056D01*
X1284733Y259949D01*
X1284766Y259841D01*
X1284796Y259731D01*
X1284821Y259621D01*
X1284843Y259510D01*
X1284860Y259398D01*
X1284874Y259285D01*
X1284884Y259172D01*
X1284890Y259059D01*
X1284892Y258946D01*
X1284890Y258833D01*
X1284884Y258720D01*
X1284874Y258607D01*
X1284860Y258494D01*
X1284843Y258382D01*
X1284821Y258271D01*
X1284796Y258161D01*
X1284766Y258051D01*
X1284733Y257943D01*
X1284696Y257836D01*
X1284656Y257730D01*
X1284611Y257626D01*
X1284563Y257523D01*
X1284512Y257422D01*
X1284457Y257323D01*
X1284399Y257226D01*
X1284337Y257131D01*
X1284272Y257038D01*
X1284204Y256948D01*
X1284133Y256860D01*
X1284058Y256774D01*
X1283981Y256691D01*
X1283901Y256611D01*
X1283818Y256534D01*
X1283732Y256459D01*
X1283644Y256388D01*
X1283554Y256320D01*
X1283461Y256255D01*
X1283366Y256193D01*
X1283269Y256135D01*
X1283170Y256080D01*
X1283069Y256029D01*
X1282966Y255981D01*
X1282862Y255936D01*
X1282756Y255896D01*
X1282649Y255859D01*
X1282541Y255826D01*
X1282431Y255796D01*
X1282321Y255771D01*
X1282210Y255749D01*
X1282098Y255732D01*
X1281985Y255718D01*
X1281872Y255708D01*
X1281759Y255702D01*
X1281646Y255700D01*
X1275804Y256350D02*
X1275703Y256352D01*
X1275603Y256358D01*
X1275503Y256368D01*
X1275403Y256381D01*
X1275304Y256399D01*
X1275205Y256420D01*
X1275108Y256445D01*
X1275011Y256474D01*
X1274916Y256507D01*
X1274822Y256543D01*
X1274730Y256583D01*
X1274639Y256626D01*
X1274550Y256673D01*
X1274463Y256723D01*
X1274377Y256777D01*
X1274294Y256834D01*
X1274214Y256894D01*
X1274135Y256957D01*
X1274059Y257024D01*
X1273986Y257093D01*
X1273916Y257165D01*
X1273848Y257239D01*
X1273783Y257316D01*
X1273722Y257396D01*
X1273663Y257478D01*
X1273608Y257562D01*
X1273556Y257648D01*
X1273507Y257736D01*
X1273462Y257826D01*
X1273420Y257918D01*
X1273382Y258011D01*
X1273348Y258106D01*
X1273317Y258201D01*
X1273290Y258298D01*
X1273267Y258396D01*
X1273247Y258495D01*
X1273232Y258595D01*
X1273220Y258695D01*
X1273212Y258795D01*
X1273208Y258896D01*
X1273208Y258996D01*
X1273212Y259097D01*
X1273220Y259197D01*
X1273232Y259297D01*
X1273247Y259397D01*
X1273267Y259496D01*
X1273290Y259594D01*
X1273317Y259691D01*
X1273348Y259786D01*
X1273382Y259881D01*
X1273420Y259974D01*
X1273462Y260066D01*
X1273507Y260156D01*
X1273556Y260244D01*
X1273608Y260330D01*
X1273663Y260414D01*
X1273722Y260496D01*
X1273783Y260576D01*
X1273848Y260653D01*
X1273916Y260727D01*
X1273986Y260799D01*
X1274059Y260868D01*
X1274135Y260935D01*
X1274214Y260998D01*
X1274294Y261058D01*
X1274377Y261115D01*
X1274463Y261169D01*
X1274550Y261219D01*
X1274639Y261266D01*
X1274730Y261309D01*
X1274822Y261349D01*
X1274916Y261385D01*
X1275011Y261418D01*
X1275108Y261447D01*
X1275205Y261472D01*
X1275304Y261493D01*
X1275403Y261511D01*
X1275503Y261524D01*
X1275603Y261534D01*
X1275703Y261540D01*
X1275804Y261542D01*
X1275905Y261540D01*
X1276005Y261534D01*
X1276105Y261524D01*
X1276205Y261511D01*
X1276304Y261493D01*
X1276403Y261472D01*
X1276500Y261447D01*
X1276597Y261418D01*
X1276692Y261385D01*
X1276786Y261349D01*
X1276878Y261309D01*
X1276969Y261266D01*
X1277058Y261219D01*
X1277145Y261169D01*
X1277231Y261115D01*
X1277314Y261058D01*
X1277394Y260998D01*
X1277473Y260935D01*
X1277549Y260868D01*
X1277622Y260799D01*
X1277692Y260727D01*
X1277760Y260653D01*
X1277825Y260576D01*
X1277886Y260496D01*
X1277945Y260414D01*
X1278000Y260330D01*
X1278052Y260244D01*
X1278101Y260156D01*
X1278146Y260066D01*
X1278188Y259974D01*
X1278226Y259881D01*
X1278260Y259786D01*
X1278291Y259691D01*
X1278318Y259594D01*
X1278341Y259496D01*
X1278361Y259397D01*
X1278376Y259297D01*
X1278388Y259197D01*
X1278396Y259097D01*
X1278400Y258996D01*
X1278400Y258896D01*
X1278396Y258795D01*
X1278388Y258695D01*
X1278376Y258595D01*
X1278361Y258495D01*
X1278341Y258396D01*
X1278318Y258298D01*
X1278291Y258201D01*
X1278260Y258106D01*
X1278226Y258011D01*
X1278188Y257918D01*
X1278146Y257826D01*
X1278101Y257736D01*
X1278052Y257648D01*
X1278000Y257562D01*
X1277945Y257478D01*
X1277886Y257396D01*
X1277825Y257316D01*
X1277760Y257239D01*
X1277692Y257165D01*
X1277622Y257093D01*
X1277549Y257024D01*
X1277473Y256957D01*
X1277394Y256894D01*
X1277314Y256834D01*
X1277231Y256777D01*
X1277145Y256723D01*
X1277058Y256673D01*
X1276969Y256626D01*
X1276878Y256583D01*
X1276786Y256543D01*
X1276692Y256507D01*
X1276597Y256474D01*
X1276500Y256445D01*
X1276403Y256420D01*
X1276304Y256399D01*
X1276205Y256381D01*
X1276105Y256368D01*
X1276005Y256358D01*
X1275905Y256352D01*
X1275804Y256350D01*
X463716Y132728D02*
X461119Y132728D01*
X461020Y132730D01*
X460920Y132736D01*
X460821Y132745D01*
X460723Y132758D01*
X460625Y132775D01*
X460527Y132796D01*
X460431Y132821D01*
X460336Y132849D01*
X460242Y132881D01*
X460149Y132916D01*
X460057Y132955D01*
X459967Y132998D01*
X459879Y133043D01*
X459792Y133093D01*
X459708Y133145D01*
X459625Y133201D01*
X459545Y133259D01*
X459467Y133321D01*
X459392Y133386D01*
X459319Y133454D01*
X459249Y133524D01*
X459181Y133597D01*
X459116Y133672D01*
X459054Y133750D01*
X458996Y133830D01*
X458940Y133913D01*
X458888Y133997D01*
X458838Y134084D01*
X458793Y134172D01*
X458750Y134262D01*
X458711Y134354D01*
X458676Y134447D01*
X458644Y134541D01*
X458616Y134636D01*
X458591Y134732D01*
X458570Y134830D01*
X458553Y134928D01*
X458540Y135026D01*
X458531Y135125D01*
X458525Y135225D01*
X458523Y135324D01*
X458523Y141816D01*
X458525Y141915D01*
X458531Y142015D01*
X458540Y142114D01*
X458553Y142212D01*
X458570Y142310D01*
X458591Y142408D01*
X458616Y142504D01*
X458644Y142599D01*
X458676Y142693D01*
X458711Y142786D01*
X458750Y142878D01*
X458793Y142968D01*
X458838Y143056D01*
X458888Y143143D01*
X458940Y143227D01*
X458996Y143310D01*
X459054Y143390D01*
X459116Y143468D01*
X459181Y143543D01*
X459249Y143616D01*
X459319Y143686D01*
X459392Y143754D01*
X459467Y143819D01*
X459545Y143881D01*
X459625Y143939D01*
X459708Y143995D01*
X459792Y144047D01*
X459879Y144097D01*
X459967Y144142D01*
X460057Y144185D01*
X460149Y144224D01*
X460241Y144259D01*
X460336Y144291D01*
X460431Y144319D01*
X460527Y144344D01*
X460625Y144365D01*
X460723Y144382D01*
X460821Y144395D01*
X460920Y144404D01*
X461020Y144410D01*
X461119Y144412D01*
X463716Y144412D01*
X468081Y141816D02*
X471326Y144412D01*
X471326Y132728D01*
X468081Y132728D02*
X474572Y132728D01*
X486002Y141491D02*
X486000Y141598D01*
X485994Y141704D01*
X485984Y141810D01*
X485971Y141916D01*
X485953Y142022D01*
X485932Y142126D01*
X485907Y142230D01*
X485878Y142333D01*
X485846Y142434D01*
X485809Y142534D01*
X485769Y142633D01*
X485726Y142731D01*
X485679Y142827D01*
X485628Y142921D01*
X485574Y143013D01*
X485517Y143103D01*
X485457Y143191D01*
X485393Y143276D01*
X485326Y143359D01*
X485256Y143440D01*
X485184Y143518D01*
X485108Y143594D01*
X485030Y143666D01*
X484949Y143736D01*
X484866Y143803D01*
X484781Y143867D01*
X484693Y143927D01*
X484603Y143984D01*
X484511Y144038D01*
X484417Y144089D01*
X484321Y144136D01*
X484223Y144179D01*
X484124Y144219D01*
X484024Y144256D01*
X483923Y144288D01*
X483820Y144317D01*
X483716Y144342D01*
X483612Y144363D01*
X483506Y144381D01*
X483400Y144394D01*
X483294Y144404D01*
X483188Y144410D01*
X483081Y144412D01*
X482960Y144410D01*
X482839Y144404D01*
X482719Y144394D01*
X482598Y144381D01*
X482479Y144363D01*
X482359Y144342D01*
X482241Y144317D01*
X482124Y144288D01*
X482007Y144255D01*
X481892Y144219D01*
X481778Y144178D01*
X481665Y144135D01*
X481553Y144087D01*
X481444Y144036D01*
X481336Y143981D01*
X481229Y143923D01*
X481125Y143862D01*
X481023Y143797D01*
X480923Y143729D01*
X480825Y143658D01*
X480729Y143584D01*
X480636Y143507D01*
X480546Y143426D01*
X480458Y143343D01*
X480373Y143257D01*
X480290Y143168D01*
X480211Y143077D01*
X480134Y142983D01*
X480061Y142887D01*
X479991Y142789D01*
X479924Y142688D01*
X479860Y142585D01*
X479800Y142480D01*
X479743Y142373D01*
X479689Y142265D01*
X479639Y142155D01*
X479593Y142043D01*
X479550Y141930D01*
X479511Y141815D01*
X485029Y139219D02*
X485108Y139296D01*
X485184Y139377D01*
X485257Y139460D01*
X485327Y139545D01*
X485394Y139633D01*
X485458Y139723D01*
X485518Y139815D01*
X485575Y139910D01*
X485629Y140006D01*
X485680Y140104D01*
X485727Y140204D01*
X485771Y140306D01*
X485811Y140409D01*
X485847Y140513D01*
X485879Y140619D01*
X485908Y140725D01*
X485933Y140833D01*
X485955Y140941D01*
X485972Y141051D01*
X485986Y141160D01*
X485995Y141270D01*
X486001Y141381D01*
X486003Y141491D01*
X485028Y139219D02*
X479511Y132728D01*
X486002Y132728D01*
M02*
