G04 EAGLE Gerber RS-274X export*
G75*
%MOMM*%
%FSLAX34Y34*%
%LPD*%
%INSoldermask Top*%
%IPPOS*%
%AMOC8*
5,1,8,0,0,1.08239X$1,22.5*%
G01*
%ADD10C,3.303200*%
%ADD11C,4.203200*%
%ADD12R,1.511200X1.511200*%
%ADD13C,1.511200*%
%ADD14C,1.524000*%
%ADD15C,1.727200*%
%ADD16C,2.603200*%
%ADD17R,1.703200X1.503200*%
%ADD18R,1.203200X1.603200*%
%ADD19R,1.503200X1.703200*%
%ADD20C,0.959600*%


D10*
X30000Y670000D03*
X30000Y30000D03*
X1470000Y670000D03*
X1470000Y30000D03*
D11*
X120000Y570000D03*
X340000Y570000D03*
X640000Y570000D03*
X860000Y570000D03*
X1160000Y570000D03*
X1380000Y570000D03*
D12*
X1243200Y43800D03*
D13*
X1217800Y43800D03*
X1192400Y43800D03*
X1167000Y43800D03*
X1141600Y43800D03*
X1116200Y43800D03*
X1090800Y43800D03*
X1065400Y43800D03*
X1040000Y43800D03*
X1014600Y43800D03*
X989200Y43800D03*
X963800Y43800D03*
X938400Y43800D03*
X913000Y43800D03*
X887600Y43800D03*
X887600Y196200D03*
X913000Y196200D03*
X938400Y196200D03*
X963800Y196200D03*
X989200Y196200D03*
X1014600Y196200D03*
X1040000Y196200D03*
X1065400Y196200D03*
X1090800Y196200D03*
X1116200Y196200D03*
X1141600Y196200D03*
X1167000Y196200D03*
X1192400Y196200D03*
X1217800Y196200D03*
X1243200Y196200D03*
D14*
X274704Y418900D02*
X261496Y418900D01*
X261496Y393500D02*
X274704Y393500D01*
X274704Y266500D02*
X261496Y266500D01*
X261496Y241100D02*
X274704Y241100D01*
X274704Y368100D02*
X261496Y368100D01*
X261496Y342700D02*
X274704Y342700D01*
X274704Y291900D02*
X261496Y291900D01*
X261496Y317300D02*
X274704Y317300D01*
X198504Y241100D02*
X185296Y241100D01*
X185296Y266500D02*
X198504Y266500D01*
X198504Y291900D02*
X185296Y291900D01*
X185296Y317300D02*
X198504Y317300D01*
X198504Y342700D02*
X185296Y342700D01*
X185296Y368100D02*
X198504Y368100D01*
X198504Y393500D02*
X185296Y393500D01*
X185296Y418900D02*
X198504Y418900D01*
X781496Y418900D02*
X794704Y418900D01*
X794704Y393500D02*
X781496Y393500D01*
X781496Y266500D02*
X794704Y266500D01*
X794704Y241100D02*
X781496Y241100D01*
X781496Y368100D02*
X794704Y368100D01*
X794704Y342700D02*
X781496Y342700D01*
X781496Y291900D02*
X794704Y291900D01*
X794704Y317300D02*
X781496Y317300D01*
X718504Y241100D02*
X705296Y241100D01*
X705296Y266500D02*
X718504Y266500D01*
X718504Y291900D02*
X705296Y291900D01*
X705296Y317300D02*
X718504Y317300D01*
X718504Y342700D02*
X705296Y342700D01*
X705296Y368100D02*
X718504Y368100D01*
X718504Y393500D02*
X705296Y393500D01*
X705296Y418900D02*
X718504Y418900D01*
X1291496Y418900D02*
X1304704Y418900D01*
X1304704Y393500D02*
X1291496Y393500D01*
X1291496Y266500D02*
X1304704Y266500D01*
X1304704Y241100D02*
X1291496Y241100D01*
X1291496Y368100D02*
X1304704Y368100D01*
X1304704Y342700D02*
X1291496Y342700D01*
X1291496Y291900D02*
X1304704Y291900D01*
X1304704Y317300D02*
X1291496Y317300D01*
X1228504Y241100D02*
X1215296Y241100D01*
X1215296Y266500D02*
X1228504Y266500D01*
X1228504Y291900D02*
X1215296Y291900D01*
X1215296Y317300D02*
X1228504Y317300D01*
X1228504Y342700D02*
X1215296Y342700D01*
X1215296Y368100D02*
X1228504Y368100D01*
X1228504Y393500D02*
X1215296Y393500D01*
X1215296Y418900D02*
X1228504Y418900D01*
X638900Y118504D02*
X638900Y105296D01*
X613500Y105296D02*
X613500Y118504D01*
X486500Y118504D02*
X486500Y105296D01*
X461100Y105296D02*
X461100Y118504D01*
X588100Y118504D02*
X588100Y105296D01*
X562700Y105296D02*
X562700Y118504D01*
X511900Y118504D02*
X511900Y105296D01*
X537300Y105296D02*
X537300Y118504D01*
X461100Y181496D02*
X461100Y194704D01*
X486500Y194704D02*
X486500Y181496D01*
X511900Y181496D02*
X511900Y194704D01*
X537300Y194704D02*
X537300Y181496D01*
X562700Y181496D02*
X562700Y194704D01*
X588100Y194704D02*
X588100Y181496D01*
X613500Y181496D02*
X613500Y194704D01*
X638900Y194704D02*
X638900Y181496D01*
D15*
X1324280Y56500D02*
X1339520Y56500D01*
X1339520Y81900D02*
X1324280Y81900D01*
X1324280Y107300D02*
X1339520Y107300D01*
X1339520Y132700D02*
X1324280Y132700D01*
X1324280Y158100D02*
X1339520Y158100D01*
X1339520Y183500D02*
X1324280Y183500D01*
X145720Y182700D02*
X130480Y182700D01*
X130480Y157300D02*
X145720Y157300D01*
D16*
X80000Y650000D03*
X62500Y615000D03*
X62500Y570000D03*
X62500Y525000D03*
X80000Y490000D03*
X120000Y480000D03*
X160000Y490000D03*
X177500Y525000D03*
X177500Y570000D03*
X177500Y615000D03*
X160000Y650000D03*
X120000Y660000D03*
X300000Y650000D03*
X282500Y615000D03*
X282500Y570000D03*
X282500Y525000D03*
X300000Y490000D03*
X340000Y480000D03*
X380000Y490000D03*
X397500Y525000D03*
X397500Y570000D03*
X397500Y615000D03*
X380000Y650000D03*
X340000Y660000D03*
X600000Y650000D03*
X582500Y615000D03*
X582500Y570000D03*
X582500Y525000D03*
X600000Y490000D03*
X640000Y480000D03*
X680000Y490000D03*
X697500Y525000D03*
X697500Y570000D03*
X697500Y615000D03*
X680000Y650000D03*
X640000Y660000D03*
X820000Y650000D03*
X802500Y615000D03*
X802500Y570000D03*
X802500Y525000D03*
X820000Y490000D03*
X860000Y480000D03*
X900000Y490000D03*
X917500Y525000D03*
X917500Y570000D03*
X917500Y615000D03*
X900000Y650000D03*
X860000Y660000D03*
X1120000Y650000D03*
X1102500Y615000D03*
X1102500Y570000D03*
X1102500Y525000D03*
X1120000Y490000D03*
X1160000Y480000D03*
X1200000Y490000D03*
X1217500Y525000D03*
X1217500Y570000D03*
X1217500Y615000D03*
X1200000Y650000D03*
X1160000Y660000D03*
X1340000Y650000D03*
X1322500Y615000D03*
X1322500Y570000D03*
X1322500Y525000D03*
X1340000Y490000D03*
X1380000Y480000D03*
X1420000Y490000D03*
X1437500Y525000D03*
X1437500Y570000D03*
X1437500Y615000D03*
X1420000Y650000D03*
X1380000Y660000D03*
D17*
X507140Y358210D03*
X507140Y377210D03*
X452020Y358120D03*
X452020Y377120D03*
X963100Y365740D03*
X963100Y384740D03*
X1021210Y365740D03*
X1021210Y384740D03*
D14*
X144704Y418900D02*
X131496Y418900D01*
X131496Y393500D02*
X144704Y393500D01*
X144704Y266500D02*
X131496Y266500D01*
X131496Y241100D02*
X144704Y241100D01*
X144704Y368100D02*
X131496Y368100D01*
X131496Y342700D02*
X144704Y342700D01*
X144704Y291900D02*
X131496Y291900D01*
X131496Y317300D02*
X144704Y317300D01*
X68504Y241100D02*
X55296Y241100D01*
X55296Y266500D02*
X68504Y266500D01*
X68504Y291900D02*
X55296Y291900D01*
X55296Y317300D02*
X68504Y317300D01*
X68504Y342700D02*
X55296Y342700D01*
X55296Y368100D02*
X68504Y368100D01*
X68504Y393500D02*
X55296Y393500D01*
X55296Y418900D02*
X68504Y418900D01*
D12*
X1010000Y535400D03*
D13*
X1010000Y484600D03*
D12*
X1010000Y645400D03*
D13*
X1010000Y594600D03*
D14*
X404704Y418900D02*
X391496Y418900D01*
X391496Y393500D02*
X404704Y393500D01*
X404704Y266500D02*
X391496Y266500D01*
X391496Y241100D02*
X404704Y241100D01*
X404704Y368100D02*
X391496Y368100D01*
X391496Y342700D02*
X404704Y342700D01*
X404704Y291900D02*
X391496Y291900D01*
X391496Y317300D02*
X404704Y317300D01*
X328504Y241100D02*
X315296Y241100D01*
X315296Y266500D02*
X328504Y266500D01*
X328504Y291900D02*
X315296Y291900D01*
X315296Y317300D02*
X328504Y317300D01*
X328504Y342700D02*
X315296Y342700D01*
X315296Y368100D02*
X328504Y368100D01*
X328504Y393500D02*
X315296Y393500D01*
X315296Y418900D02*
X328504Y418900D01*
X651496Y418900D02*
X664704Y418900D01*
X664704Y393500D02*
X651496Y393500D01*
X651496Y266500D02*
X664704Y266500D01*
X664704Y241100D02*
X651496Y241100D01*
X651496Y368100D02*
X664704Y368100D01*
X664704Y342700D02*
X651496Y342700D01*
X651496Y291900D02*
X664704Y291900D01*
X664704Y317300D02*
X651496Y317300D01*
X588504Y241100D02*
X575296Y241100D01*
X575296Y266500D02*
X588504Y266500D01*
X588504Y291900D02*
X575296Y291900D01*
X575296Y317300D02*
X588504Y317300D01*
X588504Y342700D02*
X575296Y342700D01*
X575296Y368100D02*
X588504Y368100D01*
X588504Y393500D02*
X575296Y393500D01*
X575296Y418900D02*
X588504Y418900D01*
X911496Y418900D02*
X924704Y418900D01*
X924704Y393500D02*
X911496Y393500D01*
X911496Y266500D02*
X924704Y266500D01*
X924704Y241100D02*
X911496Y241100D01*
X911496Y368100D02*
X924704Y368100D01*
X924704Y342700D02*
X911496Y342700D01*
X911496Y291900D02*
X924704Y291900D01*
X924704Y317300D02*
X911496Y317300D01*
X848504Y241100D02*
X835296Y241100D01*
X835296Y266500D02*
X848504Y266500D01*
X848504Y291900D02*
X835296Y291900D01*
X835296Y317300D02*
X848504Y317300D01*
X848504Y342700D02*
X835296Y342700D01*
X835296Y368100D02*
X848504Y368100D01*
X848504Y393500D02*
X835296Y393500D01*
X835296Y418900D02*
X848504Y418900D01*
X1161496Y418900D02*
X1174704Y418900D01*
X1174704Y393500D02*
X1161496Y393500D01*
X1161496Y266500D02*
X1174704Y266500D01*
X1174704Y241100D02*
X1161496Y241100D01*
X1161496Y368100D02*
X1174704Y368100D01*
X1174704Y342700D02*
X1161496Y342700D01*
X1161496Y291900D02*
X1174704Y291900D01*
X1174704Y317300D02*
X1161496Y317300D01*
X1098504Y241100D02*
X1085296Y241100D01*
X1085296Y266500D02*
X1098504Y266500D01*
X1098504Y291900D02*
X1085296Y291900D01*
X1085296Y317300D02*
X1098504Y317300D01*
X1098504Y342700D02*
X1085296Y342700D01*
X1085296Y368100D02*
X1098504Y368100D01*
X1098504Y393500D02*
X1085296Y393500D01*
X1085296Y418900D02*
X1098504Y418900D01*
X1431496Y418900D02*
X1444704Y418900D01*
X1444704Y393500D02*
X1431496Y393500D01*
X1431496Y266500D02*
X1444704Y266500D01*
X1444704Y241100D02*
X1431496Y241100D01*
X1431496Y368100D02*
X1444704Y368100D01*
X1444704Y342700D02*
X1431496Y342700D01*
X1431496Y291900D02*
X1444704Y291900D01*
X1444704Y317300D02*
X1431496Y317300D01*
X1368504Y241100D02*
X1355296Y241100D01*
X1355296Y266500D02*
X1368504Y266500D01*
X1368504Y291900D02*
X1355296Y291900D01*
X1355296Y317300D02*
X1368504Y317300D01*
X1368504Y342700D02*
X1355296Y342700D01*
X1355296Y368100D02*
X1368504Y368100D01*
X1368504Y393500D02*
X1355296Y393500D01*
X1355296Y418900D02*
X1368504Y418900D01*
D15*
X157620Y72500D02*
X142380Y72500D01*
X142380Y97900D02*
X157620Y97900D01*
X157620Y123300D02*
X142380Y123300D01*
X387380Y78000D02*
X402620Y78000D01*
X402620Y103400D02*
X387380Y103400D01*
D12*
X490000Y645400D03*
D13*
X490000Y594600D03*
D12*
X490000Y545400D03*
D13*
X490000Y494600D03*
D18*
X516320Y427190D03*
X525820Y405190D03*
X506820Y405190D03*
X462020Y427190D03*
X471520Y405190D03*
X452520Y405190D03*
X973100Y431000D03*
X982600Y409000D03*
X963600Y409000D03*
X1031210Y431000D03*
X1040710Y409000D03*
X1021710Y409000D03*
D17*
X219580Y266280D03*
X219580Y285280D03*
X100000Y309500D03*
X100000Y290500D03*
D19*
X425830Y321900D03*
X444830Y321900D03*
D17*
X622060Y288670D03*
X622060Y307670D03*
X751140Y266280D03*
X751140Y285280D03*
X1133140Y311530D03*
X1133140Y330530D03*
X1260000Y259500D03*
X1260000Y240500D03*
D19*
X483310Y157620D03*
X464310Y157620D03*
D15*
X795250Y57620D02*
X795250Y42380D01*
X769850Y42380D02*
X769850Y57620D01*
X744450Y57620D02*
X744450Y42380D01*
X719050Y42380D02*
X719050Y57620D01*
X693650Y57620D02*
X693650Y42380D01*
D20*
X220980Y331470D03*
X346710Y255270D03*
X358140Y316230D03*
X240030Y221600D03*
X731520Y354330D03*
X240030Y148590D03*
X617220Y22860D03*
X716280Y125730D03*
X701040Y190500D03*
X1485296Y205740D03*
X1009650Y262890D03*
X480060Y369570D03*
X464820Y304800D03*
X556260Y339090D03*
X632460Y361950D03*
X762000Y350520D03*
X762000Y381000D03*
X1123950Y361950D03*
X994410Y377190D03*
X525780Y331470D03*
X731520Y381000D03*
X171450Y182880D03*
X148590Y53340D03*
X541020Y133350D03*
X681990Y133350D03*
X346710Y190500D03*
X967740Y140970D03*
X426720Y266700D03*
X910590Y168882D03*
X872490Y247650D03*
X101600Y355600D03*
X114300Y425450D03*
X209550Y552450D03*
X358140Y533400D03*
X369570Y358140D03*
X621030Y335280D03*
X605790Y464820D03*
X666750Y518160D03*
X910590Y441960D03*
X876300Y266700D03*
X862700Y422910D03*
X887730Y293370D03*
X891540Y457200D03*
X891540Y384810D03*
X864870Y384810D03*
X933450Y449580D03*
X1135380Y415290D03*
X1112520Y434340D03*
X1295400Y495300D03*
X1394460Y384810D03*
X1398270Y438150D03*
X1485296Y571500D03*
X704850Y76200D03*
X552450Y76200D03*
M02*
