M48
;GenerationSoftware,Autodesk,EAGLE,9.4.2*%
;CreationDate,2020-03-26T02:09:14Z*%
FMAT,2
ICI,OFF
METRIC,TZ,000.000
T7C0.350
T6C0.800
T5C0.813
T4C1.016
T3C1.600
T2C3.100
T1C4.000
%
G90
M71
T1
X116000Y57000
X138000Y57000
X86000Y57000
X64000Y57000
X34000Y57000
X12000Y57000
T2
X147000Y67000
X3000Y3000
X3000Y67000
X147000Y3000
T3
X17750Y57000
X17750Y61500
X28250Y61500
X30000Y65000
X12000Y66000
X16000Y65000
X6250Y52500
X8000Y49000
X12000Y48000
X16000Y49000
X8000Y65000
X6250Y61500
X6250Y57000
X17750Y52500
X138000Y66000
X142000Y65000
X143750Y61500
X143750Y57000
X143750Y52500
X142000Y49000
X138000Y48000
X134000Y49000
X132250Y52500
X132250Y57000
X132250Y61500
X134000Y65000
X116000Y66000
X120000Y65000
X121750Y61500
X121750Y52500
X116000Y48000
X112000Y49000
X110250Y52500
X110250Y57000
X120000Y49000
X110250Y61500
X112000Y65000
X86000Y66000
X90000Y65000
X91750Y61500
X121750Y57000
X91750Y52500
X90000Y49000
X86000Y48000
X91750Y57000
X82000Y49000
X80250Y52500
X80250Y57000
X80250Y61500
X82000Y65000
X64000Y66000
X68000Y65000
X69750Y61500
X69750Y57000
X69750Y52500
X68000Y49000
X64000Y48000
X60000Y49000
X58250Y52500
X58250Y57000
X58250Y61500
X60000Y65000
X34000Y66000
X38000Y65000
X39750Y61500
X39750Y57000
X39750Y52500
X38000Y49000
X34000Y48000
X30000Y49000
X28250Y52500
X28250Y57000
T4
X133190Y5650
X133190Y8190
X133190Y10730
X133190Y13270
X133190Y15810
X133190Y18350
X13810Y18270
X13810Y15730
X71905Y5000
X15000Y7250
X15000Y9790
X15000Y12330
X39500Y7800
X39500Y10340
X79525Y5000
X76985Y5000
X69365Y5000
X74445Y5000
T5
X143810Y36810
X143810Y34270
X143810Y29190
X143810Y31730
X136190Y24110
X136190Y26650
X136190Y29190
X136190Y31730
X136190Y34270
X136190Y36810
X136190Y39350
X136190Y41890
X116810Y39350
X26810Y41890
X26810Y39350
X26810Y26650
X26810Y24110
X26810Y36810
X26810Y34270
X26810Y29190
X26810Y31730
X19190Y24110
X19190Y26650
X19190Y29190
X19190Y31730
X19190Y34270
X19190Y36810
X19190Y39350
X19190Y41890
X78810Y41890
X78810Y39350
X78810Y26650
X78810Y24110
X78810Y36810
X78810Y34270
X78810Y29190
X78810Y31730
X71190Y24110
X71190Y26650
X71190Y29190
X71190Y31730
X71190Y34270
X71190Y36810
X71190Y39350
X71190Y41890
X129810Y41890
X129810Y39350
X129810Y26650
X129810Y24110
X129810Y36810
X129810Y34270
X129810Y31730
X122190Y24110
X122190Y26650
X122190Y29190
X122190Y31730
X122190Y34270
X122190Y36810
X122190Y39350
X122190Y41890
X63890Y11190
X61350Y11190
X48650Y11190
X46110Y11190
X58810Y11190
X56270Y11190
X51190Y11190
X53730Y11190
X46110Y18810
X48650Y18810
X51190Y18810
X53730Y18810
X56270Y18810
X58810Y18810
X61350Y18810
X63890Y18810
X39810Y34270
X129810Y29190
X13810Y41890
X13810Y39350
X13810Y26650
X13810Y24110
X13810Y36810
X13810Y34270
X13810Y29190
X13810Y31730
X6190Y24110
X6190Y26650
X6190Y29190
X6190Y31730
X6190Y34270
X6190Y36810
X6190Y39350
X6190Y41890
X39810Y41890
X39810Y39350
X39810Y26650
X39810Y24110
X39810Y36810
X39810Y29190
X39810Y31730
X32190Y24110
X32190Y26650
X32190Y29190
X32190Y31730
X32190Y34270
X32190Y36810
X32190Y39350
X32190Y41890
X65810Y41890
X65810Y39350
X65810Y26650
X65810Y24110
X65810Y36810
X65810Y34270
X65810Y29190
X65810Y31730
X58190Y24110
X58190Y26650
X58190Y29190
X58190Y31730
X58190Y34270
X58190Y36810
X58190Y39350
X58190Y41890
X91810Y41890
X91810Y39350
X91810Y26650
X91810Y24110
X91810Y36810
X91810Y34270
X91810Y29190
X91810Y31730
X84190Y24110
X84190Y26650
X84190Y29190
X84190Y31730
X84190Y34270
X84190Y36810
X84190Y39350
X84190Y41890
X116810Y41890
X116810Y26650
X116810Y24110
X116810Y36810
X116810Y34270
X116810Y29190
X116810Y31730
X109190Y24110
X109190Y26650
X109190Y29190
X109190Y31730
X109190Y34270
X109190Y36810
X109190Y39350
X109190Y41890
X143810Y41890
X143810Y39350
X143810Y26650
X143810Y24110
T6
X111620Y19620
X116700Y19620
X121780Y19620
X124320Y19620
X119240Y19620
X88760Y19620
X114160Y19620
X109080Y19620
X106540Y19620
X104000Y19620
X101460Y19620
X98920Y19620
X96380Y19620
X93840Y19620
X91300Y19620
X88760Y4380
X91300Y4380
X101000Y53540
X101000Y48460
X101000Y64540
X101000Y59460
X93840Y4380
X96380Y4380
X98920Y4380
X101460Y4380
X104000Y4380
X106540Y4380
X109080Y4380
X111620Y4380
X114160Y4380
X116700Y4380
X119240Y4380
X121780Y4380
X124320Y4380
X49000Y64540
X49000Y59460
X49000Y54540
X49000Y49460
T7
X11430Y42545
X87249Y24765
X91059Y16888
X42672Y26670
X96774Y14097
X34671Y19050
X68199Y13335
X54102Y13335
X48006Y36957
X22098Y33147
X86487Y38481
X34671Y25527
X35814Y31623
X24003Y22160
X73152Y35433
X24003Y14859
X61722Y2286
X71628Y12573
X70104Y19050
X10160Y35560
X148530Y20574
X100965Y26289
X46482Y30480
X70485Y7620
X148530Y57150
X139827Y43815
X139446Y38481
X129540Y49530
X111252Y43434
X113538Y41529
X93345Y44958
X14859Y5334
X89154Y38481
X89154Y45720
X88773Y29337
X86270Y42291
X87630Y26670
X91059Y44196
X66675Y51816
X60579Y46482
X17145Y18288
X73152Y38100
X52578Y33147
X99441Y37719
X112395Y36195
X62103Y33528
X36957Y35814
X35814Y53340
X20955Y55245
X76200Y38100
X76200Y35052
X63246Y36195
X55626Y33909
X55245Y7620
M30